<?xml version="1.0" encoding="UTF-8"?>
<!--Generator: Apple Native CoreSVG 175-->
<!DOCTYPE svg
PUBLIC "-//W3C//DTD SVG 1.1//EN"
       "http://www.w3.org/Graphics/SVG/1.1/DTD/svg11.dtd">
<svg version="1.1" xmlns="http://www.w3.org/2000/svg" xmlns:xlink="http://www.w3.org/1999/xlink" width="3300" height="2200">
 <!--glyph: "uni10079B.medium", point size: 100.0, font version: "17.3d3e1", template writer version: "65.1"-->
 <g id="Notes">
  <rect height="2200" id="artboard" style="fill:white;opacity:1" width="3300" x="0" y="0"/>
  <line style="fill:none;stroke:black;opacity:1;stroke-width:0.5;" x1="263" x2="3036" y1="292" y2="292"/>
  <text style="stroke:none;fill:black;font-family:sans-serif;font-size:13;font-weight:bold;" transform="matrix(1 0 0 1 263 322)">Weight/Scale Variations</text>
  <text style="stroke:none;fill:black;font-family:sans-serif;font-size:13;text-anchor:middle;" transform="matrix(1 0 0 1 559.711 322)">Ultralight</text>
  <text style="stroke:none;fill:black;font-family:sans-serif;font-size:13;text-anchor:middle;" transform="matrix(1 0 0 1 856.422 322)">Thin</text>
  <text style="stroke:none;fill:black;font-family:sans-serif;font-size:13;text-anchor:middle;" transform="matrix(1 0 0 1 1153.13 322)">Light</text>
  <text style="stroke:none;fill:black;font-family:sans-serif;font-size:13;text-anchor:middle;" transform="matrix(1 0 0 1 1449.84 322)">Regular</text>
  <text style="stroke:none;fill:black;font-family:sans-serif;font-size:13;text-anchor:middle;" transform="matrix(1 0 0 1 1746.56 322)">Medium</text>
  <text style="stroke:none;fill:black;font-family:sans-serif;font-size:13;text-anchor:middle;" transform="matrix(1 0 0 1 2043.27 322)">Semibold</text>
  <text style="stroke:none;fill:black;font-family:sans-serif;font-size:13;text-anchor:middle;" transform="matrix(1 0 0 1 2339.98 322)">Bold</text>
  <text style="stroke:none;fill:black;font-family:sans-serif;font-size:13;text-anchor:middle;" transform="matrix(1 0 0 1 2636.69 322)">Heavy</text>
  <text style="stroke:none;fill:black;font-family:sans-serif;font-size:13;text-anchor:middle;" transform="matrix(1 0 0 1 2933.4 322)">Black</text>
  <line style="fill:none;stroke:black;opacity:1;stroke-width:0.5;" x1="263" x2="3036" y1="1903" y2="1903"/>
  <g transform="matrix(1 0 0 1 263 1933)">
   <path d="M9.24805 0.830078Q10.8691 0.830078 12.2949 0.214844Q13.7207-0.400391 14.8096-1.49414Q15.8984-2.58789 16.5186-4.01367Q17.1387-5.43945 17.1387-7.05078Q17.1387-8.66211 16.5186-10.0879Q15.8984-11.5137 14.8047-12.6074Q13.7109-13.7012 12.2852-14.3164Q10.8594-14.9316 9.23828-14.9316Q7.62695-14.9316 6.20117-14.3164Q4.77539-13.7012 3.69141-12.6074Q2.60742-11.5137 1.9873-10.0879Q1.36719-8.66211 1.36719-7.05078Q1.36719-5.43945 1.9873-4.01367Q2.60742-2.58789 3.69629-1.49414Q4.78516-0.400391 6.21094 0.214844Q7.63672 0.830078 9.24805 0.830078ZM9.24805-0.654297Q7.91992-0.654297 6.7627-1.14746Q5.60547-1.64062 4.73145-2.51953Q3.85742-3.39844 3.36426-4.56055Q2.87109-5.72266 2.87109-7.05078Q2.87109-8.37891 3.35938-9.54102Q3.84766-10.7031 4.72168-11.582Q5.5957-12.4609 6.75293-12.9541Q7.91016-13.4473 9.23828-13.4473Q10.5762-13.4473 11.7334-12.9541Q12.8906-12.4609 13.7695-11.582Q14.6484-10.7031 15.1465-9.54102Q15.6445-8.37891 15.6445-7.05078Q15.6445-5.72266 15.1514-4.56055Q14.6582-3.39844 13.7842-2.51953Q12.9102-1.64062 11.748-1.14746Q10.5859-0.654297 9.24805-0.654297ZM5.6543-7.05078Q5.6543-6.72852 5.85938-6.52832Q6.06445-6.32812 6.40625-6.32812L8.51562-6.32812L8.51562-4.20898Q8.51562-3.88672 8.71094-3.67676Q8.90625-3.4668 9.23828-3.4668Q9.56055-3.4668 9.77051-3.67676Q9.98047-3.88672 9.98047-4.20898L9.98047-6.32812L12.0898-6.32812Q12.4219-6.32812 12.627-6.52832Q12.832-6.72852 12.832-7.05078Q12.832-7.38281 12.627-7.58789Q12.4219-7.79297 12.0898-7.79297L9.98047-7.79297L9.98047-9.90234Q9.98047-10.2344 9.77051-10.4443Q9.56055-10.6543 9.23828-10.6543Q8.90625-10.6543 8.71094-10.4443Q8.51562-10.2344 8.51562-9.90234L8.51562-7.79297L6.40625-7.79297Q6.06445-7.79297 5.85938-7.58789Q5.6543-7.38281 5.6543-7.05078Z"/>
  </g>
  <g transform="matrix(1 0 0 1 281.867 1933)">
   <path d="M11.709 2.91016Q13.75 2.91016 15.5518 2.12891Q17.3535 1.34766 18.7305-0.0292969Q20.1074-1.40625 20.8887-3.20801Q21.6699-5.00977 21.6699-7.05078Q21.6699-9.0918 20.8887-10.8936Q20.1074-12.6953 18.7305-14.0723Q17.3535-15.4492 15.5469-16.2305Q13.7402-17.0117 11.6992-17.0117Q9.6582-17.0117 7.85645-16.2305Q6.05469-15.4492 4.68262-14.0723Q3.31055-12.6953 2.5293-10.8936Q1.74805-9.0918 1.74805-7.05078Q1.74805-5.00977 2.5293-3.20801Q3.31055-1.40625 4.6875-0.0292969Q6.06445 1.34766 7.86621 2.12891Q9.66797 2.91016 11.709 2.91016ZM11.709 1.25Q9.98047 1.25 8.47656 0.605469Q6.97266-0.0390625 5.83496-1.17676Q4.69727-2.31445 4.05762-3.81836Q3.41797-5.32227 3.41797-7.05078Q3.41797-8.7793 4.05762-10.2832Q4.69727-11.7871 5.83008-12.9297Q6.96289-14.0723 8.4668-14.7119Q9.9707-15.3516 11.6992-15.3516Q13.4277-15.3516 14.9316-14.7119Q16.4355-14.0723 17.5781-12.9297Q18.7207-11.7871 19.3652-10.2832Q20.0098-8.7793 20.0098-7.05078Q20.0098-5.32227 19.3701-3.81836Q18.7305-2.31445 17.5928-1.17676Q16.4551-0.0390625 14.9463 0.605469Q13.4375 1.25 11.709 1.25ZM7.17773-7.05078Q7.17773-6.69922 7.41211-6.47461Q7.64648-6.25 8.01758-6.25L10.8887-6.25L10.8887-3.36914Q10.8887-2.99805 11.1133-2.76855Q11.3379-2.53906 11.6895-2.53906Q12.0605-2.53906 12.29-2.76855Q12.5195-2.99805 12.5195-3.36914L12.5195-6.25L15.4004-6.25Q15.7715-6.25 16.001-6.47461Q16.2305-6.69922 16.2305-7.05078Q16.2305-7.42188 16.001-7.65137Q15.7715-7.88086 15.4004-7.88086L12.5195-7.88086L12.5195-10.752Q12.5195-11.1328 12.29-11.3623Q12.0605-11.5918 11.6895-11.5918Q11.3379-11.5918 11.1133-11.3574Q10.8887-11.123 10.8887-10.752L10.8887-7.88086L8.01758-7.88086Q7.63672-7.88086 7.40723-7.65137Q7.17773-7.42188 7.17773-7.05078Z"/>
  </g>
  <g transform="matrix(1 0 0 1 305.646 1933)">
   <path d="M14.9707 5.66406Q17.0605 5.66406 18.96 5.01465Q20.8594 4.36523 22.4512 3.19336Q24.043 2.02148 25.2197 0.429688Q26.3965-1.16211 27.0459-3.06641Q27.6953-4.9707 27.6953-7.05078Q27.6953-9.14062 27.0459-11.04Q26.3965-12.9395 25.2197-14.5312Q24.043-16.123 22.4512-17.2998Q20.8594-18.4766 18.9551-19.126Q17.0508-19.7754 14.9609-19.7754Q12.8711-19.7754 10.9717-19.126Q9.07227-18.4766 7.48535-17.2998Q5.89844-16.123 4.72168-14.5312Q3.54492-12.9395 2.90039-11.04Q2.25586-9.14062 2.25586-7.05078Q2.25586-4.9707 2.90527-3.06641Q3.55469-1.16211 4.72656 0.429688Q5.89844 2.02148 7.49023 3.19336Q9.08203 4.36523 10.9814 5.01465Q12.8809 5.66406 14.9707 5.66406ZM14.9707 3.84766Q13.1641 3.84766 11.5283 3.2959Q9.89258 2.74414 8.53516 1.74805Q7.17773 0.751953 6.17676-0.610352Q5.17578-1.97266 4.62891-3.6084Q4.08203-5.24414 4.08203-7.05078Q4.08203-8.86719 4.62891-10.5029Q5.17578-12.1387 6.17188-13.501Q7.16797-14.8633 8.52539-15.8594Q9.88281-16.8555 11.5186-17.4023Q13.1543-17.9492 14.9609-17.9492Q16.7773-17.9492 18.4131-17.4023Q20.0488-16.8555 21.4111-15.8594Q22.7734-14.8633 23.7695-13.501Q24.7656-12.1387 25.3174-10.5029Q25.8691-8.86719 25.8691-7.05078Q25.8789-5.24414 25.332-3.6084Q24.7852-1.97266 23.7842-0.610352Q22.7832 0.751953 21.4209 1.74805Q20.0586 2.74414 18.4229 3.2959Q16.7871 3.84766 14.9707 3.84766ZM9.19922-7.05078Q9.19922-6.66992 9.45801-6.4209Q9.7168-6.17188 10.1172-6.17188L14.0625-6.17188L14.0625-2.2168Q14.0625-1.81641 14.3115-1.55762Q14.5605-1.29883 14.9512-1.29883Q15.3516-1.29883 15.6104-1.55273Q15.8691-1.80664 15.8691-2.2168L15.8691-6.17188L19.8242-6.17188Q20.2246-6.17188 20.4785-6.4209Q20.7324-6.66992 20.7324-7.05078Q20.7324-7.46094 20.4785-7.71484Q20.2246-7.96875 19.8242-7.96875L15.8691-7.96875L15.8691-11.9141Q15.8691-12.3242 15.6104-12.583Q15.3516-12.8418 14.9512-12.8418Q14.5605-12.8418 14.3115-12.583Q14.0625-12.3242 14.0625-11.9141L14.0625-7.96875L10.1172-7.96875Q9.70703-7.96875 9.45312-7.71484Q9.19922-7.46094 9.19922-7.05078Z"/>
  </g>
  <text style="stroke:none;fill:black;font-family:sans-serif;font-size:13;font-weight:bold;" transform="matrix(1 0 0 1 263 1953)">Design Variations</text>
  <text style="stroke:none;fill:black;font-family:sans-serif;font-size:13;" transform="matrix(1 0 0 1 263 1971)">Symbols are supported in up to nine weights and three scales.</text>
  <text style="stroke:none;fill:black;font-family:sans-serif;font-size:13;" transform="matrix(1 0 0 1 263 1989)">For optimal layout with text and other symbols, vertically align</text>
  <text style="stroke:none;fill:black;font-family:sans-serif;font-size:13;" transform="matrix(1 0 0 1 263 2007)">symbols with the adjacent text.</text>
  <line style="fill:none;stroke:#00AEEF;stroke-width:0.5;opacity:1.0;" x1="776" x2="776" y1="1919" y2="1933"/>
  <g transform="matrix(1 0 0 1 776 1933)">
   <path d="M3.31055 0.15625Q3.70117 0.15625 3.91602-0.00976562Q4.13086-0.175781 4.26758-0.585938L5.52734-4.0332L11.2891-4.0332L12.5488-0.585938Q12.6855-0.175781 12.9004-0.00976562Q13.1152 0.15625 13.4961 0.15625Q13.8867 0.15625 14.1162-0.0585938Q14.3457-0.273438 14.3457-0.644531Q14.3457-0.869141 14.2383-1.17188L9.6582-13.3691Q9.48242-13.8184 9.17969-14.043Q8.87695-14.2676 8.4082-14.2676Q7.5-14.2676 7.17773-13.3789L2.59766-1.16211Q2.49023-0.859375 2.49023-0.634766Q2.49023-0.263672 2.70996-0.0537109Q2.92969 0.15625 3.31055 0.15625ZM6.00586-5.51758L8.37891-12.0898L8.42773-12.0898L10.8008-5.51758Z"/>
  </g>
  <line style="fill:none;stroke:#00AEEF;stroke-width:0.5;opacity:1.0;" x1="793.197" x2="793.197" y1="1919" y2="1933"/>
  <text style="stroke:none;fill:black;font-family:sans-serif;font-size:13;font-weight:bold;" transform="matrix(1 0 0 1 776 1953)">Margins</text>
  <text style="stroke:none;fill:black;font-family:sans-serif;font-size:13;" transform="matrix(1 0 0 1 776 1971)">Leading and trailing margins on the left and right side of each symbol</text>
  <text style="stroke:none;fill:black;font-family:sans-serif;font-size:13;" transform="matrix(1 0 0 1 776 1989)">can be adjusted by modifying the x-location of the margin guidelines.</text>
  <text style="stroke:none;fill:black;font-family:sans-serif;font-size:13;" transform="matrix(1 0 0 1 776 2007)">Modifications are automatically applied proportionally to all</text>
  <text style="stroke:none;fill:black;font-family:sans-serif;font-size:13;" transform="matrix(1 0 0 1 776 2025)">scales and weights.</text>
  <g transform="matrix(1 0 0 1 1289 1933)">
   <path d="M2.8418 1.86523L4.54102 3.57422Q5.18555 4.22852 5.90332 4.17969Q6.62109 4.13086 7.31445 3.35938L18.0078-8.42773L17.041-9.4043L6.42578 2.27539Q6.16211 2.57812 5.89355 2.61719Q5.625 2.65625 5.27344 2.30469L4.10156 1.14258Q3.75 0.791016 3.79395 0.522461Q3.83789 0.253906 4.14062-0.0195312L15.6152-10.8203L14.6387-11.7871L3.04688-0.898438Q2.30469-0.214844 2.25098 0.498047Q2.19727 1.21094 2.8418 1.86523ZM9.25781-16.3281Q8.94531-16.0254 8.90625-15.6348Q8.86719-15.2441 9.04297-14.9512Q9.21875-14.6777 9.55566-14.541Q9.89258-14.4043 10.3809-14.5215Q11.4746-14.7754 12.5977-14.7314Q13.7207-14.6875 14.7949-13.9844L14.209-12.5293Q13.9551-11.9043 14.0674-11.4404Q14.1797-10.9766 14.5801-10.5664L16.875-8.25195Q17.2363-7.88086 17.5781-7.82227Q17.9199-7.76367 18.3398-7.8418L19.4043-8.03711L20.0684-7.36328L20.0293-6.80664Q20-6.43555 20.1221-6.12305Q20.2441-5.81055 20.6055-5.44922L21.3672-4.70703Q21.7285-4.3457 22.1533-4.33105Q22.5781-4.31641 22.9297-4.66797L25.8398-7.58789Q26.1914-7.93945 26.1816-8.35449Q26.1719-8.76953 25.8105-9.13086L25.0391-9.89258Q24.6875-10.2539 24.3799-10.3857Q24.0723-10.5176 23.7109-10.4883L23.1348-10.4395L22.4902-11.0742L22.7344-12.1973Q22.832-12.6172 22.6953-12.9834Q22.5586-13.3496 22.1191-13.7891L19.9219-15.9766Q18.6719-17.2168 17.2607-17.8369Q15.8496-18.457 14.4189-18.4814Q12.9883-18.5059 11.665-17.959Q10.3418-17.4121 9.25781-16.3281ZM10.752-15.957Q11.6602-16.6211 12.7002-16.9043Q13.7402-17.1875 14.8047-17.085Q15.8691-16.9824 16.8701-16.5137Q17.8711-16.0449 18.7012-15.2051L21.1328-12.793Q21.3086-12.6172 21.3525-12.4512Q21.3965-12.2852 21.3379-12.0312L21.0156-10.5469L22.5195-9.0625L23.5059-9.12109Q23.6914-9.13086 23.7891-9.09668Q23.8867-9.0625 24.0332-8.91602L24.6094-8.33984L22.168-5.89844L21.5918-6.47461Q21.4453-6.62109 21.4062-6.71875Q21.3672-6.81641 21.377-7.01172L21.4453-7.98828L19.9512-9.47266L18.4277-9.21875Q18.1836-9.16992 18.042-9.2041Q17.9004-9.23828 17.7148-9.41406L15.7129-11.416Q15.5176-11.5918 15.4932-11.7529Q15.4688-11.9141 15.5859-12.1875L16.4648-14.2773Q15.293-15.3711 13.8281-15.791Q12.3633-16.2109 10.8398-15.7617Q10.7227-15.7324 10.6885-15.8057Q10.6543-15.8789 10.752-15.957Z"/>
  </g>
  <text style="stroke:none;fill:black;font-family:sans-serif;font-size:13;font-weight:bold;" transform="matrix(1 0 0 1 1289 1953)">Exporting</text>
  <text style="stroke:none;fill:black;font-family:sans-serif;font-size:13;" transform="matrix(1 0 0 1 1289 1971)">Symbols should be outlined when exporting to ensure the</text>
  <text style="stroke:none;fill:black;font-family:sans-serif;font-size:13;" transform="matrix(1 0 0 1 1289 1989)">design is preserved when submitting to Xcode.</text>
  <text id="template-version" style="stroke:none;fill:black;font-family:sans-serif;font-size:13;text-anchor:end;" transform="matrix(1 0 0 1 3036 1933)">Template v.3.0</text>
  <text style="stroke:none;fill:black;font-family:sans-serif;font-size:13;text-anchor:end;" transform="matrix(1 0 0 1 3036 1951)">Requires Xcode 13 or greater</text>
  <text id="descriptive-name" style="stroke:none;fill:black;font-family:sans-serif;font-size:13;text-anchor:end;" transform="matrix(1 0 0 1 3036 1969)">Generated from checkmark.shield</text>
  <text style="stroke:none;fill:black;font-family:sans-serif;font-size:13;text-anchor:end;" transform="matrix(1 0 0 1 3036 1987)">Typeset at 100 points</text>
  <text style="stroke:none;fill:black;font-family:sans-serif;font-size:13;" transform="matrix(1 0 0 1 263 726)">Small</text>
  <text style="stroke:none;fill:black;font-family:sans-serif;font-size:13;" transform="matrix(1 0 0 1 263 1156)">Medium</text>
  <text style="stroke:none;fill:black;font-family:sans-serif;font-size:13;" transform="matrix(1 0 0 1 263 1586)">Large</text>
 </g>
 <g id="Guides">
  <g id="H-reference" style="fill:#27AAE1;stroke:none;" transform="matrix(1 0 0 1 339 696)">
   <path d="M0.993347 0L3.6377 0L29.3282-67.1326L30.0301-67.1326L30.0301-70.459L28.1227-70.459ZM11.6882-24.4797L46.9818-24.4797L46.2311-26.7288L12.4382-26.7288ZM55.1193 0L57.7637 0L30.6381-70.459L29.4327-70.459L29.4327-67.1326Z"/>
  </g>
  <line id="Baseline-S" style="fill:none;stroke:#27AAE1;opacity:1;stroke-width:0.5;" x1="263" x2="3036" y1="696" y2="696"/>
  <line id="Capline-S" style="fill:none;stroke:#27AAE1;opacity:1;stroke-width:0.5;" x1="263" x2="3036" y1="625.541" y2="625.541"/>
  <g id="H-reference" style="fill:#27AAE1;stroke:none;" transform="matrix(1 0 0 1 339 1126)">
   <path d="M0.993347 0L3.6377 0L29.3282-67.1326L30.0301-67.1326L30.0301-70.459L28.1227-70.459ZM11.6882-24.4797L46.9818-24.4797L46.2311-26.7288L12.4382-26.7288ZM55.1193 0L57.7637 0L30.6381-70.459L29.4327-70.459L29.4327-67.1326Z"/>
  </g>
  <line id="Baseline-M" style="fill:none;stroke:#27AAE1;opacity:1;stroke-width:0.5;" x1="263" x2="3036" y1="1126" y2="1126"/>
  <line id="Capline-M" style="fill:none;stroke:#27AAE1;opacity:1;stroke-width:0.5;" x1="263" x2="3036" y1="1055.54" y2="1055.54"/>
  <g id="H-reference" style="fill:#27AAE1;stroke:none;" transform="matrix(1 0 0 1 339 1556)">
   <path d="M0.993347 0L3.6377 0L29.3282-67.1326L30.0301-67.1326L30.0301-70.459L28.1227-70.459ZM11.6882-24.4797L46.9818-24.4797L46.2311-26.7288L12.4382-26.7288ZM55.1193 0L57.7637 0L30.6381-70.459L29.4327-70.459L29.4327-67.1326Z"/>
  </g>
  <line id="Baseline-L" style="fill:none;stroke:#27AAE1;opacity:1;stroke-width:0.5;" x1="263" x2="3036" y1="1556" y2="1556"/>
  <line id="Capline-L" style="fill:none;stroke:#27AAE1;opacity:1;stroke-width:0.5;" x1="263" x2="3036" y1="1485.54" y2="1485.54"/>
  <line id="left-margin-Regular-M" style="fill:none;stroke:#00AEEF;stroke-width:0.5;opacity:1.0;" x1="1390.48" x2="1390.48" y1="1030.79" y2="1150.12"/>
  <line id="right-margin-Regular-M" style="fill:none;stroke:#00AEEF;stroke-width:0.5;opacity:1.0;" x1="1509.2" x2="1509.2" y1="1030.79" y2="1150.12"/>
 </g>
 <g id="Symbols">
  <g id="Black-L" transform="matrix(1 0 0 1 2857.05 1556)">
   <path d="M78.8762 31.6148Q79.9348 31.6148 81.3047 31.1841Q82.6746 30.7534 83.9536 30.1503Q98.0379 23.1541 107.804 17.2574Q117.57 11.3608 123.573 5.50091Q129.577-0.358965 132.319-7.10804Q135.061-13.8571 135.061-22.4647L135.061-68.174Q135.061-75.9467 132.332-80.0383Q129.602-84.1299 122.67-87.0855Q120.613-87.9661 116.008-89.545Q111.402-91.124 106.031-92.9111Q100.66-94.6983 96.1703-96.128Q91.6802-97.5578 89.8585-98.1607Q87.3673-98.9132 84.3589-99.3699Q81.3505-99.8266 78.8762-99.8266Q76.4032-99.8266 73.424-99.3492Q70.4448-98.8718 67.8952-98.1607Q66.0722-97.6771 61.5828-96.2285Q57.0933-94.7799 51.7225-93.0019Q46.3516-91.2238 41.7343-89.595Q37.1171-87.9661 35.0825-87.0855Q28.1502-84.1312 25.4207-80.039Q22.6913-75.9467 22.6913-68.174L22.6913-22.4647Q22.6913-13.8571 25.4348-7.10868Q28.1783-0.360251 34.1815 5.49834Q40.1847 11.3569 49.9399 17.2536Q59.6951 23.1502 73.7988 30.1503Q75.0778 30.7534 76.4373 31.1841Q77.7968 31.6148 78.8762 31.6148ZM78.8762 11.9778Q78.4419 11.9778 77.9077 11.7814Q77.3735 11.5849 76.1323 10.8236Q65.7403 4.35765 58.8894 0.0262976Q52.0385-4.30506 48.084-7.82032Q44.1294-11.3356 42.4752-15.2728Q40.821-19.2101 40.821-24.9449L40.821-65.9687Q40.821-67.8159 41.3561-68.7577Q41.8912-69.6994 43.2337-70.2299Q46.4269-71.514 50.7614-73.0717Q55.0959-74.6293 59.5268-76.1545Q63.9577-77.6796 67.5816-78.8965Q71.2055-80.1135 72.9969-80.7551Q75.1095-81.4103 76.3998-81.6984Q77.6902-81.9864 78.8762-81.9864Q80.0622-81.9864 81.3519-81.6977Q82.6416-81.409 84.7554-80.7551Q86.6066-80.1135 90.1903-78.8862Q93.774-77.6589 98.1945-76.113Q102.615-74.5671 106.95-73.0095Q111.284-71.4518 114.499-70.2299Q115.861-69.6994 116.387-68.7577Q116.912-67.8159 116.912-65.9687L116.912-24.9449Q116.912-19.0349 115.092-14.8348Q113.273-10.6347 109.172-6.94422Q105.071-3.25374 98.2789 0.901753Q91.4865 5.05724 81.6007 10.8236Q80.3789 11.5265 79.844 11.7522Q79.3092 11.9778 78.8762 11.9778ZM72.4312-8.3573Q77.0005-8.3573 79.677-12.3972L105.629-51.9028Q106.498-53.169 106.937-54.4683Q107.376-55.7675 107.376-56.9804Q107.376-60.1824 105.002-62.2187Q102.628-64.255 99.5254-64.255Q95.4152-64.255 92.7438-59.9061L72.347-26.9322L63.1204-37.8996Q61.8478-39.3355 60.4292-40.0782Q59.0106-40.8209 57.2281-40.8209Q54.1039-40.8209 51.8114-38.6251Q49.5188-36.4293 49.5188-33.2455Q49.5188-30.4146 51.7543-27.7589L64.965-12.222Q66.4919-10.3942 68.3127-9.37576Q70.1336-8.3573 72.4312-8.3573Z"/>
  </g>
  <g id="Heavy-L" transform="matrix(1 0 0 1 2560.42 1556)">
   <path d="M77.9278 31.1858Q78.9137 31.1858 80.2329 30.7776Q81.5522 30.3695 82.8027 29.7531Q96.7112 22.6367 106.338 16.7588Q115.965 10.8809 121.871 5.12151Q127.776-0.637886 130.453-7.26962Q133.13-13.9014 133.13-22.4781L133.13-68.7598Q133.13-75.8761 130.554-79.5202Q127.977-83.1642 121.726-85.8171Q119.446-86.7769 114.699-88.4496Q109.953-90.1222 104.457-91.9956Q98.9614-93.869 94.2986-95.4017Q89.6357-96.9344 87.5393-97.6442Q85.3513-98.314 82.741-98.7294Q80.1307-99.1447 77.9278-99.1447Q75.7309-99.1447 73.1429-98.6996Q70.5549-98.2545 68.3223-97.6442Q66.2199-97.0623 61.56-95.5222Q56.9001-93.9821 51.4042-92.1042Q45.9082-90.2263 41.1412-88.5016Q36.3742-86.7769 34.1291-85.8171Q27.879-83.1703 25.302-79.5232Q22.7251-75.8761 22.7251-68.7598L22.7251-22.4781Q22.7251-13.9014 25.4082-7.27264Q28.0914-0.643922 33.997 5.10944Q39.9025 10.8628 49.5116 16.7407Q59.1206 22.6185 73.0529 29.7531Q74.3034 30.3695 75.6077 30.7776Q76.9121 31.1858 77.9278 31.1858ZM77.9278 13.6667Q77.415 13.6667 76.7981 13.4401Q76.1813 13.2135 74.9191 12.4483Q64.4073 5.93064 57.4126 1.48595Q50.418-2.95875 46.3378-6.66485Q42.2576-10.3709 40.5219-14.5791Q38.7861-18.7873 38.7861-24.8705L38.7861-66.6585Q38.7861-68.4832 39.3063-69.4133Q39.8264-70.3433 41.1859-70.889Q44.4405-72.1902 48.9269-73.8035Q53.4132-75.4167 58.082-77.0393Q62.7507-78.6618 66.6897-80.0192Q70.6287-81.3766 72.8124-82.187Q74.6136-82.7647 75.7557-83.0164Q76.8977-83.2681 77.9278-83.2681Q78.9578-83.2681 80.0969-83.0134Q81.2359-82.7587 83.0431-82.187Q85.2775-81.3766 89.1763-80.0044Q93.0751-78.6321 97.7289-76.9798Q102.383-75.3275 106.869-73.7142Q111.355-72.1009 114.646-70.889Q116.029-70.3433 116.537-69.4133Q117.046-68.4832 117.046-66.6585L117.046-24.8705Q117.046-18.6534 115.188-14.2444Q113.33-9.83547 109.138-5.99551Q104.947-2.15554 97.9967 2.15227Q91.0466 6.46008 80.9127 12.4483Q79.6743 13.1689 79.0544 13.4178Q78.4345 13.6667 77.9278 13.6667ZM71.3867-7.9761Q75.5651-7.9761 78.0414-11.7081L104.781-52.7557Q105.567-53.9193 106.007-55.1366Q106.448-56.3539 106.448-57.5235Q106.448-60.4281 104.283-62.2629Q102.118-64.0977 99.3172-64.0977Q95.6062-64.0977 93.1805-60.1575L71.2617-24.8569L61.1437-37.1501Q59.9234-38.5699 58.5915-39.2545Q57.2596-39.939 55.6168-39.939Q52.7806-39.939 50.7152-37.9361Q48.6498-35.9332 48.6498-33.0463Q48.6498-30.4393 50.6766-27.9927L64.494-11.5743Q65.9226-9.82722 67.5966-8.90166Q69.2706-7.9761 71.3867-7.9761Z"/>
  </g>
  <g id="Bold-L" transform="matrix(1 0 0 1 2264.05 1556)">
   <path d="M76.6596 30.5878Q77.5785 30.5878 78.8397 30.1978Q80.1009 29.8077 81.3022 29.185Q94.991 21.9197 104.436 16.07Q113.882 10.2203 119.656 4.60499Q125.431-1.01034 128.021-7.46477Q130.611-13.9192 130.611-22.401L130.611-69.2855Q130.611-75.679 128.222-78.8311Q125.833-81.9833 120.3-84.306Q117.699-85.3777 112.832-87.145Q107.964-88.9122 102.395-90.8635Q96.825-92.8148 92.0019-94.454Q87.1788-96.0931 84.709-96.9455Q82.8602-97.5229 80.7067-97.8919Q78.5531-98.261 76.6596-98.261Q74.7803-98.261 72.6413-97.855Q70.5024-97.4489 68.6244-96.9455Q66.1404-96.2191 61.3244-94.5838Q56.5085-92.9485 50.9387-90.982Q45.369-89.0154 40.469-87.1965Q35.569-85.3777 33.0194-84.306Q27.4863-81.9975 25.0973-78.8383Q22.7082-75.679 22.7082-69.2855L22.7082-22.401Q22.7082-13.9192 25.3124-7.47188Q27.9165-1.02457 33.6913 4.57654Q39.466 10.1776 48.8857 16.0273Q58.3054 21.877 72.0169 29.185Q73.2183 29.8077 74.461 30.1978Q75.7037 30.5878 76.6596 30.5878ZM76.6596 15.7777Q76.0534 15.7777 75.344 15.5115Q74.6346 15.2454 73.3863 14.4903Q62.7348 7.89172 55.5549 3.30585Q48.375-1.28002 44.124-5.20247Q39.873-9.12492 38.026-13.6333Q36.1789-18.1417 36.1789-24.6003L36.1789-67.3553Q36.1789-69.2499 36.7024-70.2057Q37.2259-71.1615 38.6649-71.75Q41.9335-73.0474 46.5941-74.7315Q51.2546-76.4156 56.2124-78.1644Q61.1703-79.9132 65.469-81.4334Q69.7677-82.9537 72.3355-83.9298Q73.8085-84.4324 74.8033-84.6506Q75.7982-84.8688 76.6596-84.8688Q77.521-84.8688 78.5087-84.6435Q79.4965-84.4182 80.9837-83.9298Q83.5949-82.9537 87.8534-81.4149Q92.1119-79.8762 97.0513-78.0904Q101.991-76.3046 106.651-74.6205Q111.312-72.9364 114.632-71.75Q116.093-71.1615 116.605-70.2057Q117.117-69.2499 117.117-67.3553L117.117-24.6003Q117.117-18.0541 115.194-13.4143Q113.271-8.77448 108.947-4.76442Q104.623-0.754366 97.4722 3.73679Q90.3215 8.22794 79.9101 14.4903Q78.6846 15.2162 77.9681 15.4969Q77.2516 15.7777 76.6596 15.7777ZM70.0198-7.55255Q73.6657-7.55255 75.8722-10.8538L103.713-53.9342Q104.387-54.9542 104.814-56.0511Q105.24-57.1479 105.24-58.2347Q105.24-60.7432 103.352-62.3224Q101.464-63.9016 99.0585-63.9016Q95.8688-63.9016 93.7582-60.4991L69.8576-22.2218L58.4864-36.2168Q57.3562-37.5754 56.153-38.1805Q54.9497-38.7855 53.4977-38.7855Q51.0412-38.7855 49.2673-37.0401Q47.4934-35.2948 47.4934-32.7948Q47.4934-30.4986 49.2523-28.329L63.924-10.7662Q65.208-9.15842 66.679-8.35548Q68.1499-7.55255 70.0198-7.55255Z"/>
  </g>
  <g id="Semibold-L" transform="matrix(1 0 0 1 1967.58 1556)">
   <path d="M75.7853 30.1756Q76.6581 30.1756 77.8792 29.798Q79.1004 29.4204 80.2679 28.7934Q93.8052 21.4254 103.125 15.5952Q112.445 9.76492 118.13 4.2489Q123.814-1.26711 126.344-7.5993Q128.874-13.9315 128.874-22.3479L128.874-69.648Q128.874-75.5432 126.615-78.3561Q124.355-81.1691 119.316-83.2643Q116.495-84.413 111.544-86.2456Q106.593-88.0781 100.973-90.0831Q95.3521-92.088 90.4185-93.8006Q85.485-95.5132 82.7578-96.4639Q81.1429-96.9774 79.3042-97.3146Q77.4656-97.6518 75.7853-97.6518Q74.1249-97.6518 72.2956-97.2727Q70.4662-96.8935 68.8327-96.4639Q66.0857-95.6378 61.162-93.9369Q56.2384-92.236 50.6179-90.2083Q44.9973-88.1807 40.0056-86.2968Q35.0139-84.413 32.2544-83.2643Q27.2156-81.189 24.9561-78.3661Q22.6966-75.5432 22.6966-69.648L22.6966-22.3479Q22.6966-13.9315 25.2463-7.60924Q27.796-1.28698 33.4805 4.20916Q39.1651 9.7053 48.4542 15.5356Q57.7434 21.3658 71.3028 28.7934Q72.4703 29.4204 73.6704 29.798Q74.8706 30.1756 75.7853 30.1756ZM75.7853 17.2329Q75.1147 17.2329 74.3415 16.9396Q73.5683 16.6462 72.3297 15.8981Q61.5818 9.24368 54.2742 4.56048Q46.9666-0.122722 42.5978-4.19432Q38.2291-8.26592 36.3053-12.9812Q34.3815-17.6966 34.3815-24.4139L34.3815-67.8357Q34.3815-69.7784 34.9073-70.7519Q35.4331-71.7255 36.9269-72.3436Q40.2052-73.6383 44.9858-75.3713Q49.7664-77.1042 54.9236-78.94Q60.0808-80.7758 64.6275-82.4084Q69.1742-84.0409 72.0067-85.1313Q73.2535-85.5821 74.1468-85.7772Q75.0402-85.9723 75.7853-85.9723Q76.5305-85.9723 77.4139-85.7672Q78.2973-85.5622 79.564-85.1313Q82.4349-84.0409 86.9414-82.3874Q91.4479-80.7338 96.5841-78.8561Q101.72-76.9783 106.501-75.2453Q111.281-73.5124 114.622-72.3436Q116.138-71.7255 116.652-70.7519Q117.167-69.7784 117.167-67.8357L117.167-24.4139Q117.167-17.6409 115.199-12.8419Q113.23-8.04304 108.815-3.91572Q104.4 0.211597 97.1107 4.82914Q89.8216 9.44669 79.2189 15.8981Q78.0023 16.6276 77.2192 16.9303Q76.4361 17.2329 75.7853 17.2329ZM69.0774-7.26055Q72.3563-7.26055 74.3768-10.2649L102.976-54.7467Q103.574-55.6677 103.991-56.6815Q104.407-57.6953 104.407-58.725Q104.407-60.9604 102.71-62.3634Q101.013-63.7664 98.8801-63.7664Q96.0498-63.7664 94.1565-60.7346L68.8896-20.4051L56.6545-35.5734Q55.5864-36.8898 54.4718-37.4401Q53.3573-37.9903 52.0368-37.9903Q49.842-37.9903 48.2691-36.4224Q46.6962-34.8546 46.6962-32.6214Q46.6962-30.5394 48.2704-28.5609L63.531-10.2092Q64.7154-8.69735 66.0463-7.97895Q67.3773-7.26055 69.0774-7.26055Z"/>
  </g>
  <g id="Medium-L" transform="matrix(1 0 0 1 1671.05 1556)">
   <path d="M75.1224 29.863Q75.9601 29.863 77.1509 29.4949Q78.3417 29.1268 79.4835 28.4965Q92.906 21.0507 102.131 15.2351Q111.356 9.41961 116.972 3.97891Q122.589-1.4618 125.073-7.70131Q127.557-13.9408 127.557-22.3076L127.557-69.9228Q127.557-75.4402 125.396-77.996Q123.235-80.5517 118.571-82.4744Q115.582-83.6816 110.568-85.5636Q105.554-87.4457 99.8944-89.4913Q94.2353-91.5369 89.218-93.3052Q84.2007-95.0734 81.2783-96.0987Q79.8407-96.5639 78.2408-96.8769Q76.641-97.1899 75.1224-97.1899Q73.628-97.1899 72.0334-96.8311Q70.4388-96.4724 68.9907-96.0987Q66.0441-95.197 61.0389-93.4464Q56.0337-91.6958 50.3746-89.6217Q44.7154-87.5477 39.6542-85.6146Q34.593-83.6816 31.6743-82.4744Q27.0103-80.5759 24.8491-78.008Q22.6878-75.4402 22.6878-69.9228L22.6878-22.3076Q22.6878-13.9408 25.1962-7.71338Q27.7045-1.48595 33.3207 3.9306Q38.9369 9.34715 48.1271 15.1627Q57.3172 20.9782 70.7613 28.4965Q71.9031 29.1268 73.071 29.4949Q74.2389 29.863 75.1224 29.863ZM75.1224 18.3364Q74.4029 18.3364 73.5814 18.0224Q72.7598 17.7083 71.5285 16.9655Q60.7076 10.2688 53.3031 5.51179Q45.8987 0.754793 41.4406-3.4299Q36.9826-7.61459 35.0006-12.4868Q33.0187-17.3591 33.0187-24.2727L33.0187-68.1999Q33.0187-70.1791 33.5462-71.1662Q34.0738-72.1532 35.6092-72.7937Q38.8947-74.0864 43.7664-75.8564Q48.6381-77.6263 53.9464-79.5281Q59.2547-81.4299 63.9894-83.1476Q68.7241-84.8653 71.7574-86.0423Q72.8326-86.4538 73.649-86.6314Q74.4654-86.809 75.1224-86.809Q75.7794-86.809 76.5837-86.6193Q77.388-86.4296 78.4875-86.0423Q81.5554-84.8653 86.2499-83.1247Q90.9444-81.3842 96.2298-79.4366Q101.515-77.4891 106.387-75.7191Q111.259-73.9492 114.614-72.7937Q116.171-72.1532 116.688-71.1662Q117.205-70.1791 117.205-68.1999L117.205-24.2727Q117.205-17.3275 115.202-12.408Q113.199-7.48843 108.715-3.2722Q104.231 0.944031 96.8366 5.65741Q89.4426 10.3708 78.6947 16.9655Q77.485 17.6978 76.6514 18.0171Q75.8178 18.3364 75.1224 18.3364ZM68.3629-7.03915Q71.3634-7.03915 73.2429-9.81833L102.417-55.3628Q102.958-56.2087 103.367-57.1596Q103.776-58.1104 103.776-59.0968Q103.776-61.1251 102.223-62.3945Q100.671-63.6639 98.7449-63.6639Q96.1871-63.6639 94.4585-60.9131L68.1557-19.0276L55.2655-35.0855Q54.2445-36.37 53.1972-36.8786Q52.1498-37.3873 50.9291-37.3873Q48.9328-37.3873 47.5122-35.9541Q46.0917-34.5209 46.0917-32.4899Q46.0917-30.5704 47.5259-28.7366L63.233-9.78679Q64.3419-8.34775 65.5666-7.69345Q66.7914-7.03915 68.3629-7.03915Z"/>
  </g>
  <g id="Regular-L" transform="matrix(1 0 0 1 1374.57 1556)">
   <path d="M74.2577 29.4554Q75.0498 29.4554 76.201 29.0995Q77.3522 28.7437 78.4605 28.1092Q91.7332 20.5618 100.834 14.7655Q109.936 8.96921 115.463 3.62673Q120.99-1.71575 123.414-7.83436Q125.839-13.953 125.839-22.2551L125.839-70.2813Q125.839-75.3058 123.806-77.5262Q121.773-79.7465 117.598-81.4441Q114.391-82.7275 109.294-84.6741Q104.197-86.6208 98.488-88.7194Q92.7786-90.8181 87.6521-92.659Q82.5255-94.4998 79.3485-95.6223Q78.1422-96.0244 76.8538-96.3059Q75.5654-96.5874 74.2577-96.5874Q72.9798-96.5874 71.6914-96.2552Q70.403-95.9231 69.1967-95.6223Q65.99-94.6221 60.8783-92.8066Q55.7666-90.9911 50.0572-88.8566Q44.3478-86.7221 39.1959-84.7248Q34.044-82.7275 30.9177-81.4441Q26.7426-79.7763 24.7094-77.5411Q22.6763-75.3058 22.6763-70.2813L22.6763-22.2551Q22.6763-13.953 25.1308-7.84923Q27.5853-1.74548 33.1123 3.56726Q38.6393 8.88 47.7003 14.6763Q56.7614 20.4726 70.055 28.1092Q71.1633 28.7437 72.2891 29.0995Q73.415 29.4554 74.2577 29.4554ZM74.2577 19.7756Q73.4745 19.7756 72.5899 19.4347Q71.7053 19.0937 70.4835 18.3578Q59.5673 11.6059 52.0365 6.75264Q44.5057 1.89938 39.9312-2.43283Q35.3567-6.76503 33.2989-11.842Q31.241-16.9189 31.241-24.0884L31.241-68.675Q31.241-70.7018 31.7709-71.7064Q32.3007-72.711 33.8903-73.3808Q37.1854-74.6709 42.1759-76.4891Q47.1663-78.3073 52.6717-80.2952Q58.1771-82.2831 63.1571-84.1118Q68.137-85.9405 71.4322-87.2306Q72.2837-87.5908 72.9997-87.7456Q73.7158-87.9004 74.2577-87.9004Q74.7997-87.9004 75.5009-87.7307Q76.2021-87.5611 77.0833-87.2306Q80.4082-85.9405 85.3479-84.0865Q90.2877-82.2324 95.7678-80.1939Q101.248-78.1553 106.238-76.3371Q111.229-74.5188 114.604-73.3808Q116.215-72.711 116.734-71.7064Q117.254-70.7018 117.254-68.675L117.254-24.0884Q117.254-16.9189 115.206-11.842Q113.159-6.76503 108.584-2.43283Q104.01 1.89938 96.479 6.73777Q88.9482 11.5762 78.0111 18.3578Q76.8102 19.0937 75.9108 19.4347Q75.0113 19.7756 74.2577 19.7756ZM67.4308-6.75037Q70.0684-6.75037 71.7639-9.23585L101.688-56.1663Q102.153-56.9144 102.553-57.7831Q102.952-58.6518 102.952-59.5816Q102.952-61.34 101.589-62.4351Q100.225-63.5302 98.5684-63.5302Q96.3661-63.5302 94.8524-61.1461L67.1984-17.2309L53.4537-34.4492Q52.4941-35.6919 51.5345-36.1464Q50.5749-36.6008 49.4842-36.6008Q47.7468-36.6008 46.525-35.3432Q45.3032-34.0856 45.3032-32.3185Q45.3032-30.6108 46.5548-28.966L62.8444-9.23585Q63.8547-7.89175 64.941-7.32106Q66.0273-6.75037 67.4308-6.75037Z"/>
  </g>
  <g id="Light-L" transform="matrix(1 0 0 1 1079.69 1556)">
   <path d="M72.7802 28.614Q73.6748 28.614 74.8158 28.2068Q75.9567 27.7997 76.9419 27.2267Q90.0504 19.5768 98.9669 13.8318Q107.884 8.08677 113.257 2.97003Q118.63-2.14671 120.952-7.93697Q123.274-13.7272 123.274-21.5984L123.274-69.3578Q123.274-74.4644 121.364-76.7463Q119.454-79.0283 114.95-80.7874Q111.251-82.235 106.411-84.1098Q101.571-85.9846 96.3332-87.9498Q91.0958-89.9151 86.2053-91.6944Q81.3147-93.4737 77.6657-94.7604Q76.4594-95.1625 75.2531-95.444Q74.0468-95.7255 72.7802-95.7255Q71.5638-95.7255 70.3575-95.4138Q69.1512-95.1022 67.9449-94.7604Q64.2456-93.5139 59.3802-91.7497Q54.5148-89.9855 49.2774-88.0152Q44.04-86.0449 39.1344-84.1399Q34.2287-82.235 30.6099-80.7874Q26.1064-79.0785 24.1964-76.7715Q22.2864-74.4644 22.2864-69.3578L22.2864-21.5984Q22.2864-13.7272 24.6588-7.9621Q27.0312-2.19697 32.4043 2.86951Q37.7773 7.93599 46.6537 13.681Q55.5301 19.426 68.6184 27.2267Q69.6036 27.7997 70.7295 28.2068Q71.8553 28.614 72.7802 28.614ZM72.7802 21.3558Q71.9559 21.3558 71.0712 20.9738Q70.1866 20.5918 69.2316 19.9585Q58.2744 13.0424 50.5692 8.08656Q42.864 3.1307 38.074-1.22203Q33.284-5.57476 31.0825-10.6312Q28.881-15.6876 28.881-22.7545L28.881-68.1414Q28.881-70.8455 29.5545-72.1271Q30.228-73.4088 32.2485-74.2632Q35.1537-75.3891 40.175-77.2689Q45.1962-79.1487 50.8658-81.2598Q56.5354-83.3708 61.5666-85.2405Q66.5979-87.1103 69.5031-88.2362Q70.4983-88.6785 71.3477-88.8846Q72.1971-89.0906 72.7802-89.0906Q73.3632-89.0906 74.1875-88.8594Q75.0118-88.6282 76.0572-88.2362Q79.0127-87.1103 84.0038-85.2254Q88.9948-83.3406 94.6493-81.1994Q100.304-79.0583 105.325-77.1785Q110.346-75.2986 113.332-74.2632Q115.332-73.4088 116.016-72.1271Q116.699-70.8455 116.699-68.1414L116.699-22.7545Q116.699-15.6876 114.488-10.6312Q112.276-5.57476 107.486-1.22203Q102.696 3.1307 94.9911 8.06143Q87.2859 12.9922 76.3488 19.9585Q75.3737 20.5918 74.464 20.9738Q73.5542 21.3558 72.7802 21.3558ZM66.0148-6.77089Q67.9751-6.77089 69.3423-8.64071L100.827-57.767Q101.168-58.3099 101.455-58.9734Q101.741-59.6368 101.741-60.3204Q101.741-61.6273 100.686-62.5069Q99.6303-63.3865 98.3837-63.3865Q96.715-63.3865 95.4885-61.577L65.8439-14.994L50.2728-33.7719Q49.5389-34.7069 48.8051-35.0587Q48.0712-35.4105 47.2268-35.4105Q45.8998-35.4105 44.9448-34.4505Q43.9898-33.4905 43.9898-32.1132Q43.9898-30.8365 44.9951-29.4995L62.5366-8.64071Q63.3006-7.64548 64.1098-7.20819Q64.9191-6.77089 66.0148-6.77089Z"/>
  </g>
  <g id="Thin-L" transform="matrix(1 0 0 1 785.406 1556)">
   <path d="M70.8259 27.5011Q71.8563 27.5011 72.9837 27.0262Q74.1111 26.5512 74.9334 26.0596Q87.8247 18.274 96.497 12.5968Q105.169 6.91967 110.339 2.10149Q115.508-2.71669 117.695-8.07268Q119.881-13.4287 119.881-20.7298L119.881-68.1364Q119.881-73.3516 118.134-75.715Q116.387-78.0783 111.449-79.9189Q107.098-81.5836 102.597-83.3634Q98.0964-85.1432 93.4833-86.932Q88.8702-88.7209 84.2918-90.4187Q79.7133-92.1166 75.4401-93.6205Q74.2338-94.0226 73.136-94.304Q72.0383-94.5855 70.8259-94.5855Q69.691-94.5855 68.5933-94.301Q67.4955-94.0165 66.2892-93.6205Q61.9386-92.0483 57.3988-90.3519Q52.8591-88.6555 48.246-86.9024Q43.6329-85.1492 39.0529-83.3664Q34.473-81.5836 30.2027-79.9189Q25.265-78.1557 23.5178-75.7537Q21.7707-73.3516 21.7707-68.1364L21.7707-20.7298Q21.7707-13.4287 24.0345-8.11138Q26.2984-2.79409 31.4679 1.94668Q36.6374 6.68746 45.2695 12.3646Q53.9016 18.0418 66.7185 26.0596Q67.5408 26.5512 68.6667 27.0262Q69.7926 27.5011 70.8259 27.5011ZM70.8259 23.4458Q69.9474 23.4458 69.0627 23.0095Q68.1781 22.5732 67.576 22.0756Q56.5645 14.9424 48.6285 9.85079Q40.6926 4.75921 35.6176 0.379346Q30.5426-4.00052 28.1512-9.02979Q25.7597-14.059 25.7597-20.9902L25.7597-67.4357Q25.7597-71.0354 26.6232-72.6835Q27.4867-74.3316 30.0772-75.4303Q32.4667-76.3391 37.5286-78.3003Q42.5906-80.2616 48.4773-82.5354Q54.364-84.8093 59.4631-86.7333Q64.5622-88.6574 66.9518-89.5661Q68.1369-90.117 69.1628-90.3909Q70.1886-90.6649 70.8259-90.6649Q71.4633-90.6649 72.4504-90.3522Q73.4376-90.0396 74.7001-89.5661Q77.167-88.6574 82.226-86.7318Q87.2849-84.8063 93.1701-82.5294Q99.0553-80.2525 104.117-78.2913Q109.179-76.33 111.649-75.4303Q114.165-74.3316 115.066-72.6835Q115.967-71.0354 115.967-67.4357L115.967-20.9902Q115.967-14.059 113.538-9.02979Q111.109-4.00052 106.034 0.379346Q100.959 4.75921 93.0234 9.81209Q85.0874 14.865 74.1503 22.0756Q73.4738 22.5732 72.5504 23.0095Q71.6271 23.4458 70.8259 23.4458ZM64.142-6.79803Q65.2067-6.79803 66.1396-7.85359L99.6866-59.8841Q99.8655-60.1555 100.003-60.5476Q100.14-60.9397 100.14-61.2975Q100.14-62.0073 99.4916-62.6019Q98.8432-63.1965 98.1395-63.1965Q97.1764-63.1965 96.3299-62.147L64.0526-12.0356L46.0658-32.8763Q45.6305-33.404 45.1952-33.6202Q44.7599-33.8363 44.2412-33.8363Q43.4571-33.8363 42.8549-33.2698Q42.2527-32.7033 42.2527-31.8418Q42.2527-31.1351 42.9323-30.2052L62.1294-7.85359Q62.5677-7.31978 63.0106-7.05891Q63.4534-6.79803 64.142-6.79803Z"/>
  </g>
  <g id="Ultralight-L" transform="matrix(1 0 0 1 489.936 1556)">
   <path d="M69.825 26.9311Q70.9249 26.9311 72.0453 26.4214Q73.1658 25.9117 73.9046 25.4618Q86.6848 17.6067 95.2319 11.9643Q103.779 6.32188 108.844 1.65663Q113.91-3.00863 116.027-8.14219Q118.143-13.2758 118.143-20.285L118.143-67.5108Q118.143-72.7816 116.48-75.1867Q114.816-77.5917 109.656-79.474Q104.971-81.2499 100.644-82.9811Q96.317-84.7122 92.0236-86.4107Q87.7302-88.1092 83.3117-89.7654Q78.8931-91.4215 74.3001-93.0366Q73.0938-93.4387 72.0517-93.7201Q71.0095-94.0016 69.825-94.0016Q68.7318-94.0016 67.6896-93.731Q66.6475-93.4604 65.4412-93.0366Q60.7569-91.2976 56.384-89.636Q52.0111-87.9743 47.7177-86.3324Q43.4243-84.6904 39.0112-82.9702Q34.5981-81.2499 29.9942-79.474Q24.834-77.683 23.1703-75.2323Q21.5066-72.7816 21.5066-67.5108L21.5066-20.285Q21.5066-13.2758 23.7148-8.18784Q25.923-3.09993 30.9883 1.47402Q36.0535 6.04797 44.5605 11.6904Q53.0674 17.3328 65.7454 25.4618Q66.4842 25.9117 67.6101 26.4214Q68.736 26.9311 69.825 26.9311ZM69.825 24.5162Q68.9186 24.5162 68.034 24.0521Q67.1494 23.5881 66.7279 23.16Q55.6886 15.9155 47.6345 10.7544Q39.5805 5.59333 34.3595 1.19956Q29.1385-3.19421 26.6498-8.20957Q24.161-13.2249 24.161-20.0866L24.161-67.0743Q24.161-71.1328 25.1218-72.9685Q26.0826-74.8043 28.965-76.0281Q31.0904-76.8257 36.1732-78.8286Q41.256-80.8315 47.2539-83.1888Q53.2518-85.5461 58.3857-87.4979Q63.5196-89.4498 65.645-90.2473Q66.9275-90.8538 68.0437-91.1625Q69.1599-91.4712 69.825-91.4712Q70.4901-91.4712 71.5607-91.1168Q72.6312-90.7625 74.005-90.2473Q76.2217-89.4498 81.3154-87.5034Q86.409-85.557 92.4124-83.2106Q98.4158-80.8642 103.499-78.8613Q108.581-76.8583 110.787-76.0281Q113.567-74.8043 114.579-72.9685Q115.591-71.1328 115.591-67.0743L115.591-20.0866Q115.591-13.2249 113.051-8.20957Q110.511-3.19421 105.291 1.19956Q100.07 5.59333 92.0155 10.7088Q83.9614 15.8242 73.0243 23.16Q72.5006 23.5881 71.5704 24.0521Q70.6401 24.5162 69.825 24.5162ZM63.1828-6.81193Q63.7887-6.81193 64.4991-7.45044L99.1027-60.9685Q99.1982-61.1009 99.259-61.3539Q99.3198-61.607 99.3198-61.798Q99.3198-62.2019 98.8799-62.6506Q98.44-63.0992 98.0143-63.0992Q97.4127-63.0992 96.7609-62.439L63.135-10.5202L43.911-32.4175Q43.6286-32.7367 43.3462-32.8834Q43.0639-33.03 42.712-33.03Q42.2059-33.03 41.7844-32.6651Q41.363-32.3002 41.363-31.7028Q41.363-31.288 41.8758-30.5667L61.9209-7.45044Q62.1924-7.15295 62.4476-6.98244Q62.7027-6.81193 63.1828-6.81193Z"/>
  </g>
  <g id="Black-M" transform="matrix(1 0 0 1 2874.43 1126)">
   <path d="M61.7236 16.8123Q62.6202 16.8123 63.7236 16.4523Q64.827 16.0922 65.8257 15.6448Q76.8663 10.3139 84.5272 5.73637Q92.1881 1.15882 96.9021-3.43684Q101.616-8.03251 103.783-13.3177Q105.949-18.6028 105.949-25.2395L105.949-60.1245Q105.949-66.7216 103.72-70.2845Q101.491-73.8473 95.4897-76.4057Q94.0223-77.042 90.6097-78.175Q87.197-79.3081 83.2074-80.6004Q79.2179-81.8928 75.9197-82.9037Q72.6216-83.9146 71.3823-84.312Q69.1916-84.9661 66.5299-85.3555Q63.8682-85.7448 61.7236-85.7448Q59.5787-85.7448 56.9455-85.35Q54.3124-84.9551 52.0646-84.312Q50.8256-83.9885 47.5273-82.9518Q44.229-81.9151 40.2395-80.6457Q36.2499-79.3762 32.8348-78.2091Q29.4197-77.042 27.9576-76.4057Q21.9561-73.847 19.727-70.2843Q17.498-66.7216 17.498-60.1245L17.498-25.2395Q17.498-18.6028 19.6642-13.3175Q21.8305-8.0322 26.5445-3.43623Q31.2585 1.15974 38.9168 5.73729Q46.5751 10.3148 57.6215 15.6448Q58.6202 16.0922 59.7209 16.4523Q60.8215 16.8123 61.7236 16.8123ZM61.7236 0.106544Q61.449 0.106544 61.1062-0.025269Q60.7634-0.157082 59.8559-0.729763Q51.9022-5.71691 46.6944-8.98909Q41.4867-12.2613 38.5017-14.8235Q35.5168-17.3857 34.2858-20.2004Q33.0547-23.0151 33.0547-27.1448L33.0547-58.3794Q33.0547-59.9215 33.5017-60.6987Q33.9486-61.4759 35.0324-61.8989Q37.4008-62.8568 40.6325-64.0241Q43.8643-65.1915 47.1149-66.306Q50.3656-67.4206 52.9093-68.2482Q55.453-69.0759 56.451-69.4057Q58.3747-69.9911 59.52-70.2524Q60.6652-70.5138 61.7236-70.5138Q62.782-70.5138 63.9274-70.2526Q65.0728-69.9914 66.9962-69.4057Q68.051-69.0759 70.5636-68.2455Q73.0761-67.415 76.324-66.295Q79.5719-65.1749 82.8036-64.0076Q86.0354-62.8402 88.409-61.8989Q89.4986-61.4759 89.9427-60.6987Q90.3867-59.9215 90.3867-58.3794L90.3867-27.1448Q90.3867-22.8438 88.9872-19.7722Q87.5878-16.7005 84.4602-13.967Q81.3325-11.2335 76.1818-8.13249Q71.0312-5.03145 63.5855-0.729763Q62.6838-0.214178 62.3412-0.0538171Q61.9986 0.106544 61.7236 0.106544ZM56.8213-14.7409Q60.6057-14.7409 62.8066-18.052L82.4463-47.6309Q83.175-48.6723 83.4986-49.7215Q83.8222-50.7707 83.8222-51.7141Q83.8222-54.3893 81.8448-56.1109Q79.8674-57.8325 77.2604-57.8325Q73.8052-57.8325 71.5634-54.1899L56.7995-30.2816L50.1698-37.8504Q49.1696-38.935 48.0266-39.5466Q46.8837-40.1581 45.416-40.1581Q42.8037-40.1581 40.8685-38.3314Q38.9333-36.5048 38.9333-33.8357Q38.9333-31.5086 40.8111-29.3131L50.6941-17.8807Q51.9283-16.4425 53.4276-15.5917Q54.9269-14.7409 56.8213-14.7409Z"/>
  </g>
  <g id="Heavy-M" transform="matrix(1 0 0 1 2577.62 1126)">
   <path d="M60.9328 16.4705Q61.7488 16.4705 62.8037 16.1373Q63.8585 15.8041 64.8407 15.3379Q75.7246 9.89899 83.2664 5.33505Q90.8083 0.771108 95.441-3.74715Q100.074-8.26542 102.186-13.4661Q104.299-18.6669 104.299-25.3132L104.299-60.7823Q104.299-66.7301 102.207-69.8498Q100.116-72.9696 94.8116-75.2263Q93.1704-75.925 89.5968-77.1562Q86.0232-78.3874 81.8677-79.7764Q77.7123-81.1655 74.2235-82.2826Q70.7346-83.3998 69.2704-83.8866Q67.3762-84.4599 65.096-84.8088Q62.8159-85.1578 60.9328-85.1578Q59.0521-85.1578 56.7938-84.7926Q54.5354-84.4274 52.5976-83.8866Q51.1309-83.4897 47.6433-82.3588Q44.1557-81.228 40.0002-79.8457Q35.8448-78.4635 32.2606-77.1942Q28.6764-75.925 27.0539-75.2263Q21.7496-72.972 19.6583-69.8511Q17.567-66.7301 17.567-60.7823L17.567-25.3132Q17.567-18.6669 19.6818-13.4674Q21.7967-8.26786 26.4294-3.75204Q31.0622 0.763773 38.5947 5.32771Q46.1272 9.89165 57.0248 15.3379Q58.007 15.8041 59.0538 16.1373Q60.1005 16.4705 60.9328 16.4705ZM60.9328 1.61182Q60.5852 1.61182 60.1616 1.45429Q59.738 1.29677 58.7854 0.710885Q50.7184-4.31173 45.3862-7.68524Q40.054-11.0587 36.9661-13.8056Q33.8782-16.5525 32.5807-19.6339Q31.2833-22.7154 31.2833-27.1951L31.2833-59.1029Q31.2833-60.5606 31.7023-61.3008Q32.1213-62.041 33.182-62.4618Q35.6464-63.4516 39.0237-64.6676Q42.4011-65.8836 45.8691-67.082Q49.3371-68.2804 52.1842-69.2416Q55.0312-70.2028 56.4486-70.7127Q58.0547-71.2148 59.0426-71.4358Q60.0306-71.6569 60.9328-71.6569Q61.8349-71.6569 62.8217-71.4346Q63.8084-71.2123 65.4169-70.7127Q66.8804-70.2028 69.6963-69.2335Q72.5122-68.2642 75.9721-67.0495Q79.4319-65.8349 82.8093-64.6189Q86.1867-63.4028 88.6697-62.4618Q89.7442-62.041 90.1563-61.3008Q90.5685-60.5606 90.5685-59.1029L90.5685-27.1951Q90.5685-22.5845 89.147-19.3068Q87.7256-16.029 84.5287-13.1513Q81.3317-10.2736 76.0431-7.03214Q70.7546-3.79072 63.0663 0.710885Q62.1275 1.25315 61.7027 1.43248Q61.2778 1.61182 60.9328 1.61182ZM55.9309-14.3663Q59.3955-14.3663 61.4312-17.4332L81.6975-48.317Q82.3558-49.277 82.6912-50.265Q83.0267-51.253 83.0267-52.1769Q83.0267-54.603 81.2253-56.1475Q79.4239-57.692 77.0739-57.692Q73.9598-57.692 71.9316-54.3958L55.8635-28.4593L48.531-37.1803Q47.561-38.2775 46.4819-38.8417Q45.4029-39.4058 44.049-39.4058Q41.6804-39.4058 39.9426-37.7402Q38.2049-36.0747 38.2049-33.66Q38.2049-31.5119 39.9015-29.4924L50.2621-17.3024Q51.4228-15.9109 52.8042-15.1386Q54.1856-14.3663 55.9309-14.3663Z"/>
  </g>
  <g id="Bold-M" transform="matrix(1 0 0 1 2280.81 1126)">
   <path d="M60.0481 16.0882Q60.774 16.0882 61.7746 15.7849Q62.7751 15.4817 63.7389 14.9946Q74.4474 9.43482 81.856 4.88611Q89.2647 0.337392 93.8065-4.09428Q98.3484-8.52596 100.4-13.6323Q102.452-18.7386 102.452-25.3957L102.452-61.5181Q102.452-66.7397 100.515-69.3637Q98.5776-71.9877 94.0531-73.9069Q92.2175-74.6754 88.4638-76.0165Q84.71-77.3575 80.3691-78.8547Q76.0281-80.3518 72.326-81.5879Q68.6238-82.824 66.9079-83.4108Q65.3453-83.8936 63.492-84.1973Q61.6387-84.501 60.0481-84.501Q58.4631-84.501 56.624-84.1691Q54.785-83.8371 53.1938-83.4108Q51.4724-82.9317 47.773-81.6955Q44.0736-80.4592 39.7326-78.9509Q35.3917-77.4426 31.6183-76.059Q27.8449-74.6754 26.0431-73.9069Q21.5186-71.9932 19.5814-69.3664Q17.6442-66.7397 17.6442-61.5181L17.6442-25.3957Q17.6442-18.7386 19.7015-13.635Q21.7589-8.53148 26.3007-4.10532Q30.8426 0.320831 38.2343 4.86955Q45.6261 9.41826 56.3573 14.9946Q57.3211 15.4817 58.3075 15.7849Q59.294 16.0882 60.0481 16.0882ZM60.0481 3.29568Q59.6191 3.29568 59.105 3.1094Q58.5909 2.92311 57.5879 2.32246Q49.3941-2.73984 43.9227-6.2267Q38.4513-9.71356 35.2482-12.667Q32.0451-15.6204 30.6734-19.0003Q29.3017-22.3801 29.3017-27.2515L29.3017-59.9123Q29.3017-61.2755 29.6895-61.9744Q30.0772-62.6732 31.1121-63.0915Q33.6838-64.1169 37.2241-65.3874Q40.7643-66.6578 44.4755-67.9501Q48.1867-69.2423 51.373-70.3529Q54.5593-71.4634 56.4459-72.1748Q57.6967-72.5836 58.5087-72.7597Q59.3207-72.9357 60.0481-72.9357Q60.7755-72.9357 61.5848-72.7569Q62.394-72.5781 63.6503-72.1748Q65.5709-71.4634 68.7261-70.3387Q71.8813-69.2141 75.5783-67.8936Q79.2754-66.5731 82.8157-65.3027Q86.3559-64.0322 88.9614-63.0915Q90.019-62.6732 90.3954-61.9744Q90.7718-61.2755 90.7718-59.9123L90.7718-27.2515Q90.7718-22.2945 89.3258-18.7862Q87.8798-15.2778 84.6053-12.2388Q81.3308-9.1997 75.888-5.80124Q70.4452-2.40278 62.4856 2.32246Q61.5053 2.89456 60.9884 3.09512Q60.4716 3.29568 60.0481 3.29568ZM54.9348-13.9473Q58.0417-13.9473 59.8925-16.7411L80.8599-49.0844Q81.4394-49.9534 81.7881-50.873Q82.1368-51.7926 82.1368-52.6946Q82.1368-54.842 80.5322-56.1884Q78.9277-57.5348 76.8654-57.5348Q74.1326-57.5348 72.3435-54.6262L54.8164-26.4208L46.6976-36.4307Q45.7615-37.542 44.754-38.0531Q43.7465-38.5642 42.5199-38.5642Q40.4238-38.5642 38.9069-37.0789Q37.39-35.5936 37.39-33.4634Q37.39-31.5156 38.8839-29.693L49.7789-16.6555Q50.8575-15.3163 52.1069-14.6318Q53.3563-13.9473 54.9348-13.9473Z"/>
  </g>
  <g id="Semibold-M" transform="matrix(1 0 0 1 1984.03 1126)">
   <path d="M59.4382 15.8246Q60.102 15.8246 61.0651 15.542Q62.0282 15.2595 62.9793 14.758Q73.5669 9.11483 80.8837 4.57661Q88.2006 0.0383913 92.6797-4.33359Q97.1589-8.70557 99.1689-13.7468Q101.179-18.788 101.179-25.4526L101.179-62.0254Q101.179-66.7463 99.348-69.0285Q97.5171-71.3108 93.5302-72.9974Q91.5606-73.814 87.6827-75.2308Q83.8047-76.6475 79.3359-78.2192Q74.8671-79.7909 71.0178-81.109Q67.1686-82.427 65.2793-83.0827Q63.9452-83.5032 62.3862-83.7757Q60.8271-84.0483 59.4382-84.0483Q58.057-84.0483 56.507-83.7392Q54.957-83.4302 53.6048-83.0827Q51.7079-82.5471 47.8624-81.2382Q44.017-79.9293 39.5482-78.334Q35.0793-76.7387 31.1755-75.2764Q27.2717-73.814 25.3462-72.9974Q21.3594-71.3184 19.5284-69.0323Q17.6975-66.7463 17.6975-62.0254L17.6975-25.4526Q17.6975-18.788 19.7151-13.7506Q21.7328-8.71321 26.212-4.34887Q30.6912 0.0154692 37.9859 4.55369Q45.2807 9.09191 55.8972 14.758Q56.8482 15.2595 57.7931 15.542Q58.738 15.8246 59.4382 15.8246ZM59.4382 4.45653Q58.953 4.45653 58.3766 4.25041Q57.8002 4.0443 56.7623 3.43347Q48.4812-1.65618 42.9138-5.22119Q37.3465-8.7862 34.064-11.882Q30.7814-14.9779 29.3585-18.5634Q27.9356-22.149 27.9356-27.2903L27.9356-60.4702Q27.9356-61.7684 28.3018-62.4387Q28.6681-63.109 29.6851-63.5256Q32.3308-64.5756 35.9834-65.8836Q39.6359-67.1916 43.5148-68.5485Q47.3936-69.9054 50.8138-71.1189Q54.2341-72.3324 56.444-73.1828Q57.4499-73.5273 58.1405-73.6723Q58.8312-73.8172 59.4382-73.8172Q60.0452-73.8172 60.7321-73.6685Q61.4189-73.5197 62.4324-73.1828Q64.6682-72.3324 68.0573-71.1007Q71.4464-69.8689 75.3069-68.4755Q79.1675-67.0821 82.82-65.7741Q86.4726-64.4661 89.1625-63.5256Q90.2084-63.109 90.5602-62.4387Q90.912-61.7684 90.912-60.4702L90.912-27.2903Q90.912-22.0945 89.449-18.4273Q87.986-14.76 84.6581-11.6097Q81.3302-8.45938 75.781-4.95266Q70.2319-1.44594 62.0852 3.43347Q61.0763 4.02614 60.496 4.24134Q59.9158 4.45653 59.4382 4.45653ZM54.2482-13.6585Q57.1084-13.6585 58.8318-16.264L80.2825-49.6135Q80.8077-50.4197 81.1655-51.2921Q81.5233-52.1645 81.5233-53.0515Q81.5233-55.0068 80.0545-56.2166Q78.5856-57.4264 76.7216-57.4264Q74.2518-57.4264 72.6274-54.785L54.0945-25.0154L45.4338-35.9138Q44.5209-37.035 43.5627-37.5095Q42.6045-37.984 41.4658-37.984Q39.5576-37.984 38.1929-36.6229Q36.8283-35.2619 36.8283-33.3279Q36.8283-31.5181 38.1824-29.8312L49.4457-16.2095Q50.4677-14.9064 51.6261-14.2824Q52.7845-13.6585 54.2482-13.6585Z"/>
  </g>
  <g id="Medium-M" transform="matrix(1 0 0 1 1687.26 1126)">
   <path d="M58.9758 15.6247Q59.5924 15.6247 60.5272 15.3579Q61.4619 15.091 62.4033 14.5785Q72.8993 8.8722 80.1465 4.34194Q87.3937-0.188324 91.8254-4.51504Q96.257-8.84176 98.2354-13.8336Q100.214-18.8254 100.214-25.4957L100.214-62.4101Q100.214-66.7513 98.4633-68.7744Q96.7129-70.7975 93.1337-72.3077Q91.0625-73.1608 87.0904-74.635Q83.1183-76.1092 78.5525-77.7374Q73.9867-79.3656 70.0259-80.7458Q66.0652-82.126 64.0443-82.834Q62.8837-83.2072 61.5477-83.4561Q60.2117-83.705 58.9758-83.705Q57.7491-83.705 56.4182-83.4133Q55.0874-83.1216 53.9165-82.834Q51.8864-82.2554 47.9302-80.8914Q43.9741-79.5275 39.4083-77.8663Q34.8425-76.205 30.8397-74.6829Q26.837-73.1608 24.8179-72.3077Q21.2386-70.8067 19.4882-68.779Q17.7378-66.7513 17.7378-62.4101L17.7378-25.4957Q17.7378-18.8254 19.7254-13.8382Q21.713-8.85101 26.1447-4.53354Q30.5764-0.216069 37.7975 4.31419Q45.0187 8.84445 55.5482 14.5785Q56.4896 15.091 57.403 15.3579Q58.3164 15.6247 58.9758 15.6247ZM58.9758 5.33673Q58.4479 5.33673 57.8242 5.11558Q57.2005 4.89443 56.1363 4.27588Q47.7889-0.83451 42.1488-4.45877Q36.5087-8.08304 33.166-11.2868Q29.8233-14.4906 28.3615-18.2322Q26.8997-21.9738 26.8997-27.3197L26.8997-60.8933Q26.8997-62.1421 27.2496-62.7907Q27.5996-63.4394 28.6031-63.8547Q31.305-64.9234 35.0427-66.2599Q38.7804-67.5963 42.7863-69.0023Q46.7922-70.4083 50.3898-71.6998Q53.9874-72.9914 56.4426-73.947Q57.2627-74.2429 57.8614-74.3643Q58.4601-74.4857 58.9758-74.4857Q59.4914-74.4857 60.0855-74.3596Q60.6796-74.2336 61.5089-73.947Q63.9837-72.9914 67.5501-71.6784Q71.1166-70.3655 75.1011-68.9167Q79.0856-67.468 82.8233-66.1315Q86.561-64.7951 89.3149-63.8547Q90.352-63.4394 90.6851-62.7907Q91.0183-62.1421 91.0183-60.8933L91.0183-27.3197Q91.0183-21.9429 89.5425-18.1551Q88.0666-14.3673 84.6982-11.1327Q81.3298-7.89804 75.6999-4.30924Q70.0701-0.72043 61.7817 4.27588Q60.751 4.88416 60.1227 5.11044Q59.4944 5.33673 58.9758 5.33673ZM53.7275-13.4395Q56.4008-13.4395 58.0275-15.9022L79.8446-50.0147Q80.3287-50.7733 80.6934-51.6099Q81.0581-52.4465 81.0581-53.3222Q81.0581-55.1317 79.6922-56.238Q78.3263-57.3443 76.6126-57.3443Q74.3422-57.3443 72.8427-54.9055L53.5472-23.9499L44.4755-35.522Q43.5803-36.6505 42.6595-37.0973Q41.7386-37.544 40.6665-37.544Q38.9007-37.544 37.6515-36.2772Q36.4023-35.0104 36.4023-33.2252Q36.4023-31.52 37.6505-29.9361L49.1931-15.8713Q50.1721-14.5956 51.2616-14.0175Q52.351-13.4395 53.7275-13.4395Z"/>
  </g>
  <g id="Regular-M" transform="matrix(1 0 0 1 1390.48 1126)">
   <path d="M58.3726 15.364Q58.9278 15.364 59.8255 15.1176Q60.7232 14.8712 61.6521 14.3445Q72.0285 8.55572 79.1849 4.03584Q86.3413-0.484039 90.7109-4.75172Q95.0806-9.0194 97.0177-13.9469Q98.9547-18.8743 98.9547-25.5519L98.9547-62.9118Q98.9547-66.7578 97.3094-68.4429Q95.6641-70.128 92.6165-71.4081Q90.4128-72.3089 86.3179-73.8579Q82.223-75.407 77.5307-77.1089Q72.8384-78.8109 68.7322-80.2721Q64.6259-81.7334 62.4336-82.5095Q61.499-82.8211 60.454-83.0391Q59.4091-83.2572 58.3726-83.2572Q57.3474-83.2572 56.3025-82.9882Q55.2575-82.7191 54.323-82.5095Q52.1192-81.875 48.0187-80.4392Q43.9181-79.0034 39.2258-77.2561Q34.5335-75.5089 30.4018-73.9089Q26.2701-72.3089 24.1286-71.4081Q21.0811-70.1394 19.4358-68.4486Q17.7905-66.7578 17.7905-62.9118L17.7905-25.5519Q17.7905-18.8743 19.7389-13.9525Q21.6872-9.03075 26.0569-4.77441Q30.4266-0.518075 37.5519 4.0018Q44.6771 8.52168 55.0931 14.3445Q56.0219 14.8712 56.8942 15.1176Q57.7665 15.364 58.3726 15.364ZM58.3726 6.48482Q57.7892 6.48482 57.1038 6.24406Q56.4185 6.0033 55.3199 5.37468Q46.886 0.237237 41.151-3.46431Q35.416-7.16586 31.9947-10.5105Q28.5735-13.8552 27.061-17.8002Q25.5486-21.7452 25.5486-27.3582L25.5486-61.4452Q25.5486-62.6295 25.8772-63.25Q26.2059-63.8704 27.1918-64.284Q29.9669-65.3771 33.8156-66.7507Q37.6644-68.1242 41.8361-69.5942Q46.0078-71.0641 49.8368-72.4575Q53.6657-73.8509 56.4408-74.9439Q57.0186-75.1762 57.4973-75.2669Q57.9761-75.3575 58.3726-75.3575Q58.7691-75.3575 59.2422-75.2612Q59.7152-75.1649 60.3044-74.9439Q63.0908-73.8509 66.8886-72.432Q70.6864-71.0131 74.8327-69.4922Q78.9789-67.9714 82.8277-66.5978Q86.6764-65.2242 89.5138-64.284Q90.5393-63.8704 90.8481-63.25Q91.157-62.6295 91.157-61.4452L91.157-27.3582Q91.157-21.7452 89.6643-17.8002Q88.1717-13.8552 84.7504-10.5105Q81.3292-7.16586 75.5942-3.46999Q69.8592 0.225891 61.3857 5.37468Q60.3267 6.0033 59.6357 6.24406Q58.9447 6.48482 58.3726 6.48482ZM53.0484-13.1538Q55.4777-13.1538 56.9784-15.4303L79.2735-50.538Q79.7039-51.2345 80.0776-52.0244Q80.4513-52.8144 80.4513-53.6751Q80.4513-55.2947 79.2197-56.2659Q77.988-57.2371 76.4704-57.2371Q74.4601-57.2371 73.1236-55.0626L52.8332-22.5599L43.2255-35.0109Q42.3534-36.1491 41.4813-36.5596Q40.6092-36.9702 39.6239-36.9702Q38.044-36.9702 36.9454-35.8263Q35.8468-34.6824 35.8468-33.0911Q35.8468-31.5226 36.9567-30.0728L48.8636-15.4303Q49.7866-14.1901 50.7861-13.672Q51.7856-13.1538 53.0484-13.1538Z"/>
  </g>
  <g id="Light-M" transform="matrix(1 0 0 1 1095.42 1126)">
   <path d="M57.0479 14.6097Q57.695 14.6097 58.5836 14.3173Q59.4721 14.0248 60.2905 13.5533Q70.5198 7.67257 77.5106 3.19869Q84.5014-1.2752 88.7331-5.34049Q92.9648-9.40578 94.8098-14.0389Q96.6548-18.6719 96.6548-24.9631L96.6548-62.0839Q96.6548-66.0034 95.1199-67.7437Q93.585-69.484 90.2431-70.8194Q87.5978-71.8673 83.7328-73.352Q79.8679-74.8366 75.5988-76.419Q71.3297-78.0013 67.4351-79.4074Q63.5404-80.8135 60.9248-81.7368Q59.9903-82.0483 59.0189-82.2664Q58.0476-82.4844 57.0479-82.4844Q56.0779-82.4844 55.1066-82.2338Q54.1352-81.9832 53.2006-81.7368Q50.5553-80.8814 46.6755-79.4916Q42.7958-78.1018 38.5267-76.5018Q34.2575-74.9017 30.3466-73.3845Q26.4357-71.8673 23.8527-70.8194Q20.5107-69.5138 18.9758-67.7586Q17.4409-66.0034 17.4409-62.0839L17.4409-24.9631Q17.4409-18.6719 19.3157-14.0537Q21.1905-9.43553 25.4222-5.39998Q29.6539-1.36443 36.6135 3.10945Q43.5732 7.58333 53.8052 13.5533Q54.6236 14.0248 55.4959 14.3173Q56.3681 14.6097 57.0479 14.6097ZM57.0479 7.90154Q56.4276 7.90154 55.7423 7.62399Q55.0569 7.34643 54.1975 6.8098Q45.7269 1.52517 39.8355-2.26838Q33.9441-6.06192 30.3296-9.42497Q26.7152-12.788 25.0739-16.7146Q23.4327-20.6412 23.4327-26.1622L23.4327-60.9668Q23.4327-62.7583 23.8902-63.6271Q24.3476-64.496 25.7199-65.0752Q28.1454-66.021 32.0217-67.4498Q35.8981-68.8786 40.217-70.4589Q44.5359-72.0392 48.4108-73.4694Q52.2858-74.8996 54.7113-75.8455Q55.4179-76.1513 56.0162-76.288Q56.6145-76.4247 57.0479-76.4247Q57.4812-76.4247 58.0646-76.2731Q58.6481-76.1216 59.3845-75.8455Q61.8397-74.8996 65.6835-73.4532Q69.5273-72.0067 73.8299-70.3938Q78.1325-68.7809 82.0089-67.3521Q85.8853-65.9233 88.373-65.0752Q89.7481-64.496 90.2042-63.6271Q90.6602-62.7583 90.6602-60.9668L90.6602-26.1622Q90.6602-20.6412 89.0204-16.7146Q87.3806-12.788 83.7661-9.42497Q80.1516-6.06192 74.2602-2.28325Q68.3688 1.49542 59.8954 6.8098Q59.0388 7.34643 58.3386 7.62399Q57.6384 7.90154 57.0479 7.90154ZM51.7789-13.1722Q53.601-13.1722 54.8074-14.8967L78.5007-51.9731Q78.8207-52.4856 79.0933-53.0916Q79.3658-53.6976 79.3658-54.3375Q79.3658-55.5523 78.4101-56.3303Q77.4544-57.1083 76.3048-57.1083Q74.7728-57.1083 73.6939-55.4489L51.6189-20.5545L40.3736-34.4037Q39.7039-35.2659 39.0342-35.5845Q38.3646-35.9031 37.6-35.9031Q36.3881-35.9031 35.5286-35.0259Q34.6692-34.1488 34.6692-32.9071Q34.6692-31.7249 35.5584-30.5512L48.5876-14.8967Q49.2899-13.9693 50.041-13.5708Q50.7921-13.1722 51.7789-13.1722Z"/>
  </g>
  <g id="Thin-M" transform="matrix(1 0 0 1 800.877 1126)">
   <path d="M55.2958 13.612Q56.0646 13.612 56.941 13.2587Q57.8174 12.9055 58.4898 12.507Q68.5244 6.50453 75.2961 2.09148Q82.0679-2.32157 86.1171-6.11918Q90.1663-9.9168 91.8897-14.1605Q93.613-18.4043 93.613-24.1844L93.613-60.9888Q93.613-65.0057 92.2241-66.819Q90.8352-68.6324 87.104-70.0407Q83.8746-71.2833 80.3139-72.6828Q76.7532-74.0823 73.0437-75.5064Q69.3343-76.9306 65.7195-78.2637Q62.1047-79.5968 58.9294-80.7147Q57.9949-81.0263 57.1208-81.2443Q56.2468-81.4624 55.2958-81.4624Q54.3989-81.4624 53.5248-81.2361Q52.6508-81.0098 51.7163-80.7147Q48.4869-79.5674 44.8991-78.2384Q41.3114-76.9094 37.602-75.5041Q33.8925-74.0987 30.2736-72.691Q26.6547-71.2833 23.4877-70.0407Q19.7564-68.6864 18.3675-66.8461Q16.9786-65.0057 16.9786-60.9888L16.9786-24.1844Q16.9786-18.4043 18.756-14.1876Q20.5334-9.97088 24.5826-6.22734Q28.6318-2.4838 35.3725 1.92925Q42.1131 6.34229 52.1018 12.507Q52.7742 12.9055 53.6465 13.2587Q54.5187 13.612 55.2958 13.612ZM55.2958 9.77527Q54.6269 9.77527 53.9416 9.44905Q53.2562 9.12283 52.7131 8.70787Q44.1938 3.22856 38.0956-0.686658Q31.9974-4.60187 28.1274-7.98925Q24.2574-11.3766 22.4459-15.2789Q20.6343-19.1812 20.6343-24.5805L20.6343-60.3341Q20.6343-62.9286 21.2621-64.126Q21.8898-65.3233 23.7731-66.1216Q25.7363-66.8727 29.6491-68.3745Q33.562-69.8763 38.0756-71.6026Q42.5892-73.329 46.5249-74.8078Q50.4607-76.2867 52.4239-77.0378Q53.3008-77.4411 54.0573-77.6386Q54.8138-77.8361 55.2958-77.8361Q55.7778-77.8361 56.5072-77.6115Q57.2367-77.387 58.1678-77.0378Q60.185-76.2867 64.0896-74.8037Q67.9942-73.3207 72.5037-71.5862Q77.0132-69.8516 80.926-68.3498Q84.8389-66.848 86.8643-66.1216Q88.7018-65.3233 89.3525-64.126Q90.0032-62.9286 90.0032-60.3341L90.0032-24.5805Q90.0032-19.1812 88.1687-15.2789Q86.3342-11.3766 82.4642-7.98925Q78.5943-4.60187 72.496-0.713697Q66.3978 3.17448 57.9243 8.70787Q57.3354 9.12283 56.623 9.44905Q55.9106 9.77527 55.2958 9.77527ZM50.0998-13.1966Q51.119-13.1966 51.9359-14.191L77.4787-53.8711Q77.6527-54.1403 77.7914-54.503Q77.9301-54.8656 77.9301-55.2135Q77.9301-55.8929 77.3394-56.4154Q76.7487-56.938 76.0858-56.938Q75.1865-56.938 74.4483-55.96L50.0129-17.902L36.6018-33.6007Q36.1998-34.0979 35.7978-34.2948Q35.3958-34.4917 34.9232-34.4917Q34.198-34.4917 33.6549-33.9674Q33.1118-33.4432 33.1118-32.6638Q33.1118-31.9926 33.709-31.1839L48.2226-14.191Q48.6329-13.6773 49.0554-13.4369Q49.478-13.1966 50.0998-13.1966Z"/>
  </g>
  <g id="Ultralight-M" transform="matrix(1 0 0 1 505.279 1126)">
   <path d="M54.3984 13.101Q55.2296 13.101 56.0997 12.7165Q56.9699 12.3321 57.5675 11.971Q67.5023 5.90626 74.1619 1.52438Q80.8216-2.85751 84.7773-6.51803Q88.733-10.1785 90.394-14.2228Q92.0551-18.2672 92.0551-23.7856L92.0551-60.428Q92.0551-64.4947 90.7409-66.3454Q89.4268-68.1961 85.4961-69.6418Q81.9677-70.9841 78.5627-72.34Q75.1578-73.6959 71.735-75.039Q68.3123-76.3822 64.8408-77.6779Q61.3693-78.9736 57.9074-80.1913Q56.9728-80.5028 56.1487-80.7208Q55.3245-80.9389 54.3984-80.9389Q53.5389-80.9389 52.7147-80.7251Q51.8905-80.5113 50.956-80.1913Q47.4275-78.8943 43.9893-77.5965Q40.5511-76.2987 37.1283-74.9931Q33.7056-73.6874 30.2362-72.3358Q26.7668-70.9841 23.3007-69.6418Q19.37-68.2627 18.0559-66.3787Q16.7418-64.4947 16.7418-60.428L16.7418-23.7856Q16.7418-18.2672 18.4693-14.2561Q20.1969-10.2451 24.1526-6.65111Q28.1083-3.05714 34.7368 1.32475Q41.3653 5.70664 51.2293 11.971Q51.827 12.3321 52.6992 12.7165Q53.5715 13.101 54.3984 13.101ZM54.3984 10.735Q53.7046 10.735 53.0192 10.3838Q52.3339 10.0327 51.9528 9.68005Q43.4086 4.10103 37.2044 0.123492Q31.0002-3.85404 26.9994-7.25389Q22.9986-10.6537 21.0998-14.5435Q19.201-18.4333 19.201-23.7704L19.201-60.01Q19.201-63.0159 19.916-64.3815Q20.631-65.7471 22.776-66.6575Q24.5024-67.309 28.4339-68.8481Q32.3655-70.3873 36.9788-72.1884Q41.592-73.9895 45.559-75.4933Q49.5259-76.9971 51.2523-77.6486Q52.2165-78.1016 53.054-78.3303Q53.8915-78.559 54.3984-78.559Q54.9053-78.559 55.7096-78.297Q56.5138-78.0351 57.5446-77.6486Q59.3374-76.9971 63.2732-75.4954Q67.209-73.9938 71.8244-72.1969Q76.4398-70.4 80.3714-68.8609Q84.3029-67.3217 86.0916-66.6575Q88.1658-65.7471 88.9162-64.3815Q89.6666-63.0159 89.6666-60.01L89.6666-23.7704Q89.6666-18.4333 87.7324-14.5435Q85.7983-10.6537 81.7974-7.25389Q77.7966-3.85404 71.5924 0.0902207Q65.3882 4.03449 56.9148 9.68005Q56.4629 10.0327 55.7443 10.3838Q55.0257 10.735 54.3984 10.735ZM49.2398-13.209Q49.8476-13.209 50.4652-13.8296L76.9552-54.8433Q77.0544-54.9879 77.1246-55.2259Q77.1947-55.4639 77.1947-55.6622Q77.1947-56.0674 76.791-56.4591Q76.3873-56.8507 75.9736-56.8507Q75.3984-56.8507 74.8347-56.2217L49.1902-16.5435L34.6699-33.1894Q34.405-33.4996 34.1401-33.6342Q33.8752-33.7688 33.5522-33.7688Q33.0762-33.7688 32.6952-33.4252Q32.3141-33.0817 32.3141-32.5392Q32.3141-32.1297 32.7617-31.5079L48.0357-13.8296Q48.2963-13.5278 48.5506-13.3684Q48.805-13.209 49.2398-13.209Z"/>
  </g>
  <g id="Black-S" transform="matrix(1 0 0 1 2887.31 696)">
   <path d="M48.5352 5.61523Q49.2676 5.61523 50.1465 5.32227Q51.0254 5.0293 51.8066 4.6875Q60.498 0.537109 66.5283-3.05176Q72.5586-6.64062 76.2695-10.2539Q79.9805-13.8672 81.6895-18.0176Q83.3984-22.168 83.3984-27.3438L83.3984-54.4922Q83.3984-59.8633 81.6162-62.793Q79.834-65.7227 74.9023-67.8223Q73.7793-68.3105 71.167-69.165Q68.5547-70.0195 65.5029-70.9961Q62.4512-71.9727 59.9365-72.7295Q57.4219-73.4863 56.4941-73.7793Q54.6875-74.3164 52.4902-74.6338Q50.293-74.9512 48.5352-74.9512Q46.7773-74.9512 44.6045-74.6338Q42.4316-74.3164 40.5762-73.7793Q39.6484-73.5352 37.1338-72.7539Q34.6191-71.9727 31.5674-71.0205Q28.5156-70.0684 25.9033-69.1895Q23.291-68.3105 22.168-67.8223Q17.2363-65.7227 15.4541-62.793Q13.6719-59.8633 13.6719-54.4922L13.6719-27.3438Q13.6719-22.168 15.3809-18.0176Q17.0898-13.8672 20.8008-10.2539Q24.5117-6.64062 30.542-3.05176Q36.5723 0.537109 45.2637 4.6875Q46.0449 5.0293 46.9238 5.32227Q47.8027 5.61523 48.5352 5.61523ZM48.5352-7.91016Q48.3398-7.91016 48.0957-8.00781Q47.8516-8.10547 47.168-8.54492Q40.9668-12.4512 36.9141-14.9902Q32.8613-17.5293 30.542-19.4824Q28.2227-21.4355 27.2705-23.5596Q26.3184-25.6836 26.3184-28.8086L26.3184-53.125Q26.3184-54.3945 26.6846-55.0293Q27.0508-55.6641 27.9297-56.0059Q29.7363-56.7383 32.2266-57.6416Q34.7168-58.5449 37.207-59.3994Q39.6973-60.2539 41.6016-60.8643Q43.5059-61.4746 44.1406-61.6699Q45.752-62.1582 46.7041-62.3779Q47.6562-62.5977 48.5352-62.5977Q49.4141-62.5977 50.3662-62.3779Q51.3184-62.1582 52.9297-61.6699Q53.6133-61.4746 55.4932-60.8643Q57.373-60.2539 59.8633-59.3994Q62.3535-58.5449 64.8438-57.6416Q67.334-56.7383 69.1406-56.0059Q70.0195-55.6641 70.3857-55.0293Q70.752-54.3945 70.752-53.125L70.752-28.8086Q70.752-25.5371 69.6533-23.1934Q68.5547-20.8496 66.1133-18.75Q63.6719-16.6504 59.668-14.2578Q55.6641-11.8652 49.9023-8.54492Q49.2188-8.1543 48.9746-8.03223Q48.7305-7.91016 48.5352-7.91016ZM44.7266-19.2871Q47.7539-19.2871 49.5117-21.9238L64.7949-44.8242Q65.3809-45.6543 65.625-46.4844Q65.8691-47.3145 65.8691-48.0469Q65.8691-50.1953 64.2822-51.5869Q62.6953-52.9785 60.5957-52.9785Q57.8125-52.9785 56.0059-50.0488L44.7266-31.7871L39.6484-37.4512Q38.8672-38.2812 37.9639-38.7695Q37.0605-39.2578 35.8887-39.2578Q33.7891-39.2578 32.2266-37.793Q30.6641-36.3281 30.6641-34.1797Q30.6641-32.3242 32.1777-30.5664L39.8438-21.7773Q40.8203-20.6543 42.0166-19.9707Q43.2129-19.2871 44.7266-19.2871Z"/>
  </g>
  <g id="Heavy-S" transform="matrix(1 0 0 1 2590.31 696)">
   <path d="M48.0281 5.41932Q48.6798 5.41932 49.5184 5.15516Q50.357 4.891 51.1382 4.52616Q59.7144 0.295096 65.664-3.28801Q71.6136-6.87111 75.2727-10.4441Q78.9317-14.017 80.6062-18.1328Q82.2806-22.2486 82.2806-27.482L82.2806-55.1606Q82.2806-59.967 80.6021-62.5106Q78.9236-65.0542 74.6258-66.8888Q73.4105-67.4116 70.6311-68.3583Q67.8517-69.305 64.604-70.3795Q61.3563-71.4541 58.6515-72.3088Q55.9467-73.1636 54.8807-73.5142Q53.3276-73.9822 51.4473-74.265Q49.5669-74.5478 48.0281-74.5478Q46.4892-74.5478 44.6275-74.2535Q42.7659-73.9591 41.1754-73.5142Q40.1094-73.2355 37.4046-72.3678Q34.6998-71.5002 31.4521-70.4328Q28.2045-69.3654 25.4193-68.3885Q22.6341-67.4116 21.4304-66.8888Q17.1326-65.0542 15.4541-62.5106Q13.7756-59.967 13.7756-55.1606L13.7756-27.482Q13.7756-22.2486 15.45-18.1328Q17.1244-14.017 20.7835-10.4441Q24.4426-6.87111 30.3864-3.28801Q36.3303 0.295096 44.9179 4.52616Q45.6992 4.891 46.532 5.15516Q47.3648 5.41932 48.0281 5.41932ZM48.0281-6.80381Q47.7751-6.80381 47.4619-6.91875Q47.1486-7.03369 46.3958-7.4962Q40.1025-11.414 35.9633-14.0279Q31.8241-16.6419 29.4414-18.7506Q27.0587-20.8593 26.0662-23.2138Q25.0737-25.5683 25.0737-29.0045L25.0737-53.8049Q25.0737-54.9247 25.3996-55.496Q25.7255-56.0674 26.5352-56.3862Q28.4686-57.1647 31.0799-58.1026Q33.6911-59.0405 36.3485-59.9526Q39.0058-60.8647 41.1636-61.5845Q43.3215-62.3044 44.3596-62.6726Q45.6828-63.0802 46.4851-63.2596Q47.2875-63.4389 48.0281-63.4389Q48.7687-63.4389 49.571-63.2596Q50.3734-63.0802 51.6966-62.6726Q52.772-62.3044 54.9054-61.5788Q57.0388-60.8532 59.6904-59.9295Q62.342-59.0059 64.9532-58.068Q67.5645-57.1301 69.5094-56.3862Q70.3307-56.0674 70.6508-55.496Q70.9709-54.9247 70.9709-53.8049L70.9709-29.0045Q70.9709-25.4564 69.8723-22.9341Q68.7737-20.4117 66.2977-18.1911Q63.8217-15.9704 59.7198-13.4684Q55.618-10.9663 49.6488-7.4962Q48.9076-7.071 48.5943-6.9374Q48.281-6.80381 48.0281-6.80381ZM44.1273-18.9644Q46.9587-18.9644 48.6128-21.4628L64.2533-45.2276Q64.7931-46.0116 65.0603-46.8128Q65.3275-47.6141 65.3275-48.358Q65.3275-50.3451 63.8558-51.61Q62.3842-52.8748 60.4574-52.8748Q57.9047-52.8748 56.2479-50.1756L44.0812-30.4848L38.6112-36.9556Q37.83-37.8318 36.9555-38.2913Q36.081-38.7507 34.9782-38.7507Q33.04-38.7507 31.6158-37.3896Q30.1916-36.0285 30.1916-34.0529Q30.1916-32.3012 31.5785-30.6586L39.5095-21.3509Q40.4515-20.2279 41.5787-19.5962Q42.7058-18.9644 44.1273-18.9644Z"/>
  </g>
  <g id="Bold-S" transform="matrix(1 0 0 1 2293.27 696)">
   <path d="M47.4609 5.2002Q48.0225 5.2002 48.8159 4.96826Q49.6094 4.73633 50.3906 4.3457Q58.8379 0.0244141 64.6973-3.55225Q70.5566-7.12891 74.1577-10.6567Q77.7588-14.1846 79.3945-18.2617Q81.0303-22.3389 81.0303-27.6367L81.0303-55.9082Q81.0303-60.083 79.4678-62.1948Q77.9053-64.3066 74.3164-65.8447Q72.998-66.4062 70.0317-67.4561Q67.0654-68.5059 63.5986-69.6899Q60.1318-70.874 57.2144-71.8384Q54.2969-72.8027 53.0762-73.2178Q51.8066-73.6084 50.2808-73.8525Q48.7549-74.0967 47.4609-74.0967Q46.167-74.0967 44.6533-73.8281Q43.1396-73.5596 41.8457-73.2178Q40.625-72.9004 37.7075-71.936Q34.79-70.9717 31.3232-69.7754Q27.8564-68.5791 24.8779-67.4927Q21.8994-66.4062 20.6055-65.8447Q17.0166-64.3066 15.4541-62.1948Q13.8916-60.083 13.8916-55.9082L13.8916-27.6367Q13.8916-22.3389 15.5273-18.2617Q17.1631-14.1846 20.7642-10.6567Q24.3652-7.12891 30.2124-3.55225Q36.0596 0.0244141 44.5312 4.3457Q45.3125 4.73633 46.0938 4.96826Q46.875 5.2002 47.4609 5.2002ZM47.4609-5.56641Q47.1436-5.56641 46.7529-5.70068Q46.3623-5.83496 45.5322-6.32324Q39.1357-10.2539 34.8999-12.9517Q30.6641-15.6494 28.2104-17.9321Q25.7568-20.2148 24.7192-22.8271Q23.6816-25.4395 23.6816-29.2236L23.6816-54.5654Q23.6816-55.5176 23.9624-56.0181Q24.2432-56.5186 24.9756-56.8115Q27.0508-57.6416 29.7974-58.6182Q32.5439-59.5947 35.3882-60.5713Q38.2324-61.5479 40.6738-62.3901Q43.1152-63.2324 44.6045-63.7939Q45.6055-64.1113 46.2402-64.2456Q46.875-64.3799 47.4609-64.3799Q48.0469-64.3799 48.6816-64.2456Q49.3164-64.1113 50.3174-63.7939Q51.8311-63.2324 54.248-62.3779Q56.665-61.5234 59.4971-60.5225Q62.3291-59.5215 65.0757-58.5449Q67.8223-57.5684 69.9219-56.8115Q70.6787-56.5186 70.9473-56.0181Q71.2158-55.5176 71.2158-54.5654L71.2158-29.2236Q71.2158-25.3662 70.1172-22.644Q69.0186-19.9219 66.5039-17.5659Q63.9893-15.21 59.7778-12.5854Q55.5664-9.96094 49.3652-6.32324Q48.5596-5.85938 48.1689-5.71289Q47.7783-5.56641 47.4609-5.56641ZM43.457-18.6035Q46.0693-18.6035 47.6074-20.9473L63.6475-45.6787Q64.1357-46.4111 64.4287-47.1802Q64.7217-47.9492 64.7217-48.7061Q64.7217-50.5127 63.3789-51.6357Q62.0361-52.7588 60.3027-52.7588Q58.0078-52.7588 56.5186-50.3174L43.3594-29.0283L37.4512-36.4014Q36.6699-37.3291 35.8276-37.7563Q34.9854-38.1836 33.96-38.1836Q32.2021-38.1836 30.9326-36.9385Q29.6631-35.6934 29.6631-33.9111Q29.6631-32.2754 30.9082-30.7617L39.1357-20.874Q40.0391-19.751 41.0889-19.1772Q42.1387-18.6035 43.457-18.6035Z"/>
  </g>
  <g id="Semibold-S" transform="matrix(1 0 0 1 1996.34 696)">
   <path d="M47.0699 5.04912Q47.5692 5.04912 48.3316 4.8394Q49.0939 4.62969 49.8752 4.22129Q58.2336-0.162207 64.0308-3.73442Q69.8279-7.30664 73.389-10.8034Q76.9501-14.3001 78.5592-18.3506Q80.1683-22.4011 80.1683-27.7434L80.1683-56.4236Q80.1683-60.163 78.6857-61.9771Q77.2032-63.7912 74.1031-65.1249Q72.7137-65.7131 69.6185-66.834Q66.5233-67.9549 62.9055-69.2145Q59.2876-70.4741 56.2235-71.514Q53.1594-72.5539 51.832-73.0134Q50.758-73.3507 49.4765-73.5682Q48.195-73.7856 47.0699-73.7856Q45.9448-73.7856 44.6711-73.5349Q43.3974-73.2841 42.3078-73.0134Q40.9805-72.6693 37.9164-71.6383Q34.8522-70.6073 31.2344-69.3222Q27.6165-68.037 24.5047-66.875Q21.3929-65.7131 20.0367-65.1249Q16.9366-63.7912 15.4541-61.9771Q13.9716-60.163 13.9716-56.4236L13.9716-27.7434Q13.9716-22.4011 15.5807-18.3506Q17.1897-14.3001 20.7508-10.8034Q24.3119-7.30664 30.0924-3.73442Q35.8729-0.162207 44.2646 4.22129Q45.0459 4.62969 45.7916 4.8394Q46.5373 5.04912 47.0699 5.04912ZM47.0699-4.71328Q46.7081-4.71328 46.2642-4.86089Q45.8202-5.0085 44.9368-5.51455Q38.4692-9.4541 34.1667-12.2096Q29.8643-14.9651 27.3618-17.3678Q24.8593-19.7705 23.7906-22.5605Q22.7219-25.3506 22.7219-29.3747L22.7219-55.0897Q22.7219-55.9264 22.9715-56.378Q23.2212-56.8296 23.9003-57.1048Q26.0732-57.9704 28.9131-58.9736Q31.753-59.9769 34.7261-60.9979Q37.6992-62.0188 40.3361-62.9456Q42.973-63.8723 44.7733-64.5671Q45.5521-64.8223 46.0714-64.9254Q46.5906-65.0286 47.0699-65.0286Q47.5492-65.0286 48.0685-64.9254Q48.5877-64.8223 49.3665-64.5671Q51.1823-63.8723 53.7948-62.9289Q56.4073-61.9855 59.3638-60.9312Q62.3202-59.877 65.1601-58.8737Q68-57.8705 70.2062-57.1048Q70.9187-56.8296 71.1517-56.378Q71.3847-55.9264 71.3847-55.0897L71.3847-29.3747Q71.3847-25.304 70.286-22.4441Q69.1874-19.5842 66.6461-17.1349Q64.1048-14.6856 59.8178-11.9767Q55.5309-9.26777 49.1697-5.51455Q48.3196-5.02402 47.8757-4.86865Q47.4317-4.71328 47.0699-4.71328ZM42.9949-18.3547Q45.4562-18.3547 46.9143-20.5918L63.2298-45.9897Q63.6825-46.6866 63.9933-47.4334Q64.304-48.1803 64.304-48.946Q64.304-50.6282 63.0501-51.6535Q61.7962-52.6788 60.1961-52.6788Q58.0789-52.6788 56.7052-50.4151L42.8617-28.0241L36.6514-36.0192Q35.8701-36.9825 35.05-37.3875Q34.23-37.7926 33.2579-37.7926Q31.6245-37.7926 30.4616-36.6274Q29.2987-35.4623 29.2987-33.8134Q29.2987-32.2576 30.4461-30.8328L38.878-20.5452Q39.7547-19.4222 40.7512-18.8884Q41.7477-18.3547 42.9949-18.3547Z"/>
  </g>
  <g id="Medium-S" transform="matrix(1 0 0 1 1699.46 696)">
   <path d="M46.7734 4.93457Q47.2256 4.93457 47.9644 4.7417Q48.7031 4.54883 49.4844 4.12695Q57.7754-0.303711 63.5254-3.87256Q69.2754-7.44141 72.8062-10.9146Q76.3369-14.3877 77.9258-18.418Q79.5146-22.4482 79.5146-27.8242L79.5146-56.8145Q79.5146-60.2236 78.0928-61.812Q76.6709-63.4004 73.9414-64.5791Q72.498-65.1875 69.3052-66.3623Q66.1123-67.5371 62.3799-68.854Q58.6475-70.1709 55.4722-71.2681Q52.2969-72.3652 50.8887-72.8584Q49.9629-73.1553 48.8667-73.3525Q47.7705-73.5498 46.7734-73.5498Q45.7764-73.5498 44.6846-73.3125Q43.5928-73.0752 42.6582-72.8584Q41.25-72.4941 38.0747-71.4126Q34.8994-70.3311 31.167-68.9785Q27.4346-67.626 24.2217-66.4067Q21.0088-65.1875 19.6055-64.5791Q16.876-63.4004 15.4541-61.812Q14.0322-60.2236 14.0322-56.8145L14.0322-27.8242Q14.0322-22.4482 15.6211-18.418Q17.21-14.3877 20.7407-10.9146Q24.2715-7.44141 30.0015-3.87256Q35.7314-0.303711 44.0625 4.12695Q44.8438 4.54883 45.5625 4.7417Q46.2812 4.93457 46.7734 4.93457ZM46.7734-4.06641Q46.3779-4.06641 45.8936-4.22412Q45.4092-4.38184 44.4854-4.90137Q37.9639-8.84766 33.6108-11.647Q29.2578-14.4463 26.7183-16.9399Q24.1787-19.4336 23.0864-22.3584Q21.9941-25.2832 21.9941-29.4893L21.9941-55.4873Q21.9941-56.2363 22.2202-56.6509Q22.4463-57.0654 23.085-57.3271Q25.332-58.2197 28.2427-59.2432Q31.1533-60.2666 34.2241-61.3213Q37.2949-62.376 40.0801-63.3667Q42.8652-64.3574 44.9014-65.1533Q45.5117-65.3613 45.9434-65.4409Q46.375-65.5205 46.7734-65.5205Q47.1719-65.5205 47.6035-65.4409Q48.0352-65.3613 48.6455-65.1533Q50.6904-64.3574 53.4512-63.3467Q56.2119-62.3359 59.2627-61.2412Q62.3135-60.1465 65.2241-59.123Q68.1348-58.0996 70.4219-57.3271Q71.1006-57.0654 71.3066-56.6509Q71.5127-56.2363 71.5127-55.4873L71.5127-29.4893Q71.5127-25.2568 70.4141-22.2925Q69.3154-19.3281 66.7539-16.8081Q64.1924-14.2881 59.8481-11.5151Q55.5039-8.74219 49.0215-4.90137Q48.1377-4.39062 47.6533-4.22852Q47.1689-4.06641 46.7734-4.06641ZM42.6445-18.166Q44.9912-18.166 46.3887-20.3223L62.9131-46.2256Q63.3389-46.8955 63.6631-47.6255Q63.9873-48.3555 63.9873-49.1279Q63.9873-50.7158 62.8008-51.667Q61.6143-52.6182 60.1152-52.6182Q58.1328-52.6182 56.8467-50.4893L42.4844-27.2627L36.0449-35.7295Q35.2637-36.7197 34.4604-37.1079Q33.6572-37.4961 32.7256-37.4961Q31.1865-37.4961 30.1045-36.3916Q29.0225-35.2871 29.0225-33.7393Q29.0225-32.2441 30.0957-30.8867L38.6826-20.2959Q39.5391-19.1729 40.4951-18.6694Q41.4512-18.166 42.6445-18.166Z"/>
  </g>
  <g id="Regular-S" transform="matrix(1 0 0 1 1402.53 696)">
   <path d="M46.3867 4.78516Q46.7773 4.78516 47.4854 4.61426Q48.1934 4.44336 48.9746 4.00391Q57.1777-0.488281 62.8662-4.05273Q68.5547-7.61719 72.0459-11.0596Q75.5371-14.502 77.0996-18.5059Q78.6621-22.5098 78.6621-27.9297L78.6621-57.3242Q78.6621-60.3027 77.3193-61.5967Q75.9766-62.8906 73.7305-63.8672Q72.2168-64.502 68.8965-65.7471Q65.5762-66.9922 61.6943-68.3838Q57.8125-69.7754 54.4922-70.9473Q51.1719-72.1191 49.6582-72.6562Q48.9258-72.9004 48.0713-73.0713Q47.2168-73.2422 46.3867-73.2422Q45.5566-73.2422 44.7021-73.0225Q43.8477-72.8027 43.1152-72.6562Q41.6016-72.2656 38.2812-71.1182Q34.9609-69.9707 31.0791-68.5303Q27.1973-67.0898 23.8525-65.7959Q20.5078-64.502 19.043-63.8672Q16.7969-62.8906 15.4541-61.5967Q14.1113-60.3027 14.1113-57.3242L14.1113-27.9297Q14.1113-22.5098 15.6738-18.5059Q17.2363-14.502 20.7275-11.0596Q24.2188-7.61719 29.8828-4.05273Q35.5469-0.488281 43.7988 4.00391Q44.5801 4.44336 45.2637 4.61426Q45.9473 4.78516 46.3867 4.78516ZM46.3867-3.22266Q45.9473-3.22266 45.4102-3.39355Q44.873-3.56445 43.8965-4.10156Q37.3047-8.05664 32.8857-10.9131Q28.4668-13.7695 25.8789-16.3818Q23.291-18.9941 22.168-22.0947Q21.0449-25.1953 21.0449-29.6387L21.0449-56.0059Q21.0449-56.6406 21.2402-57.0068Q21.4355-57.373 22.0215-57.6172Q24.3652-58.5449 27.3682-59.5947Q30.3711-60.6445 33.5693-61.7432Q36.7676-62.8418 39.7461-63.916Q42.7246-64.9902 45.0684-65.918Q45.459-66.0645 45.7764-66.1133Q46.0938-66.1621 46.3867-66.1621Q46.6797-66.1621 46.9971-66.1133Q47.3145-66.0645 47.7051-65.918Q50.0488-64.9902 53.0029-63.8916Q55.957-62.793 59.1309-61.6455Q62.3047-60.498 65.3076-59.4482Q68.3105-58.3984 70.7031-57.6172Q71.3379-57.373 71.5088-57.0068Q71.6797-56.6406 71.6797-56.0059L71.6797-29.6387Q71.6797-25.1953 70.5811-22.0947Q69.4824-18.9941 66.8945-16.3818Q64.3066-13.7695 59.8877-10.9131Q55.4688-8.05664 48.8281-4.10156Q47.9004-3.56445 47.3633-3.39355Q46.8262-3.22266 46.3867-3.22266ZM42.1875-17.9199Q44.3848-17.9199 45.7031-19.9707L62.5-46.5332Q62.8906-47.168 63.2324-47.876Q63.5742-48.584 63.5742-49.3652Q63.5742-50.8301 62.4756-51.6846Q61.377-52.5391 60.0098-52.5391Q58.2031-52.5391 57.0312-50.5859L41.9922-26.2695L35.2539-35.3516Q34.4727-36.377 33.6914-36.7432Q32.9102-37.1094 32.0312-37.1094Q30.6152-37.1094 29.6387-36.084Q28.6621-35.0586 28.6621-33.6426Q28.6621-32.2266 29.6387-30.957L38.4277-19.9707Q39.2578-18.8477 40.1611-18.3838Q41.0645-17.9199 42.1875-17.9199Z"/>
  </g>
  <g id="Light-S" transform="matrix(1 0 0 1 1107.27 696)">
   <path d="M45.2148 4.11784Q45.6868 4.11784 46.3867 3.90625Q47.0866 3.69466 47.7702 3.30404Q55.8431-1.26953 61.3851-4.79329Q66.9271-8.31706 70.2962-11.5804Q73.6654-14.8438 75.1465-18.5872Q76.6276-22.3307 76.6276-27.4089L76.6276-56.5918Q76.6276-59.6354 75.3825-60.9782Q74.1374-62.321 71.6309-63.3464Q69.7266-64.1113 66.6097-65.2995Q63.4928-66.4876 59.9854-67.7734Q56.4779-69.0592 53.3447-70.1823Q50.2116-71.3053 48.3236-71.9727Q47.5911-72.2168 46.8018-72.3877Q46.0124-72.5586 45.2148-72.5586Q44.4336-72.5586 43.6442-72.3551Q42.8548-72.1517 42.1224-71.9727Q40.2181-71.3867 37.0931-70.2799Q33.9681-69.1732 30.4606-67.863Q26.9531-66.5527 23.8037-65.332Q20.6543-64.1113 18.7988-63.3464Q16.2923-62.3372 15.0472-60.9863Q13.8021-59.6354 13.8021-56.5918L13.8021-27.4089Q13.8021-22.3307 15.2995-18.5954Q16.7969-14.86 20.166-11.613Q23.5352-8.36589 29.0527-4.84212Q34.5703-1.31836 42.6595 3.30404Q43.3431 3.69466 44.0267 3.90625Q44.7103 4.11784 45.2148 4.11784ZM45.2148-1.9694Q44.7428-1.9694 44.2057-2.17285Q43.6686-2.3763 42.9036-2.83203Q36.2793-6.91732 31.722-9.85514Q27.1647-12.793 24.4059-15.4215Q21.6471-18.0501 20.4102-21.1344Q19.1732-24.2188 19.1732-28.5807L19.1732-55.5827Q19.1732-56.7546 19.4824-57.3405Q19.7917-57.9264 20.7194-58.3171Q22.7539-59.1146 25.7812-60.2132Q28.8086-61.3118 32.137-62.5081Q35.4655-63.7044 38.4847-64.8112Q41.5039-65.918 43.5384-66.7155Q44.043-66.9271 44.4661-67.0166Q44.8893-67.1061 45.2148-67.1061Q45.5404-67.1061 45.9554-67.0085Q46.3704-66.9108 46.8913-66.7155Q48.9421-65.918 51.9368-64.7949Q54.9316-63.6719 58.2438-62.443Q61.556-61.2142 64.5833-60.1156Q67.6107-59.0169 69.694-58.3171Q70.638-57.9264 70.9391-57.3405Q71.2402-56.7546 71.2402-55.5827L71.2402-28.5807Q71.2402-24.2188 70.0114-21.1344Q68.7826-18.0501 66.0238-15.4215Q63.265-12.793 58.7077-9.86328Q54.1504-6.93359 47.5098-2.83203Q46.7611-2.3763 46.2158-2.17285Q45.6706-1.9694 45.2148-1.9694ZM41.0645-17.9362Q42.7246-17.9362 43.7826-19.4987L61.8164-47.8027Q62.1094-48.2747 62.3617-48.82Q62.6139-49.3652 62.6139-49.9512Q62.6139-51.0579 61.7594-51.7415Q60.9049-52.4251 59.8633-52.4251Q58.4798-52.4251 57.5358-50.9277L40.918-24.4954L32.7311-34.8145Q32.1289-35.5957 31.5267-35.8805Q30.9245-36.1654 30.2409-36.1654Q29.1504-36.1654 28.3854-35.376Q27.6204-34.5866 27.6204-33.4798Q27.6204-32.4056 28.4017-31.3802L38.1836-19.4987Q38.8184-18.6523 39.502-18.2943Q40.1855-17.9362 41.0645-17.9362Z"/>
  </g>
  <g id="Thin-S" transform="matrix(1 0 0 1 812.483 696)">
   <path d="M43.6649 3.23526Q44.2446 3.23526 44.9337 2.96985Q45.6228 2.70445 46.1772 2.3784Q54.0779-2.3028 59.4262-5.77274Q64.7744-9.24269 67.9821-12.2692Q71.1898-15.2958 72.5633-18.6949Q73.9368-22.0939 73.9368-26.72L73.9368-55.6231Q73.9368-58.7528 72.8208-60.1602Q71.7049-61.5675 68.854-62.6575Q66.433-63.5947 63.5852-64.7075Q60.7375-65.8203 57.7251-66.9662Q54.7127-68.1121 51.8271-69.1706Q48.9415-70.229 46.5584-71.0685Q45.826-71.3127 45.1227-71.4836Q44.4194-71.6545 43.6649-71.6545Q42.9483-71.6545 42.245-71.4726Q41.5417-71.2906 40.8093-71.0685Q38.3884-70.2243 35.5217-69.1713Q32.655-68.1184 29.6426-66.9804Q26.6302-65.8424 23.7391-64.7185Q20.848-63.5947 18.4759-62.6575Q15.625-61.6053 14.509-60.1791Q13.3931-58.7528 13.3931-55.6231L13.3931-26.72Q13.3931-22.0939 14.8044-18.7138Q16.2157-15.3336 19.4234-12.3449Q22.631-9.3561 27.9549-5.88615Q33.2787-2.4162 41.1527 2.3784Q41.7071 2.70445 42.3907 2.96985Q43.0743 3.23526 43.6649 3.23526ZM43.6649-0.31187Q43.1499-0.31187 42.6128-0.558373Q42.0757-0.804877 41.5905-1.15297Q34.9231-5.41047 30.1829-8.45593Q25.4426-11.5014 22.4578-14.1515Q19.473-16.8016 18.0853-19.8644Q16.6976-22.9272 16.6976-27.1815L16.6976-55.023Q16.6976-56.9052 17.1576-57.7818Q17.6175-58.6583 18.9973-59.2427Q20.6228-59.868 23.6824-61.0312Q26.7421-62.1944 30.2427-63.5199Q33.7434-64.8453 36.8164-65.9951Q39.8894-67.145 41.5149-67.7703Q42.1702-68.068 42.7333-68.2113Q43.2964-68.3546 43.6649-68.3546Q44.0335-68.3546 44.5777-68.1924Q45.1219-68.0302 45.815-67.7703Q47.4783-67.145 50.5269-65.9896Q53.5755-64.8343 57.0706-63.4978Q60.5658-62.1614 63.6254-60.9981Q66.685-59.8349 68.3594-59.2427Q69.7124-58.6583 70.1857-57.7818Q70.659-56.9052 70.659-55.023L70.659-27.1815Q70.659-22.9272 69.258-19.8644Q67.8569-16.8016 64.8721-14.1515Q61.8873-11.5014 57.147-8.47483Q52.4068-5.44827 45.7661-1.15297Q45.2542-0.804877 44.6982-0.558373Q44.1422-0.31187 43.6649-0.31187ZM39.5791-17.9577Q40.5289-17.9577 41.2424-18.8744L60.9123-49.4818Q61.0761-49.7385 61.21-50.0685Q61.3439-50.3985 61.3439-50.7261Q61.3439-51.3593 60.8123-51.8169Q60.2807-52.2744 59.6695-52.2744Q58.8458-52.2744 58.2031-51.3798L39.4972-22.1491L29.3945-34.1041Q29.0291-34.5624 28.6637-34.7396Q28.2983-34.9168 27.873-34.9168Q27.213-34.9168 26.7279-34.4396Q26.2428-33.9623 26.2428-33.2646Q26.2428-32.6424 26.7657-31.9399L37.8607-18.8744Q38.2371-18.394 38.6301-18.1759Q39.0231-17.9577 39.5791-17.9577Z"/>
  </g>
  <g id="Ultralight-S" transform="matrix(1 0 0 1 516.756 696)">
   <path d="M42.8711 2.7832Q43.5059 2.7832 44.1895 2.49023Q44.873 2.19727 45.3613 1.9043Q53.1738-2.83203 58.4229-6.27441Q63.6719-9.7168 66.7969-12.6221Q69.9219-15.5273 71.2402-18.75Q72.5586-21.9727 72.5586-26.3672L72.5586-55.127Q72.5586-58.3008 71.5088-59.7412Q70.459-61.1816 67.4316-62.3047Q64.7461-63.3301 62.0361-64.4043Q59.3262-65.4785 56.5674-66.5527Q53.8086-67.627 51.0498-68.6523Q48.291-69.6777 45.6543-70.6055Q44.9219-70.8496 44.2627-71.0205Q43.6035-71.1914 42.8711-71.1914Q42.1875-71.1914 41.5283-71.0205Q40.8691-70.8496 40.1367-70.6055Q37.4512-69.6289 34.7168-68.6035Q31.9824-67.5781 29.2236-66.5283Q26.4648-65.4785 23.7061-64.4043Q20.9473-63.3301 18.3105-62.3047Q15.2832-61.2305 14.2334-59.7656Q13.1836-58.3008 13.1836-55.127L13.1836-26.3672Q13.1836-21.9727 14.5508-18.7744Q15.918-15.5762 19.043-12.7197Q22.168-9.86328 27.3926-6.4209Q32.6172-2.97852 40.3809 1.9043Q40.8691 2.19727 41.5527 2.49023Q42.2363 2.7832 42.8711 2.7832ZM42.8711 0.537109Q42.334 0.537109 41.7969 0.268555Q41.2598 0 40.918-0.292969Q34.2285-4.63867 29.3945-7.73926Q24.5605-10.8398 21.46-13.501Q18.3594-16.1621 16.8945-19.2139Q15.4297-22.2656 15.4297-26.4648L15.4297-54.7363Q15.4297-56.9824 15.9668-58.0078Q16.5039-59.0332 18.1152-59.7168Q19.5312-60.2539 22.6074-61.4502Q25.6836-62.6465 29.2725-64.0381Q32.8613-65.4297 35.9619-66.6016Q39.0625-67.7734 40.4785-68.3105Q41.2109-68.6523 41.8457-68.8232Q42.4805-68.9941 42.8711-68.9941Q43.2617-68.9941 43.8721-68.7988Q44.4824-68.6035 45.2637-68.3105Q46.7285-67.7734 49.8047-66.6016Q52.8809-65.4297 56.4697-64.0381Q60.0586-62.6465 63.1348-61.4502Q66.2109-60.2539 67.6758-59.7168Q69.2383-59.0332 69.7998-58.0078Q70.3613-56.9824 70.3613-54.7363L70.3613-26.4648Q70.3613-22.2656 68.8721-19.2139Q67.3828-16.1621 64.2822-13.501Q61.1816-10.8398 56.3477-7.76367Q51.5137-4.6875 44.873-0.292969Q44.4824 0 43.9209 0.268555Q43.3594 0.537109 42.8711 0.537109ZM38.8184-17.9688Q39.4043-17.9688 39.9414-18.5547L60.4492-50.3418Q60.5469-50.4883 60.6201-50.708Q60.6934-50.9277 60.6934-51.123Q60.6934-51.5137 60.3271-51.8555Q59.9609-52.1973 59.5703-52.1973Q59.0332-52.1973 58.5449-51.6113L38.7695-20.9473L27.6855-33.7402Q27.4414-34.0332 27.1973-34.1553Q26.9531-34.2773 26.6602-34.2773Q26.2207-34.2773 25.8789-33.96Q25.5371-33.6426 25.5371-33.1543Q25.5371-32.7637 25.9277-32.2266L37.6953-18.5547Q37.9395-18.2617 38.1836-18.1152Q38.4277-17.9688 38.8184-17.9688Z"/>
  </g>
 </g>
</svg>
