<?xml version="1.0" encoding="UTF-8"?>
<!--Generator: Apple Native CoreSVG 175-->
<!DOCTYPE svg
PUBLIC "-//W3C//DTD SVG 1.1//EN"
       "http://www.w3.org/Graphics/SVG/1.1/DTD/svg11.dtd">
<svg version="1.1" xmlns="http://www.w3.org/2000/svg" xmlns:xlink="http://www.w3.org/1999/xlink" width="3300" height="2200">
 <!--glyph: "uni1005D7.medium", point size: 100.0, font version: "17.3d3e1", template writer version: "65.1"-->
 <g id="Notes">
  <rect height="2200" id="artboard" style="fill:white;opacity:1" width="3300" x="0" y="0"/>
  <line style="fill:none;stroke:black;opacity:1;stroke-width:0.5;" x1="263" x2="3036" y1="292" y2="292"/>
  <text style="stroke:none;fill:black;font-family:sans-serif;font-size:13;font-weight:bold;" transform="matrix(1 0 0 1 263 322)">Weight/Scale Variations</text>
  <text style="stroke:none;fill:black;font-family:sans-serif;font-size:13;text-anchor:middle;" transform="matrix(1 0 0 1 559.711 322)">Ultralight</text>
  <text style="stroke:none;fill:black;font-family:sans-serif;font-size:13;text-anchor:middle;" transform="matrix(1 0 0 1 856.422 322)">Thin</text>
  <text style="stroke:none;fill:black;font-family:sans-serif;font-size:13;text-anchor:middle;" transform="matrix(1 0 0 1 1153.13 322)">Light</text>
  <text style="stroke:none;fill:black;font-family:sans-serif;font-size:13;text-anchor:middle;" transform="matrix(1 0 0 1 1449.84 322)">Regular</text>
  <text style="stroke:none;fill:black;font-family:sans-serif;font-size:13;text-anchor:middle;" transform="matrix(1 0 0 1 1746.56 322)">Medium</text>
  <text style="stroke:none;fill:black;font-family:sans-serif;font-size:13;text-anchor:middle;" transform="matrix(1 0 0 1 2043.27 322)">Semibold</text>
  <text style="stroke:none;fill:black;font-family:sans-serif;font-size:13;text-anchor:middle;" transform="matrix(1 0 0 1 2339.98 322)">Bold</text>
  <text style="stroke:none;fill:black;font-family:sans-serif;font-size:13;text-anchor:middle;" transform="matrix(1 0 0 1 2636.69 322)">Heavy</text>
  <text style="stroke:none;fill:black;font-family:sans-serif;font-size:13;text-anchor:middle;" transform="matrix(1 0 0 1 2933.4 322)">Black</text>
  <line style="fill:none;stroke:black;opacity:1;stroke-width:0.5;" x1="263" x2="3036" y1="1903" y2="1903"/>
  <g transform="matrix(1 0 0 1 263 1933)">
   <path d="M9.24805 0.830078Q10.8691 0.830078 12.2949 0.214844Q13.7207-0.400391 14.8096-1.49414Q15.8984-2.58789 16.5186-4.01367Q17.1387-5.43945 17.1387-7.05078Q17.1387-8.66211 16.5186-10.0879Q15.8984-11.5137 14.8047-12.6074Q13.7109-13.7012 12.2852-14.3164Q10.8594-14.9316 9.23828-14.9316Q7.62695-14.9316 6.20117-14.3164Q4.77539-13.7012 3.69141-12.6074Q2.60742-11.5137 1.9873-10.0879Q1.36719-8.66211 1.36719-7.05078Q1.36719-5.43945 1.9873-4.01367Q2.60742-2.58789 3.69629-1.49414Q4.78516-0.400391 6.21094 0.214844Q7.63672 0.830078 9.24805 0.830078ZM9.24805-0.654297Q7.91992-0.654297 6.7627-1.14746Q5.60547-1.64062 4.73145-2.51953Q3.85742-3.39844 3.36426-4.56055Q2.87109-5.72266 2.87109-7.05078Q2.87109-8.37891 3.35938-9.54102Q3.84766-10.7031 4.72168-11.582Q5.5957-12.4609 6.75293-12.9541Q7.91016-13.4473 9.23828-13.4473Q10.5762-13.4473 11.7334-12.9541Q12.8906-12.4609 13.7695-11.582Q14.6484-10.7031 15.1465-9.54102Q15.6445-8.37891 15.6445-7.05078Q15.6445-5.72266 15.1514-4.56055Q14.6582-3.39844 13.7842-2.51953Q12.9102-1.64062 11.748-1.14746Q10.5859-0.654297 9.24805-0.654297ZM5.6543-7.05078Q5.6543-6.72852 5.85938-6.52832Q6.06445-6.32812 6.40625-6.32812L8.51562-6.32812L8.51562-4.20898Q8.51562-3.88672 8.71094-3.67676Q8.90625-3.4668 9.23828-3.4668Q9.56055-3.4668 9.77051-3.67676Q9.98047-3.88672 9.98047-4.20898L9.98047-6.32812L12.0898-6.32812Q12.4219-6.32812 12.627-6.52832Q12.832-6.72852 12.832-7.05078Q12.832-7.38281 12.627-7.58789Q12.4219-7.79297 12.0898-7.79297L9.98047-7.79297L9.98047-9.90234Q9.98047-10.2344 9.77051-10.4443Q9.56055-10.6543 9.23828-10.6543Q8.90625-10.6543 8.71094-10.4443Q8.51562-10.2344 8.51562-9.90234L8.51562-7.79297L6.40625-7.79297Q6.06445-7.79297 5.85938-7.58789Q5.6543-7.38281 5.6543-7.05078Z"/>
  </g>
  <g transform="matrix(1 0 0 1 281.867 1933)">
   <path d="M11.709 2.91016Q13.75 2.91016 15.5518 2.12891Q17.3535 1.34766 18.7305-0.0292969Q20.1074-1.40625 20.8887-3.20801Q21.6699-5.00977 21.6699-7.05078Q21.6699-9.0918 20.8887-10.8936Q20.1074-12.6953 18.7305-14.0723Q17.3535-15.4492 15.5469-16.2305Q13.7402-17.0117 11.6992-17.0117Q9.6582-17.0117 7.85645-16.2305Q6.05469-15.4492 4.68262-14.0723Q3.31055-12.6953 2.5293-10.8936Q1.74805-9.0918 1.74805-7.05078Q1.74805-5.00977 2.5293-3.20801Q3.31055-1.40625 4.6875-0.0292969Q6.06445 1.34766 7.86621 2.12891Q9.66797 2.91016 11.709 2.91016ZM11.709 1.25Q9.98047 1.25 8.47656 0.605469Q6.97266-0.0390625 5.83496-1.17676Q4.69727-2.31445 4.05762-3.81836Q3.41797-5.32227 3.41797-7.05078Q3.41797-8.7793 4.05762-10.2832Q4.69727-11.7871 5.83008-12.9297Q6.96289-14.0723 8.4668-14.7119Q9.9707-15.3516 11.6992-15.3516Q13.4277-15.3516 14.9316-14.7119Q16.4355-14.0723 17.5781-12.9297Q18.7207-11.7871 19.3652-10.2832Q20.0098-8.7793 20.0098-7.05078Q20.0098-5.32227 19.3701-3.81836Q18.7305-2.31445 17.5928-1.17676Q16.4551-0.0390625 14.9463 0.605469Q13.4375 1.25 11.709 1.25ZM7.17773-7.05078Q7.17773-6.69922 7.41211-6.47461Q7.64648-6.25 8.01758-6.25L10.8887-6.25L10.8887-3.36914Q10.8887-2.99805 11.1133-2.76855Q11.3379-2.53906 11.6895-2.53906Q12.0605-2.53906 12.29-2.76855Q12.5195-2.99805 12.5195-3.36914L12.5195-6.25L15.4004-6.25Q15.7715-6.25 16.001-6.47461Q16.2305-6.69922 16.2305-7.05078Q16.2305-7.42188 16.001-7.65137Q15.7715-7.88086 15.4004-7.88086L12.5195-7.88086L12.5195-10.752Q12.5195-11.1328 12.29-11.3623Q12.0605-11.5918 11.6895-11.5918Q11.3379-11.5918 11.1133-11.3574Q10.8887-11.123 10.8887-10.752L10.8887-7.88086L8.01758-7.88086Q7.63672-7.88086 7.40723-7.65137Q7.17773-7.42188 7.17773-7.05078Z"/>
  </g>
  <g transform="matrix(1 0 0 1 305.646 1933)">
   <path d="M14.9707 5.66406Q17.0605 5.66406 18.96 5.01465Q20.8594 4.36523 22.4512 3.19336Q24.043 2.02148 25.2197 0.429688Q26.3965-1.16211 27.0459-3.06641Q27.6953-4.9707 27.6953-7.05078Q27.6953-9.14062 27.0459-11.04Q26.3965-12.9395 25.2197-14.5312Q24.043-16.123 22.4512-17.2998Q20.8594-18.4766 18.9551-19.126Q17.0508-19.7754 14.9609-19.7754Q12.8711-19.7754 10.9717-19.126Q9.07227-18.4766 7.48535-17.2998Q5.89844-16.123 4.72168-14.5312Q3.54492-12.9395 2.90039-11.04Q2.25586-9.14062 2.25586-7.05078Q2.25586-4.9707 2.90527-3.06641Q3.55469-1.16211 4.72656 0.429688Q5.89844 2.02148 7.49023 3.19336Q9.08203 4.36523 10.9814 5.01465Q12.8809 5.66406 14.9707 5.66406ZM14.9707 3.84766Q13.1641 3.84766 11.5283 3.2959Q9.89258 2.74414 8.53516 1.74805Q7.17773 0.751953 6.17676-0.610352Q5.17578-1.97266 4.62891-3.6084Q4.08203-5.24414 4.08203-7.05078Q4.08203-8.86719 4.62891-10.5029Q5.17578-12.1387 6.17188-13.501Q7.16797-14.8633 8.52539-15.8594Q9.88281-16.8555 11.5186-17.4023Q13.1543-17.9492 14.9609-17.9492Q16.7773-17.9492 18.4131-17.4023Q20.0488-16.8555 21.4111-15.8594Q22.7734-14.8633 23.7695-13.501Q24.7656-12.1387 25.3174-10.5029Q25.8691-8.86719 25.8691-7.05078Q25.8789-5.24414 25.332-3.6084Q24.7852-1.97266 23.7842-0.610352Q22.7832 0.751953 21.4209 1.74805Q20.0586 2.74414 18.4229 3.2959Q16.7871 3.84766 14.9707 3.84766ZM9.19922-7.05078Q9.19922-6.66992 9.45801-6.4209Q9.7168-6.17188 10.1172-6.17188L14.0625-6.17188L14.0625-2.2168Q14.0625-1.81641 14.3115-1.55762Q14.5605-1.29883 14.9512-1.29883Q15.3516-1.29883 15.6104-1.55273Q15.8691-1.80664 15.8691-2.2168L15.8691-6.17188L19.8242-6.17188Q20.2246-6.17188 20.4785-6.4209Q20.7324-6.66992 20.7324-7.05078Q20.7324-7.46094 20.4785-7.71484Q20.2246-7.96875 19.8242-7.96875L15.8691-7.96875L15.8691-11.9141Q15.8691-12.3242 15.6104-12.583Q15.3516-12.8418 14.9512-12.8418Q14.5605-12.8418 14.3115-12.583Q14.0625-12.3242 14.0625-11.9141L14.0625-7.96875L10.1172-7.96875Q9.70703-7.96875 9.45312-7.71484Q9.19922-7.46094 9.19922-7.05078Z"/>
  </g>
  <text style="stroke:none;fill:black;font-family:sans-serif;font-size:13;font-weight:bold;" transform="matrix(1 0 0 1 263 1953)">Design Variations</text>
  <text style="stroke:none;fill:black;font-family:sans-serif;font-size:13;" transform="matrix(1 0 0 1 263 1971)">Symbols are supported in up to nine weights and three scales.</text>
  <text style="stroke:none;fill:black;font-family:sans-serif;font-size:13;" transform="matrix(1 0 0 1 263 1989)">For optimal layout with text and other symbols, vertically align</text>
  <text style="stroke:none;fill:black;font-family:sans-serif;font-size:13;" transform="matrix(1 0 0 1 263 2007)">symbols with the adjacent text.</text>
  <line style="fill:none;stroke:#00AEEF;stroke-width:0.5;opacity:1.0;" x1="776" x2="776" y1="1919" y2="1933"/>
  <g transform="matrix(1 0 0 1 776 1933)">
   <path d="M3.31055 0.15625Q3.70117 0.15625 3.91602-0.00976562Q4.13086-0.175781 4.26758-0.585938L5.52734-4.0332L11.2891-4.0332L12.5488-0.585938Q12.6855-0.175781 12.9004-0.00976562Q13.1152 0.15625 13.4961 0.15625Q13.8867 0.15625 14.1162-0.0585938Q14.3457-0.273438 14.3457-0.644531Q14.3457-0.869141 14.2383-1.17188L9.6582-13.3691Q9.48242-13.8184 9.17969-14.043Q8.87695-14.2676 8.4082-14.2676Q7.5-14.2676 7.17773-13.3789L2.59766-1.16211Q2.49023-0.859375 2.49023-0.634766Q2.49023-0.263672 2.70996-0.0537109Q2.92969 0.15625 3.31055 0.15625ZM6.00586-5.51758L8.37891-12.0898L8.42773-12.0898L10.8008-5.51758Z"/>
  </g>
  <line style="fill:none;stroke:#00AEEF;stroke-width:0.5;opacity:1.0;" x1="793.197" x2="793.197" y1="1919" y2="1933"/>
  <text style="stroke:none;fill:black;font-family:sans-serif;font-size:13;font-weight:bold;" transform="matrix(1 0 0 1 776 1953)">Margins</text>
  <text style="stroke:none;fill:black;font-family:sans-serif;font-size:13;" transform="matrix(1 0 0 1 776 1971)">Leading and trailing margins on the left and right side of each symbol</text>
  <text style="stroke:none;fill:black;font-family:sans-serif;font-size:13;" transform="matrix(1 0 0 1 776 1989)">can be adjusted by modifying the x-location of the margin guidelines.</text>
  <text style="stroke:none;fill:black;font-family:sans-serif;font-size:13;" transform="matrix(1 0 0 1 776 2007)">Modifications are automatically applied proportionally to all</text>
  <text style="stroke:none;fill:black;font-family:sans-serif;font-size:13;" transform="matrix(1 0 0 1 776 2025)">scales and weights.</text>
  <g transform="matrix(1 0 0 1 1289 1933)">
   <path d="M2.8418 1.86523L4.54102 3.57422Q5.18555 4.22852 5.90332 4.17969Q6.62109 4.13086 7.31445 3.35938L18.0078-8.42773L17.041-9.4043L6.42578 2.27539Q6.16211 2.57812 5.89355 2.61719Q5.625 2.65625 5.27344 2.30469L4.10156 1.14258Q3.75 0.791016 3.79395 0.522461Q3.83789 0.253906 4.14062-0.0195312L15.6152-10.8203L14.6387-11.7871L3.04688-0.898438Q2.30469-0.214844 2.25098 0.498047Q2.19727 1.21094 2.8418 1.86523ZM9.25781-16.3281Q8.94531-16.0254 8.90625-15.6348Q8.86719-15.2441 9.04297-14.9512Q9.21875-14.6777 9.55566-14.541Q9.89258-14.4043 10.3809-14.5215Q11.4746-14.7754 12.5977-14.7314Q13.7207-14.6875 14.7949-13.9844L14.209-12.5293Q13.9551-11.9043 14.0674-11.4404Q14.1797-10.9766 14.5801-10.5664L16.875-8.25195Q17.2363-7.88086 17.5781-7.82227Q17.9199-7.76367 18.3398-7.8418L19.4043-8.03711L20.0684-7.36328L20.0293-6.80664Q20-6.43555 20.1221-6.12305Q20.2441-5.81055 20.6055-5.44922L21.3672-4.70703Q21.7285-4.3457 22.1533-4.33105Q22.5781-4.31641 22.9297-4.66797L25.8398-7.58789Q26.1914-7.93945 26.1816-8.35449Q26.1719-8.76953 25.8105-9.13086L25.0391-9.89258Q24.6875-10.2539 24.3799-10.3857Q24.0723-10.5176 23.7109-10.4883L23.1348-10.4395L22.4902-11.0742L22.7344-12.1973Q22.832-12.6172 22.6953-12.9834Q22.5586-13.3496 22.1191-13.7891L19.9219-15.9766Q18.6719-17.2168 17.2607-17.8369Q15.8496-18.457 14.4189-18.4814Q12.9883-18.5059 11.665-17.959Q10.3418-17.4121 9.25781-16.3281ZM10.752-15.957Q11.6602-16.6211 12.7002-16.9043Q13.7402-17.1875 14.8047-17.085Q15.8691-16.9824 16.8701-16.5137Q17.8711-16.0449 18.7012-15.2051L21.1328-12.793Q21.3086-12.6172 21.3525-12.4512Q21.3965-12.2852 21.3379-12.0312L21.0156-10.5469L22.5195-9.0625L23.5059-9.12109Q23.6914-9.13086 23.7891-9.09668Q23.8867-9.0625 24.0332-8.91602L24.6094-8.33984L22.168-5.89844L21.5918-6.47461Q21.4453-6.62109 21.4062-6.71875Q21.3672-6.81641 21.377-7.01172L21.4453-7.98828L19.9512-9.47266L18.4277-9.21875Q18.1836-9.16992 18.042-9.2041Q17.9004-9.23828 17.7148-9.41406L15.7129-11.416Q15.5176-11.5918 15.4932-11.7529Q15.4688-11.9141 15.5859-12.1875L16.4648-14.2773Q15.293-15.3711 13.8281-15.791Q12.3633-16.2109 10.8398-15.7617Q10.7227-15.7324 10.6885-15.8057Q10.6543-15.8789 10.752-15.957Z"/>
  </g>
  <text style="stroke:none;fill:black;font-family:sans-serif;font-size:13;font-weight:bold;" transform="matrix(1 0 0 1 1289 1953)">Exporting</text>
  <text style="stroke:none;fill:black;font-family:sans-serif;font-size:13;" transform="matrix(1 0 0 1 1289 1971)">Symbols should be outlined when exporting to ensure the</text>
  <text style="stroke:none;fill:black;font-family:sans-serif;font-size:13;" transform="matrix(1 0 0 1 1289 1989)">design is preserved when submitting to Xcode.</text>
  <text id="template-version" style="stroke:none;fill:black;font-family:sans-serif;font-size:13;text-anchor:end;" transform="matrix(1 0 0 1 3036 1933)">Template v.3.0</text>
  <text style="stroke:none;fill:black;font-family:sans-serif;font-size:13;text-anchor:end;" transform="matrix(1 0 0 1 3036 1951)">Requires Xcode 13 or greater</text>
  <text id="descriptive-name" style="stroke:none;fill:black;font-family:sans-serif;font-size:13;text-anchor:end;" transform="matrix(1 0 0 1 3036 1969)">Generated from dollarsign.square</text>
  <text style="stroke:none;fill:black;font-family:sans-serif;font-size:13;text-anchor:end;" transform="matrix(1 0 0 1 3036 1987)">Typeset at 100 points</text>
  <text style="stroke:none;fill:black;font-family:sans-serif;font-size:13;" transform="matrix(1 0 0 1 263 726)">Small</text>
  <text style="stroke:none;fill:black;font-family:sans-serif;font-size:13;" transform="matrix(1 0 0 1 263 1156)">Medium</text>
  <text style="stroke:none;fill:black;font-family:sans-serif;font-size:13;" transform="matrix(1 0 0 1 263 1586)">Large</text>
 </g>
 <g id="Guides">
  <g id="H-reference" style="fill:#27AAE1;stroke:none;" transform="matrix(1 0 0 1 339 696)">
   <path d="M0.993347 0L3.6377 0L29.3282-67.1326L30.0301-67.1326L30.0301-70.459L28.1227-70.459ZM11.6882-24.4797L46.9818-24.4797L46.2311-26.7288L12.4382-26.7288ZM55.1193 0L57.7637 0L30.6381-70.459L29.4327-70.459L29.4327-67.1326Z"/>
  </g>
  <line id="Baseline-S" style="fill:none;stroke:#27AAE1;opacity:1;stroke-width:0.5;" x1="263" x2="3036" y1="696" y2="696"/>
  <line id="Capline-S" style="fill:none;stroke:#27AAE1;opacity:1;stroke-width:0.5;" x1="263" x2="3036" y1="625.541" y2="625.541"/>
  <g id="H-reference" style="fill:#27AAE1;stroke:none;" transform="matrix(1 0 0 1 339 1126)">
   <path d="M0.993347 0L3.6377 0L29.3282-67.1326L30.0301-67.1326L30.0301-70.459L28.1227-70.459ZM11.6882-24.4797L46.9818-24.4797L46.2311-26.7288L12.4382-26.7288ZM55.1193 0L57.7637 0L30.6381-70.459L29.4327-70.459L29.4327-67.1326Z"/>
  </g>
  <line id="Baseline-M" style="fill:none;stroke:#27AAE1;opacity:1;stroke-width:0.5;" x1="263" x2="3036" y1="1126" y2="1126"/>
  <line id="Capline-M" style="fill:none;stroke:#27AAE1;opacity:1;stroke-width:0.5;" x1="263" x2="3036" y1="1055.54" y2="1055.54"/>
  <g id="H-reference" style="fill:#27AAE1;stroke:none;" transform="matrix(1 0 0 1 339 1556)">
   <path d="M0.993347 0L3.6377 0L29.3282-67.1326L30.0301-67.1326L30.0301-70.459L28.1227-70.459ZM11.6882-24.4797L46.9818-24.4797L46.2311-26.7288L12.4382-26.7288ZM55.1193 0L57.7637 0L30.6381-70.459L29.4327-70.459L29.4327-67.1326Z"/>
  </g>
  <line id="Baseline-L" style="fill:none;stroke:#27AAE1;opacity:1;stroke-width:0.5;" x1="263" x2="3036" y1="1556" y2="1556"/>
  <line id="Capline-L" style="fill:none;stroke:#27AAE1;opacity:1;stroke-width:0.5;" x1="263" x2="3036" y1="1485.54" y2="1485.54"/>
  <line id="left-margin-Regular-M" style="fill:none;stroke:#00AEEF;stroke-width:0.5;opacity:1.0;" x1="1392.45" x2="1392.45" y1="1030.79" y2="1150.12"/>
  <line id="right-margin-Regular-M" style="fill:none;stroke:#00AEEF;stroke-width:0.5;opacity:1.0;" x1="1507.24" x2="1507.24" y1="1030.79" y2="1150.12"/>
 </g>
 <g id="Symbols">
  <g id="Black-L" transform="matrix(1 0 0 1 2855.72 1556)">
   <path d="M39.8559 26.4225L115.512 26.4225Q126.881 26.4225 133.083 20.23Q139.284 14.0375 139.284 2.71277L139.284-73.0901Q139.284-84.4148 133.083-90.6066Q126.881-96.7985 115.512-96.7985L39.8559-96.7985Q28.5079-96.7985 22.2959-90.6073Q16.084-84.4161 16.084-73.0901L16.084 2.71277Q16.084 14.0401 22.2959 20.2313Q28.5079 26.4225 39.8559 26.4225ZM42.5866 6.42133Q39.3787 6.42133 37.7216 4.87256Q36.0645 3.3238 36.0645-0.121591L36.0645-70.2544Q36.0645-73.7375 37.7216-75.2674Q39.3787-76.7973 42.5866-76.7973L112.782-76.7973Q116.045-76.7973 117.675-75.2674Q119.304-73.7375 119.304-70.2544L119.304-0.121591Q119.304 3.3238 117.675 4.87256Q116.045 6.42133 112.782 6.42133ZM77.6945-1.69459Q80.2444-1.69459 80.2444-4.38073L80.2444-8.01595Q89.0098-8.67618 94.3345-13.2078Q99.6593-17.7394 99.6593-25.0578Q99.6593-31.5758 95.591-35.2951Q91.5227-39.0144 83.2472-40.6788L80.2444-41.2913L80.2444-51.2622Q82.0878-50.8551 83.4024-49.8498Q84.717-48.8445 85.5004-47.2333Q87.9398-43.2961 92.0226-43.2961Q94.9056-43.2961 96.5468-44.7731Q98.1881-46.2501 98.1881-48.6684Q98.1881-49.382 98.0499-50.0962Q97.9117-50.8104 97.6937-51.4876Q96.3538-55.6559 91.9015-58.7779Q87.4492-61.8998 80.2444-62.5004L80.2444-66.3394Q80.2444-69.0048 77.6945-69.0048Q75.1252-69.0048 75.1252-66.3394L75.1252-62.5004Q66.7647-61.9946 61.4597-57.5338Q56.1548-53.0729 56.1548-45.9085Q56.1548-39.3838 60.3082-35.5812Q64.4616-31.7787 72.2804-30.0861L75.1252-29.4775L75.1252-19.1386Q72.6749-19.486 71.2352-20.5982Q69.7955-21.7104 69.0925-23.2711Q68.0493-25.2585 66.5365-26.3307Q65.0237-27.403 62.7467-27.403Q59.6509-27.403 57.9707-25.7514Q56.2905-24.0998 56.2905-21.4673Q56.2905-20.7914 56.4287-20.048Q56.5669-19.3046 56.9017-18.5106Q58.2844-14.8149 62.7559-11.6398Q67.2275-8.46457 75.1252-7.97956L75.1252-4.38073Q75.1252-1.69459 77.6945-1.69459ZM75.1252-42.5194L74.7036-42.6206Q72.2896-43.2467 71.0644-44.335Q69.8392-45.4234 69.8392-47.0842Q69.8392-48.8098 71.2621-49.987Q72.6851-51.1641 75.1252-51.4375ZM80.2444-28.3285L80.9106-28.182Q83.6696-27.5559 84.8424-26.5027Q86.0152-25.4494 86.0152-23.6849Q86.0152-21.7726 84.519-20.6183Q83.0227-19.464 80.2444-19.1386Z"/>
  </g>
  <g id="Heavy-L" transform="matrix(1 0 0 1 2559.92 1556)">
   <path d="M38.8328 25.5158L114.704 25.5158Q125.682 25.5158 131.567 19.6396Q137.452 13.7633 137.452 2.85629L137.452-73.2288Q137.452-84.1358 131.567-90.0091Q125.682-95.8823 114.704-95.8823L38.8328-95.8823Q27.8839-95.8823 21.984-90.0121Q16.084-84.1419 16.084-73.2288L16.084 2.85629Q16.084 13.7754 21.984 19.6456Q27.8839 25.5158 38.8328 25.5158ZM40.957 7.98818Q37.3499 7.98818 35.4659 6.20086Q33.5818 4.41354 33.5818 0.583243L33.5818-70.9497Q33.5818-74.7949 35.4659-76.5748Q37.3499-78.3547 40.957-78.3547L112.579-78.3547Q116.219-78.3547 118.087-76.5748Q119.954-74.7949 119.954-70.9497L119.954 0.583243Q119.954 4.41354 118.087 6.20086Q116.219 7.98818 112.579 7.98818ZM76.783-1.15598Q79.3943-1.15598 79.3943-3.88022L79.3943-7.72406Q87.8345-8.37907 93.0807-12.8256Q98.3268-17.2722 98.3268-24.5236Q98.3268-30.9889 94.2525-34.7415Q90.1782-38.4941 81.9312-40.1085L79.3943-40.6207L79.3943-52.4894Q81.6464-52.0366 83.2256-50.7885Q84.8049-49.5403 85.6059-47.5275Q87.7126-43.8183 91.4571-43.8183Q94.0255-43.8183 95.5047-45.1816Q96.9839-46.5448 96.9839-48.7683Q96.9839-49.4172 96.8619-50.0692Q96.7398-50.7211 96.5404-51.3612Q95.2332-55.7491 90.7878-58.9124Q86.3424-62.0758 79.3943-62.6802L79.3943-66.657Q79.3943-69.3515 76.783-69.3515Q74.148-69.3515 74.148-66.657L74.148-62.6802Q66.0689-62.1292 60.936-57.738Q55.8031-53.3467 55.8031-46.3724Q55.8031-39.9969 59.919-36.225Q64.0348-32.4531 71.8533-30.7196L74.148-30.2255L74.148-17.8316Q71.2349-18.2338 69.5139-19.6192Q67.7928-21.0047 67.0723-22.9825Q66.1588-24.8578 64.7898-25.8536Q63.4207-26.8493 61.3609-26.8493Q58.6438-26.8493 57.1305-25.3552Q55.6171-23.8612 55.6171-21.4829Q55.6171-20.8489 55.7391-20.1746Q55.8611-19.5003 56.1498-18.771Q57.5226-14.6708 62.0649-11.4536Q66.6073-8.23638 74.148-7.71523L74.148-3.88022Q74.148-1.15598 76.783-1.15598ZM74.148-41.9159L73.7222-42.0261Q70.8444-42.8043 69.4144-44.0982Q67.9844-45.3921 67.9844-47.3542Q67.9844-49.3911 69.647-50.8179Q71.3097-52.2448 74.148-52.6232ZM79.3943-29.0047L80.226-28.8169Q83.4673-28.0387 84.8199-26.7476Q86.1725-25.4565 86.1725-23.3721Q86.1725-21.094 84.4292-19.646Q82.6859-18.198 79.3943-17.8316Z"/>
  </g>
  <g id="Bold-L" transform="matrix(1 0 0 1 2264.35 1556)">
   <path d="M37.5443 24.3864L113.709 24.3864Q124.174 24.3864 129.672 18.8927Q135.17 13.3991 135.17 3.03698L135.17-73.4013Q135.17-83.7634 129.672-89.2499Q124.174-94.7365 113.709-94.7365L37.5443-94.7365Q27.1168-94.7365 21.6004-89.257Q16.084-83.7776 16.084-73.4013L16.084 3.03698Q16.084 13.4275 21.6004 18.9069Q27.1168 24.3864 37.5443 24.3864ZM38.9901 9.91361Q34.8616 9.91361 32.6907 7.82346Q30.5198 5.73331 30.5198 1.40624L30.5198-71.7564Q30.5198-76.0756 32.6907-78.1697Q34.8616-80.2637 38.9901-80.2637L112.264-80.2637Q116.393-80.2637 118.564-78.1697Q120.734-76.0756 120.734-71.7564L120.734 1.40624Q120.734 5.73331 118.564 7.82346Q116.393 9.91361 112.264 9.91361ZM75.6454-0.619652Q78.2707-0.619652 78.2707-3.32609L78.2707-7.43782Q86.3673-8.07549 91.5154-12.4254Q96.6635-16.7754 96.6635-23.903Q96.6635-30.269 92.5998-34.0373Q88.5361-37.8056 80.3382-39.3757L78.2707-39.79L78.2707-53.9542Q81.0605-53.4561 82.9876-51.9061Q84.9147-50.3561 85.721-47.8595Q87.4211-44.4602 90.7324-44.4602Q92.9086-44.4602 94.1835-45.6731Q95.4584-46.8859 95.4584-48.8569Q95.4584-49.4278 95.3559-50.0058Q95.2534-50.5838 95.0776-51.1767Q93.8185-55.793 89.3808-59.0026Q84.9431-62.2122 78.2707-62.8064L78.2707-66.9375Q78.2707-69.6069 75.6454-69.6069Q72.9974-69.6069 72.9974-66.9375L72.9974-62.8064Q65.2531-62.2194 60.3084-57.9189Q55.3637-53.6185 55.3637-46.8885Q55.3637-40.7201 59.4232-36.9969Q63.4827-33.2737 71.2919-31.5031L72.9974-31.1314L72.9974-16.2459Q69.5031-16.7006 67.4056-18.432Q65.308-20.1634 64.5821-22.677Q63.8339-24.3924 62.6502-25.2896Q61.4664-26.1868 59.6726-26.1868Q57.4166-26.1868 56.1157-24.8934Q54.8148-23.6 54.8148-21.535Q54.8148-20.9563 54.9173-20.3637Q55.0198-19.7711 55.2541-19.1198Q56.6013-14.5643 61.2157-11.2871Q65.8301-8.0099 72.9974-7.45983L72.9974-3.32609Q72.9974-0.619652 75.6454-0.619652ZM72.9974-41.1257L72.5725-41.2431Q69.0953-42.2001 67.3873-43.7441Q65.6792-45.2881 65.6792-47.6361Q65.6792-50.0845 67.6676-51.8209Q69.656-53.5573 72.9974-54.0418ZM78.2707-29.8619L79.2874-29.6278Q83.1517-28.6709 84.7601-27.0907Q86.3686-25.5104 86.3686-23.0165Q86.3686-20.2743 84.2827-18.4618Q82.1968-16.6494 78.2707-16.2459Z"/>
  </g>
  <g id="Semibold-L" transform="matrix(1 0 0 1 1968.43 1556)">
   <path d="M36.6561 23.6077L113.024 23.6077Q123.134 23.6077 128.365 18.3778Q133.596 13.1479 133.596 3.16154L133.596-73.5202Q133.596-83.5066 128.365-88.7266Q123.134-93.9466 113.024-93.9466L36.6561-93.9466Q26.588-93.9466 21.336-88.7365Q16.084-83.5265 16.084-73.5202L16.084 3.16154Q16.084 13.1877 21.336 18.3977Q26.588 23.6077 36.6561 23.6077ZM37.6342 11.241Q33.1463 11.241 30.7775 8.94207Q28.4088 6.64315 28.4088 1.97361L28.4088-72.3124Q28.4088-76.9586 30.7775-79.2692Q33.1463-81.5798 37.6342-81.5798L112.046-81.5798Q116.513-81.5798 118.892-79.2692Q121.272-76.9586 121.272-72.3124L121.272 1.97361Q121.272 6.64315 118.892 8.94207Q116.513 11.241 112.046 11.241ZM74.8611-0.249913Q77.4961-0.249913 77.4961-2.94407L77.4961-7.24049Q85.3559-7.86621 90.4363-12.1495Q95.5168-16.4329 95.5168-23.4751Q95.5168-29.7728 91.4604-33.5518Q87.4041-37.3309 79.24-38.8704L77.4961-39.2174L77.4961-54.964Q80.6566-54.4347 82.8235-52.6766Q84.9905-50.9185 85.8004-48.0884Q87.2202-44.9026 90.2328-44.9026Q92.1386-44.9026 93.2727-46.0119Q94.4067-47.1211 94.4067-48.9181Q94.4067-49.4351 94.3177-49.9621Q94.2286-50.4891 94.0691-51.0495Q92.8433-55.8232 88.4109-59.0647Q83.9785-62.3062 77.4961-62.8935L77.4961-67.1308Q77.4961-69.783 74.8611-69.783Q72.2041-69.783 72.2041-67.1308L72.2041-62.8935Q64.6907-62.2815 59.8757-58.0437Q55.0607-53.8058 55.0607-47.2443Q55.0607-41.2187 59.0814-37.529Q63.102-33.8394 70.9049-32.0432L72.2041-31.7559L72.2041-15.1527Q68.3093-15.6436 65.9521-17.6135Q63.595-19.5834 62.8654-22.4664Q62.2312-24.0715 61.1751-24.9008Q60.1191-25.73 58.5086-25.73Q56.5705-25.73 55.4161-24.575Q54.2617-23.4199 54.2617-21.5708Q54.2617-21.0304 54.3508-20.4941Q54.4399-19.9578 54.6365-19.3603Q55.9662-14.4909 60.6302-11.1723Q65.2943-7.85376 72.2041-7.28377L72.2041-2.94407Q72.2041-0.249913 74.8611-0.249913ZM72.2041-40.581L71.7799-40.7034Q67.8895-41.7835 65.9898-43.4999Q64.0901-45.2163 64.0901-47.8304Q64.0901-50.5625 66.303-52.5123Q68.516-54.4622 72.2041-55.0197ZM77.4961-30.4528L78.6403-30.1869Q82.9341-29.1067 84.719-27.3272Q86.5038-25.5476 86.5038-22.7714Q86.5038-19.7093 84.1817-17.6455Q81.8597-15.5817 77.4961-15.1527Z"/>
  </g>
  <g id="Medium-L" transform="matrix(1 0 0 1 1672.31 1556)">
   <path d="M35.9826 23.0174L112.505 23.0174Q122.346 23.0174 127.375 17.9874Q132.403 12.9575 132.403 3.25599L132.403-73.6104Q132.403-83.3119 127.375-88.3298Q122.346-93.3476 112.505-93.3476L35.9826-93.3476Q26.187-93.3476 21.1355-88.3419Q16.084-83.3361 16.084-73.6104L16.084 3.25599Q16.084 13.0058 21.1355 18.0116Q26.187 23.0174 35.9826 23.0174ZM36.606 12.2475Q31.8456 12.2475 29.3269 9.79025Q26.8081 7.33303 26.8081 2.40381L26.8081-72.7341Q26.8081-77.628 29.3269-80.1029Q31.8456-82.5777 36.606-82.5777L111.881-82.5777Q116.604-82.5777 119.141-80.1029Q121.679-77.628 121.679-72.7341L121.679 2.40381Q121.679 7.33303 119.141 9.79025Q116.604 12.2475 111.881 12.2475ZM74.2665 0.030439Q76.9087 0.030439 76.9087-2.65441L76.9087-7.09087Q84.5889-7.70752 89.6181-11.9404Q94.6474-16.1732 94.6474-23.1507Q94.6474-29.3965 90.5965-33.1837Q86.5457-36.971 78.4074-38.4873L76.9087-38.7831L76.9087-55.7297Q80.3503-55.1767 82.6991-53.2608Q85.0479-51.3449 85.8606-48.2619Q87.0678-45.2381 89.854-45.2381Q91.5548-45.2381 92.582-46.2688Q93.6093-47.2995 93.6093-48.9644Q93.6093-49.4407 93.5304-49.929Q93.4516-50.4174 93.3044-50.953Q92.1038-55.8461 87.6754-59.1118Q83.2471-62.3775 76.9087-62.9595L76.9087-67.2774Q76.9087-69.9165 74.2665-69.9165Q71.6027-69.9165 71.6027-67.2774L71.6027-62.9595Q64.2643-62.3286 59.5477-58.1383Q54.831-53.9479 54.831-47.514Q54.831-41.5968 58.8222-37.9325Q62.8133-34.2683 70.6115-32.4528L71.6027-32.2294L71.6027-14.3238Q67.404-14.8421 64.8501-16.9929Q62.2961-19.1436 61.5638-22.3067Q61.0159-23.8282 60.0567-24.6059Q59.0975-25.3837 57.6261-25.3837Q55.929-25.3837 54.8857-24.3336Q53.8424-23.2834 53.8424-21.598Q53.8424-21.0865 53.9212-20.5929Q54.0001-20.0993 54.1683-19.5426Q55.4846-14.4352 60.1863-11.0853Q64.888-7.73537 71.6027-7.15026L71.6027-2.65441Q71.6027 0.030439 74.2665 0.030439ZM71.6027-40.1679L71.179-40.2941Q66.9752-41.4677 64.9302-43.3148Q62.8852-45.1619 62.8852-47.9778Q62.8852-50.9249 65.2684-53.0366Q67.6515-55.1483 71.6027-55.7612ZM76.9087-30.9009L78.1497-30.6108Q82.7692-29.4371 84.6877-27.5065Q86.6063-25.5758 86.6063-22.5855Q86.6063-19.2809 84.1052-17.0265Q81.6041-14.7722 76.9087-14.3238Z"/>
  </g>
  <g id="Regular-L" transform="matrix(1 0 0 1 1376.38 1556)">
   <path d="M35.1041 22.2473L111.827 22.2473Q121.318 22.2473 126.082 17.4782Q130.847 12.7092 130.847 3.37919L130.847-73.728Q130.847-83.058 126.082-87.8122Q121.318-92.5664 111.827-92.5664L35.1041-92.5664Q25.664-92.5664 20.874-87.8271Q16.084-83.0877 16.084-73.728L16.084 3.37919Q16.084 12.7686 20.874 17.508Q25.664 22.2473 35.1041 22.2473ZM35.265 13.5603Q30.1491 13.5603 27.4347 10.8966Q24.7203 8.23287 24.7203 2.96494L24.7203-73.284Q24.7203-78.5013 27.4347-81.1903Q30.1491-83.8794 35.265-83.8794L111.666-83.8794Q116.722-83.8794 119.467-81.1903Q122.211-78.5013 122.211-73.284L122.211 2.96494Q122.211 8.23287 119.467 10.8966Q116.722 13.5603 111.666 13.5603ZM73.4908 0.396115Q76.1426 0.396115 76.1426-2.27659L76.1426-6.89571Q83.5886-7.50054 88.5509-11.6675Q93.5133-15.8345 93.5133-22.7275Q93.5133-28.9056 89.4697-32.7036Q85.4261-36.5016 77.3212-37.9876L76.1426-38.2168L76.1426-56.7284Q79.9508-56.1445 82.5368-54.0228Q85.1228-51.9011 85.9392-48.4883Q86.869-45.6757 89.3599-45.6757Q90.7933-45.6757 91.6812-46.6039Q92.5692-47.5321 92.5692-49.0249Q92.5692-49.4479 92.5036-49.8858Q92.4381-50.3237 92.307-50.8272Q91.1392-55.8761 86.7161-59.1733Q82.293-62.4705 76.1426-63.0456L76.1426-67.4687Q76.1426-70.0907 73.4908-70.0907Q70.8181-70.0907 70.8181-67.4687L70.8181-63.0456Q63.7081-62.3901 59.1197-58.2616Q54.5314-54.1332 54.5314-47.8659Q54.5314-42.0899 58.4841-38.4589Q62.4369-34.8278 70.2288-32.9869L70.8181-32.8471L70.8181-13.2426Q66.2233-13.7967 63.4126-16.1834Q60.6019-18.57 59.8659-22.0984Q59.4307-23.5108 58.5979-24.2214Q57.765-24.932 56.4749-24.932Q55.0923-24.932 54.1938-24.0187Q53.2954-23.1054 53.2954-21.6335Q53.2954-21.1598 53.3609-20.7219Q53.4265-20.284 53.5576-19.7805Q54.8564-14.3626 59.6073-10.9718Q64.3581-7.58096 70.8181-6.97613L70.8181-2.27659Q70.8181 0.396115 73.4908 0.396115ZM70.8181-39.6291L70.3951-39.7602Q65.7827-41.0557 63.5481-43.0734Q61.3135-45.091 61.3135-48.17Q61.3135-51.3977 63.9188-53.7204Q66.524-56.0432 70.8181-56.7284ZM76.1426-31.4854L77.5097-31.1637Q82.554-29.8682 84.647-27.7404Q86.74-25.6126 86.74-22.343Q86.74-18.722 84.0053-16.2192Q81.2706-13.7163 76.1426-13.2426Z"/>
  </g>
  <g id="Light-L" transform="matrix(1 0 0 1 1080.5 1556)">
   <path d="M34.078 21.4264L111.191 21.4264Q120.127 21.4264 124.656 16.8626Q129.185 12.2987 129.185 3.52284L129.185-73.8511Q129.185-82.627 124.656-87.1657Q120.127-91.7045 111.191-91.7045L34.078-91.7045Q25.1715-91.7045 20.6277-87.1909Q16.084-82.6773 16.084-73.8511L16.084 3.52284Q16.084 12.3992 20.6277 16.9128Q25.1715 21.4264 34.078 21.4264ZM34.2389 14.7916Q28.5894 14.7916 25.639 11.8714Q22.6887 8.95114 22.6887 3.21121L22.6887-73.4893Q22.6887-79.199 25.639-82.1343Q28.5894-85.0696 34.2389-85.0696L111.03-85.0696Q116.579-85.0696 119.579-82.1343Q122.58-79.199 122.58-73.4893L122.58 3.21121Q122.58 8.95114 119.579 11.8714Q116.579 14.7916 111.03 14.7916ZM72.6494-0.0758902Q74.9113-0.0758902 74.9113-2.31764L74.9113-7.18302Q82.5009-7.70575 87.3914-11.8625Q92.282-16.0192 92.282-22.5634Q92.282-28.4542 88.3615-32.0982Q84.441-35.7422 76.4593-37.3104L74.9113-37.6421L74.9113-57.3851Q79.2941-56.8423 82.2495-54.5051Q85.2049-52.1679 85.9186-48.5088Q86.6022-46.0861 88.7032-46.0861Q89.8492-46.0861 90.573-46.8501Q91.2968-47.6142 91.2968-48.8607Q91.2968-49.2427 91.2415-49.6498Q91.1863-50.0569 91.0757-50.5194Q89.99-55.4451 85.5669-58.7423Q81.1438-62.0395 74.9113-62.512L74.9113-66.9351Q74.9113-69.1467 72.6494-69.1467Q70.4077-69.1467 70.4077-66.9351L70.4077-62.512Q63.4413-61.9591 58.8222-57.923Q54.2031-53.8869 54.2031-47.8454Q54.2031-42.3567 58.0532-38.8282Q61.9033-35.2998 69.6337-33.5205L70.4077-33.3396L70.4077-12.3602Q65.3614-12.8527 62.1094-15.5267Q58.8575-18.2006 58.2242-22.2216Q57.9326-23.3877 57.2742-24.0059Q56.6157-24.6241 55.4898-24.6241Q54.374-24.6241 53.6602-23.8853Q52.9465-23.1464 52.9465-21.8798Q52.9465-21.4676 53.0018-21.0605Q53.0571-20.6533 53.1677-20.1909Q54.3639-14.7525 59.0635-11.2694Q63.763-7.78617 70.4077-7.26344L70.4077-2.31764Q70.4077-0.0758902 72.6494-0.0758902ZM70.4077-38.8083L70.0257-38.9188Q64.8386-40.2759 62.2552-42.4372Q59.6717-44.5985 59.6717-48.0263Q59.6717-51.7055 62.6874-54.2437Q65.7032-56.782 70.4077-57.3851ZM74.9113-32.2036L76.2784-31.8819Q81.9178-30.5249 84.4007-28.2329Q86.8837-25.941 86.8837-22.302Q86.8837-18.2911 83.677-15.5317Q80.4703-12.7723 74.9113-12.3602Z"/>
  </g>
  <g id="Thin-L" transform="matrix(1 0 0 1 784.884 1556)">
   <path d="M32.7209 20.3407L110.349 20.3407Q118.553 20.3407 122.77 16.0483Q126.986 11.7559 126.986 3.71284L126.986-74.014Q126.986-82.057 122.77-86.3108Q118.553-90.5645 110.349-90.5645L32.7209-90.5645Q24.5201-90.5645 20.302-86.3495Q16.084-82.1344 16.084-74.014L16.084 3.71284Q16.084 11.9107 20.302 16.1257Q24.5201 20.3407 32.7209 20.3407ZM32.8818 16.4201Q26.5266 16.4201 23.2641 13.1606Q20.0016 9.9011 20.0016 3.53691L20.0016-73.7607Q20.0016-80.1218 23.2641-83.3829Q26.5266-86.6439 32.8818-86.6439L110.188-86.6439Q116.389-86.6439 119.729-83.3829Q123.069-80.1218 123.069-73.7607L123.069 3.53691Q123.069 9.9011 119.729 13.1606Q116.389 16.4201 110.188 16.4201ZM71.5366-0.700155Q73.2828-0.700155 73.2828-2.37192L73.2828-7.56301Q81.0624-7.97717 85.8579-12.1203Q90.6535-16.2634 90.6535-22.3462Q90.6535-27.857 86.8958-31.2975Q83.1382-34.738 75.3194-36.4147L73.2828-36.8822L73.2828-58.2537Q78.4256-57.7651 81.8695-55.1429Q85.3135-52.5208 85.8915-48.536Q86.2494-46.629 87.8347-46.629Q88.6007-46.629 89.1074-47.1759Q89.614-47.7227 89.614-48.6435Q89.614-48.9713 89.5723-49.3377Q89.5306-49.7041 89.4472-50.1122Q88.47-54.8751 84.047-58.1723Q79.6239-61.4695 73.2828-61.8063L73.2828-66.2294Q73.2828-67.8982 71.5366-67.8982Q69.8648-67.8982 69.8648-66.2294L69.8648-61.8063Q63.0884-61.3891 58.4286-57.4752Q53.7688-53.5612 53.7688-47.8182Q53.7688-42.7095 57.4832-39.3168Q61.1976-35.9241 68.8465-34.2262L69.8648-33.991L69.8648-11.1931Q64.2214-11.6042 60.3859-14.6581Q56.5504-17.7121 56.0528-22.3844Q55.9513-23.2248 55.5235-23.7209Q55.0958-24.217 54.187-24.217Q53.424-24.217 52.9546-23.7088Q52.4851-23.2007 52.4851-22.2055Q52.4851-21.8747 52.5268-21.5083Q52.5685-21.1419 52.652-20.7338Q53.7125-15.2682 58.3442-11.6629Q62.9759-8.05759 69.8648-7.64343L69.8648-2.37192Q69.8648-0.700155 71.5366-0.700155ZM69.8648-37.7226L69.5371-37.806Q63.5901-39.2445 60.5452-41.5958Q57.5004-43.9471 57.5004-47.8363Q57.5004-52.1126 61.0589-54.9358Q64.6175-57.7591 69.8648-58.2537ZM73.2828-33.1536L74.6499-32.8319Q81.0764-31.3934 84.075-28.8843Q87.0737-26.3752 87.0737-22.2477Q87.0737-17.7211 83.2427-14.6224Q79.4117-11.5238 73.2828-11.1931Z"/>
  </g>
  <g id="Ultralight-L" transform="matrix(1 0 0 1 488.735 1556)">
   <path d="M32.0258 19.7847L109.918 19.7847Q117.747 19.7847 121.803 15.6313Q125.86 11.4778 125.86 3.81015L125.86-74.0974Q125.86-81.7651 121.803-85.8729Q117.747-89.9806 109.918-89.9806L32.0258-89.9806Q24.1864-89.9806 20.1352-85.9185Q16.084-81.8564 16.084-74.0974L16.084 3.81015Q16.084 11.6604 20.1352 15.7226Q24.1864 19.7847 32.0258 19.7847ZM32.1867 17.2542Q25.4701 17.2542 22.0477 13.8209Q18.6253 10.3877 18.6253 3.70373L18.6253-73.8997Q18.6253-80.5945 22.0477-84.0223Q25.4701-87.4502 32.1867-87.4502L109.757-87.4502Q116.291-87.4502 119.805-84.0223Q123.319-80.5945 123.319-73.8997L123.319 3.70373Q123.319 10.3877 119.805 13.8209Q116.291 17.2542 109.757 17.2542ZM70.9666-1.0199Q72.4486-1.0199 72.4486-2.39972L72.4486-7.75763Q80.3256-8.11619 85.0724-12.2524Q89.8193-16.3886 89.8193-22.235Q89.8193-27.5512 86.1451-30.8874Q82.4709-34.2236 74.7355-35.956L72.4486-36.4929L72.4486-58.6985Q77.9807-58.2378 81.6749-55.4696Q85.3691-52.7015 85.8776-48.5499Q86.0687-46.907 87.3898-46.907Q87.9612-46.907 88.3567-47.3427Q88.7521-47.7783 88.7521-48.5323Q88.7521-48.8322 88.7173-49.1778Q88.6826-49.5234 88.613-49.9037Q87.6915-54.5832 83.2684-57.8804Q78.8453-61.1776 72.4486-61.4449L72.4486-65.868Q72.4486-67.2587 70.9666-67.2587Q69.5868-67.2587 69.5868-65.868L69.5868-61.4449Q62.9077-61.0972 58.227-57.2458Q53.5464-53.3944 53.5464-47.8043Q53.5464-42.8903 57.1912-39.567Q60.8361-36.2438 68.4434-34.5877L69.5868-34.3246L69.5868-10.5953Q63.6375-10.9647 59.5031-14.2133Q55.3688-17.4618 54.9407-22.4678Q54.9364-23.1414 54.6269-23.5749Q54.3173-24.0085 53.5197-24.0085Q52.9374-24.0085 52.5931-23.6185Q52.2488-23.2285 52.2488-22.3723Q52.2488-22.0833 52.2835-21.7377Q52.3183-21.3921 52.3878-21.0118Q53.3789-15.5324 57.9758-11.8645Q62.5727-8.19661 69.5868-7.83805L69.5868-2.39972Q69.5868-1.0199 70.9666-1.0199ZM69.5868-37.1665L69.2869-37.236Q62.9506-38.7162 59.6694-41.1648Q56.3882-43.6134 56.3882-47.739Q56.3882-52.3212 60.2248-55.2903Q64.0614-58.2595 69.5868-58.6985ZM72.4486-33.6402L73.8158-33.3185Q80.6454-31.8383 83.9082-29.218Q87.171-26.5977 87.171-22.2199Q87.171-17.4292 83.0203-14.1567Q78.8695-10.8843 72.4486-10.5953Z"/>
  </g>
  <g id="Black-M" transform="matrix(1 0 0 1 2872.54 1126)">
   <path d="M31.6183 13.203L90.1012 13.203Q99.1693 13.203 104.214 8.16134Q109.259 3.11973 109.259-5.93791L109.259-64.4591Q109.259-73.5167 104.214-78.5585Q99.1693-83.6003 90.1012-83.6003L31.6183-83.6003Q22.5558-83.6003 17.5084-78.5583Q12.4609-73.5164 12.4609-64.4591L12.4609-5.93791Q12.4609 3.11912 17.5084 8.16104Q22.5558 13.203 31.6183 13.203ZM34.2552-4.14063Q32.0406-4.14063 30.9198-5.17025Q29.799-6.19988 29.799-8.60232L29.799-61.795Q29.799-64.249 30.9198-65.2528Q32.0406-66.2567 34.2552-66.2567L87.4644-66.2567Q89.7367-66.2567 90.8286-65.2528Q91.9206-64.249 91.9206-61.795L91.9206-8.60232Q91.9206-6.19988 90.8286-5.17025Q89.7367-4.14063 87.4644-4.14063ZM60.8625-9.77545Q62.7325-9.77545 62.7325-11.7654L62.7325-14.4358Q69.8223-14.9407 74.0054-18.5232Q78.1886-22.1058 78.1886-27.7859Q78.1886-32.8421 75.0586-35.6741Q71.9285-38.5062 65.5093-39.8496L62.7325-40.4242L62.7325-46.6851Q63.8873-46.4144 64.7283-45.8151Q65.5694-45.2158 66.1472-44.2793Q68.2897-41.0857 71.6908-41.0857Q74.1558-41.0857 75.5444-42.3056Q76.9329-43.5255 76.9329-45.5331Q76.9329-46.136 76.8134-46.7386Q76.6938-47.3413 76.5118-47.8922Q75.4566-50.9161 72.0013-53.2993Q68.546-55.6825 62.7325-56.1306L62.7325-58.9864Q62.7325-60.9708 60.8625-60.9708Q58.9868-60.9708 58.9868-58.9864L58.9868-56.1306Q52.2872-55.7915 48.0252-52.2882Q43.7632-48.7848 43.7632-43.1015Q43.7632-37.9572 46.9994-34.9988Q50.2355-32.0404 56.2852-30.7726L58.9868-30.197L58.9868-23.7668Q57.4251-23.9807 56.4917-24.6465Q55.5582-25.3122 55.0426-26.2295Q54.1424-27.8322 52.8705-28.7162Q51.5986-29.6001 49.6701-29.6001Q46.9822-29.6001 45.5622-28.2088Q44.1422-26.8175 44.1422-24.5873Q44.1422-24.036 44.2617-23.4048Q44.3813-22.7736 44.6775-22.1085Q45.7434-19.5901 49.1398-17.1538Q52.5363-14.7175 58.9868-14.3839L58.9868-11.7654Q58.9868-9.77545 60.8625-9.77545ZM58.9868-41.2847L58.6695-41.3526Q57.12-41.7152 56.2995-42.4013Q55.479-43.0873 55.479-44.1623Q55.479-45.2929 56.431-46.0195Q57.383-46.746 58.9868-46.8564ZM62.7325-29.3991L63.1065-29.3212Q64.9101-28.9585 65.717-28.3247Q66.5238-27.6909 66.5238-26.5486Q66.5238-25.3288 65.513-24.6521Q64.5022-23.9755 62.7325-23.7668Z"/>
  </g>
  <g id="Heavy-M" transform="matrix(1 0 0 1 2576.65 1126)">
   <path d="M30.7128 12.3923L89.3692 12.3923Q98.107 12.3923 102.864 7.64094Q107.621 2.88957 107.621-5.81086L107.621-64.5834Q107.621-73.2838 102.864-78.0339Q98.107-82.7841 89.3692-82.7841L30.7128-82.7841Q21.9913-82.7841 17.2261-78.0352Q12.4609-73.2862 12.4609-64.5834L12.4609-5.81086Q12.4609 2.89446 17.2261 7.64338Q21.9913 12.3923 30.7128 12.3923ZM32.7568-2.72252Q30.2012-2.72252 28.8804-3.96168Q27.5595-5.20084 27.5595-7.93601L27.5595-62.4558Q27.5595-65.2183 28.8804-66.4438Q30.2012-67.6693 32.7568-67.6693L87.3253-67.6693Q89.9196-67.6693 91.221-66.4438Q92.5225-65.2183 92.5225-62.4558L92.5225-7.93601Q92.5225-5.20084 91.221-3.96168Q89.9196-2.72252 87.3253-2.72252ZM60.0491-9.20538Q62.015-9.20538 62.015-11.2723L62.015-14.124Q68.7737-14.6313 72.8867-18.1316Q76.9996-21.632 76.9996-27.2788Q76.9996-32.31 73.8523-35.1888Q70.7051-38.0676 64.3023-39.3546L62.015-39.8217L62.015-47.8241Q63.5163-47.505 64.582-46.6882Q65.6477-45.8714 66.2523-44.565Q68.0923-41.5584 71.1986-41.5584Q73.3825-41.5584 74.6278-42.6822Q75.8731-43.806 75.8731-45.6459Q75.8731-46.1893 75.7684-46.734Q75.6637-47.2786 75.4979-47.7971Q74.4672-51.047 71.0187-53.4707Q67.5701-55.8943 62.015-56.3556L62.015-59.3461Q62.015-61.3968 60.0491-61.3968Q58.0694-61.3968 58.0694-59.3461L58.0694-56.3556Q51.6316-55.9629 47.5407-52.519Q43.4497-49.0752 43.4497-43.5569Q43.4497-38.5319 46.6587-35.594Q49.8676-32.6561 55.9225-31.3426L58.0694-30.8828L58.0694-22.5706Q56.0969-22.8436 54.9292-23.75Q53.7615-24.6564 53.2192-25.936Q52.4325-27.4519 51.285-28.2696Q50.1375-29.0873 48.4062-29.0873Q46.064-29.0873 44.79-27.8338Q43.516-26.5804 43.516-24.5798Q43.516-24.0638 43.6207-23.4973Q43.7254-22.9309 43.9784-22.3251Q45.0441-19.4133 48.5145-16.9444Q51.985-14.4755 58.0694-14.099L58.0694-11.2723Q58.0694-9.20538 60.0491-9.20538ZM58.0694-40.7705L57.7441-40.8491Q55.7943-41.3548 54.8057-42.2285Q53.8172-43.1022 53.8172-44.4395Q53.8172-45.8327 54.9657-46.7835Q56.1142-47.7343 58.0694-47.955ZM62.015-29.9939L62.5508-29.8756Q64.771-29.3699 65.7177-28.5187Q66.6644-27.6675 66.6644-26.2467Q66.6644-24.7051 65.4556-23.765Q64.2468-22.8249 62.015-22.5706Z"/>
  </g>
  <g id="Bold-M" transform="matrix(1 0 0 1 2280.85 1126)">
   <path d="M29.6999 11.4855L88.5504 11.4855Q96.9187 11.4855 101.354 7.05878Q105.789 2.6321 105.789-5.66875L105.789-64.7224Q105.789-73.0233 101.354-77.4472Q96.9187-81.8711 88.5504-81.8711L29.6999-81.8711Q21.3597-81.8711 16.9103-77.4499Q12.4609-73.0288 12.4609-64.7224L12.4609-5.66875Q12.4609 2.64314 16.9103 7.0643Q21.3597 11.4855 29.6999 11.4855ZM31.0806-1.13616Q28.1436-1.13616 26.5989-2.60972Q25.0543-4.08328 25.0543-7.19066L25.0543-63.195Q25.0543-66.3027 26.5989-67.7761Q28.1436-69.2495 31.0806-69.2495L87.1696-69.2495Q90.1241-69.2495 91.66-67.7761Q93.1959-66.3027 93.1959-63.195L93.1959-7.19066Q93.1959-4.08328 91.66-2.60972Q90.1241-1.13616 87.1696-1.13616ZM59.1392-8.56766Q61.2125-8.56766 61.2125-10.7207L61.2125-13.7751Q67.6008-14.2852 71.6351-17.6936Q75.6695-21.102 75.6695-26.7116Q75.6695-31.7147 72.503-34.6458Q69.3365-37.5769 62.9522-38.8009L61.2125-39.1478L61.2125-49.0982Q63.1014-48.725 64.4184-47.6649Q65.7354-46.6047 66.3698-44.8846Q67.8714-42.0872 70.648-42.0872Q72.5175-42.0872 73.6026-43.1035Q74.6876-44.1198 74.6876-45.772Q74.6876-46.249 74.5995-46.7287Q74.5114-47.2085 74.3638-47.6907Q73.3605-51.1935 69.9194-53.6623Q66.4784-56.1312 61.2125-56.6072L61.2125-59.7485Q61.2125-61.8733 59.1392-61.8733Q57.0432-61.8733 57.0432-59.7485L57.0432-56.6072Q50.8983-56.1545 46.9987-52.7773Q43.099-49.4001 43.099-44.0663Q43.099-39.1749 46.2775-36.2599Q49.456-33.3449 55.5168-31.9803L57.0432-31.65L57.0432-21.2325Q54.6111-21.5716 53.1813-22.7472Q51.7515-23.9227 51.1794-25.6078Q50.5198-27.0264 49.5115-27.77Q48.5032-28.5135 46.9924-28.5135Q45.0369-28.5135 43.9262-27.4144Q42.8156-26.3152 42.8156-24.5715Q42.8156-24.0949 42.9037-23.6008Q42.9917-23.1068 43.1965-22.5675Q44.2618-19.2155 47.815-16.7101Q51.3682-14.2048 57.0432-13.7803L57.0432-10.7207Q57.0432-8.56766 59.1392-8.56766ZM57.0432-40.1953L56.709-40.2858Q54.3113-40.9515 53.1348-42.0351Q51.9583-43.1188 51.9583-44.7496Q51.9583-46.4366 53.3266-47.6382Q54.6949-48.8398 57.0432-49.1839ZM61.2125-30.6593L61.9291-30.4957Q64.6153-29.8301 65.7184-28.7357Q66.8216-27.6413 66.8216-25.9089Q66.8216-24.0074 65.3913-22.7726Q63.961-21.5379 61.2125-21.2325Z"/>
  </g>
  <g id="Semibold-M" transform="matrix(1 0 0 1 1984.77 1126)">
   <path d="M29.0015 10.8603L87.9858 10.8603Q96.0995 10.8603 100.313 6.65745Q104.526 2.45461 104.526-5.57077L104.526-64.8183Q104.526-72.8436 100.313-77.0427Q96.0995-81.2417 87.9858-81.2417L29.0015-81.2417Q20.9244-81.2417 16.6926-77.0465Q12.4609-72.8513 12.4609-64.8183L12.4609-5.57077Q12.4609 2.46989 16.6926 6.66509Q20.9244 10.8603 29.0015 10.8603ZM29.925-0.0425279Q26.725-0.0425279 25.0262-1.67768Q23.3273-3.31284 23.3273-6.67681L23.3273-63.7046Q23.3273-67.0502 25.0262-68.6945Q26.725-70.3389 29.925-70.3389L87.0623-70.3389Q90.2652-70.3389 91.9626-68.6945Q93.6601-67.0502 93.6601-63.7046L93.6601-6.67681Q93.6601-3.31284 91.9626-1.67768Q90.2652-0.0425279 87.0623-0.0425279ZM58.5119-8.12802Q60.6592-8.12802 60.6592-10.3405L60.6592-13.5346Q66.7922-14.0466 70.7724-17.3916Q74.7525-20.7366 74.7525-26.3205Q74.7525-31.3044 71.5728-34.2715Q68.393-37.2387 62.0215-38.4192L60.6592-38.6831L60.6592-49.9766Q62.8153-49.5661 64.3056-48.3382Q65.7958-47.1103 66.4508-45.105Q67.7191-42.4518 70.2684-42.4518Q71.9212-42.4518 72.8958-43.3939Q73.8703-44.3361 73.8703-45.859Q73.8703-46.2901 73.7937-46.7251Q73.717-47.1601 73.5819-47.6173Q72.5974-51.2944 69.1616-53.7945Q65.7258-56.2945 60.6592-56.7807L60.6592-60.0259Q60.6592-62.2019 58.5119-62.2019Q56.3358-62.2019 56.3358-60.0259L56.3358-56.7807Q50.3927-56.2866 46.625-52.9553Q42.8573-49.624 42.8573-44.4175Q42.8573-39.6181 46.0148-36.7189Q49.1723-33.8197 55.2371-32.4199L56.3358-32.1789L56.3358-20.31Q53.5868-20.6947 51.9764-22.0558Q50.3659-23.4169 49.7732-25.3815Q49.2012-26.7332 48.2888-27.4256Q47.3765-28.118 46.0178-28.118Q44.3288-28.118 43.3307-27.1252Q42.3327-26.1324 42.3327-24.5658Q42.3327-24.1163 42.4093-23.6722Q42.486-23.2281 42.6574-22.7346Q43.7225-19.0791 47.3328-16.5486Q50.943-14.0182 56.3358-13.5606L56.3358-10.3405Q56.3358-8.12802 58.5119-8.12802ZM56.3358-39.7987L55.9954-39.8976Q53.2889-40.6735 51.9828-41.9019Q50.6768-43.1302 50.6768-44.9634Q50.6768-46.8529 52.1966-48.2274Q53.7164-49.602 56.3358-50.0311ZM60.6592-31.118L61.5005-30.9232Q64.508-30.1473 65.719-28.8853Q66.9299-27.6233 66.9299-25.6761Q66.9299-23.5264 65.347-22.0885Q63.764-20.6506 60.6592-20.31Z"/>
  </g>
  <g id="Medium-M" transform="matrix(1 0 0 1 1688.54 1126)">
   <path d="M28.472 10.3863L87.5578 10.3863Q95.4783 10.3863 99.5236 6.35315Q103.569 2.32003 103.569-5.49648L103.569-64.8909Q103.569-72.7075 99.5236-76.736Q95.4783-80.7644 87.5578-80.7644L28.472-80.7644Q20.5942-80.7644 16.5276-76.7406Q12.4609-72.7167 12.4609-64.8909L12.4609-5.49648Q12.4609 2.33852 16.5276 6.36239Q20.5942 10.3863 28.472 10.3863ZM29.0488 0.786706Q25.6495 0.786706 23.8336-0.970977Q22.0177-2.72866 22.0177-6.28719L22.0177-64.091Q22.0177-67.617 23.8336-69.391Q25.6495-71.1649 29.0488-71.1649L86.981-71.1649Q90.3721-71.1649 92.1921-69.391Q94.0121-67.617 94.0121-64.091L94.0121-6.28719Q94.0121-2.72866 92.1921-0.970977Q90.3721 0.786706 86.981 0.786706ZM58.0363-7.79467Q60.2397-7.79467 60.2397-10.0522L60.2397-13.3523Q66.1791-13.8657 70.1182-17.1626Q74.0572-20.4595 74.0572-26.024Q74.0572-30.9933 70.8674-33.9877Q67.6776-36.9822 61.3157-38.1298L60.2397-38.3308L60.2397-50.6427Q62.5984-50.2038 64.22-48.8487Q65.8417-47.4937 66.5122-45.272Q67.6037-42.7282 69.9805-42.7282Q71.4691-42.7282 72.3598-43.6141Q73.2506-44.5001 73.2506-45.9249Q73.2506-46.3213 73.1827-46.7224Q73.1147-47.1235 72.9891-47.5617Q72.0189-51.371 68.587-53.8946Q65.1551-56.4183 60.2397-56.9122L60.2397-60.2362Q60.2397-62.451 58.0363-62.451Q55.7993-62.451 55.7993-60.2362L55.7993-56.9122Q50.0094-56.3868 46.3417-53.0903Q42.674-49.7938 42.674-44.6838Q42.674-39.9542 45.8156-37.0669Q48.9571-34.1797 55.025-32.7533L55.7993-32.58L55.7993-19.6105Q52.8102-20.0298 51.0627-21.5316Q49.3152-23.0334 48.707-25.2099Q48.2013-26.5108 47.3617-27.1645Q46.5222-27.8181 45.2788-27.8181Q43.7919-27.8181 42.8792-26.906Q41.9665-25.9938 41.9665-24.5614Q41.9665-24.1325 42.0345-23.7263Q42.1025-23.3201 42.2486-22.8613Q43.3136-18.9757 46.9671-16.4262Q50.6206-13.8766 55.7993-13.394L55.7993-10.0522Q55.7993-7.79467 58.0363-7.79467ZM55.7993-39.4981L55.4543-39.6031Q52.5137-40.4627 51.1094-41.8008Q49.7051-43.1389 49.7051-45.1255Q49.7051-47.1685 51.3398-48.6742Q52.9745-50.1799 55.7993-50.6735ZM60.2397-31.4658L61.1756-31.2474Q64.4267-30.3879 65.7194-28.9987Q67.0121-27.6096 67.0121-25.4995Q67.0121-23.1617 65.3134-21.5698Q63.6147-19.9778 60.2397-19.6105Z"/>
  </g>
  <g id="Regular-M" transform="matrix(1 0 0 1 1392.45 1126)">
   <path d="M27.7814 9.76797L86.9995 9.76797Q94.6681 9.76797 98.494 5.95622Q102.32 2.14448 102.32-5.39959L102.32-64.9857Q102.32-72.5298 98.494-76.3359Q94.6681-80.142 86.9995-80.142L27.7814-80.142Q20.1637-80.142 16.3123-76.3416Q12.4609-72.5412 12.4609-64.9857L12.4609-5.39959Q12.4609 2.16717 16.3123 5.96757Q20.1637 9.76797 27.7814 9.76797ZM27.906 1.86832Q24.2465 1.86832 22.2781-0.0491846Q20.3096-1.96668 20.3096-5.77899L20.3096-64.595Q20.3096-68.3563 22.2781-70.2993Q24.2465-72.2423 27.906-72.2423L86.8749-72.2423Q90.5116-72.2423 92.4914-70.2993Q94.4712-68.3563 94.4712-64.595L94.4712-5.77899Q94.4712-1.96668 92.4914-0.0491846Q90.5116 1.86832 86.8749 1.86832ZM57.4159-7.35987Q59.6925-7.35987 59.6925-9.67611L59.6925-13.1144Q65.3794-13.6298 69.2649-16.8639Q73.1503-20.0981 73.1503-25.6373Q73.1503-30.5874 69.9474-33.6176Q66.7445-36.6477 60.3952-37.7523L59.6925-37.8713L59.6925-51.5114Q62.3155-51.0356 64.1085-49.5147Q65.9014-47.9937 66.5924-45.49Q67.4531-43.0887 69.6051-43.0887Q70.8793-43.0887 71.6608-43.9014Q72.4423-44.714 72.4423-46.0109Q72.4423-46.362 72.3857-46.7188Q72.329-47.0757 72.2158-47.4891Q71.2643-51.4708 67.8375-54.0253Q64.4108-56.5798 59.6925-57.0838L59.6925-60.5106Q59.6925-62.7759 57.4159-62.7759Q55.0997-62.7759 55.0997-60.5106L55.0997-57.0838Q49.5093-56.5175 45.9721-53.2664Q42.4349-50.0153 42.4349-45.0311Q42.4349-40.3925 45.5557-37.5209Q48.6765-34.6493 54.7483-33.188L55.0997-33.103L55.0997-18.6982Q51.7971-19.1626 49.871-20.8479Q47.9448-22.5332 47.3162-24.9861Q46.8972-26.2207 46.1525-26.8238Q45.4078-27.427 44.3148-27.427Q43.0916-27.427 42.2903-26.62Q41.489-25.813 41.489-24.5558Q41.489-24.1537 41.5456-23.7969Q41.6022-23.4401 41.7155-23.0266Q42.7803-18.8409 46.4902-16.2665Q50.2001-13.6921 55.0997-13.1767L55.0997-9.67611Q55.0997-7.35987 57.4159-7.35987ZM55.0997-39.1059L54.7485-39.2191Q51.5025-40.1877 49.9701-41.669Q48.4377-43.1503 48.4377-45.3369Q48.4377-47.5802 50.2222-49.257Q52.0067-50.9337 55.0997-51.5114ZM59.6925-31.9194L60.7517-31.6702Q64.3206-30.7016 65.7199-29.1467Q67.1193-27.5918 67.1193-25.2692Q67.1193-22.6861 65.2695-20.8932Q63.4198-19.1003 59.6925-18.6982Z"/>
  </g>
  <g id="Light-M" transform="matrix(1 0 0 1 1096.49 1126)">
   <path d="M26.8614 9.03201L86.4291 9.03201Q93.601 9.03201 97.2153 5.40425Q100.83 1.7765 100.83-5.27079L100.83-65.0961Q100.83-72.1434 97.2153-75.7563Q93.601-79.3692 86.4291-79.3692L26.8614-79.3692Q19.7221-79.3692 16.0915-75.7712Q12.4609-72.1732 12.4609-65.0961L12.4609-5.27079Q12.4609 1.83599 16.0915 5.434Q19.7221 9.03201 26.8614 9.03201ZM26.986 2.97226Q22.8482 2.97226 20.6682 0.824768Q18.4881-1.32272 18.4881-5.55821L18.4881-64.779Q18.4881-68.9819 20.6682-71.1457Q22.8482-73.3094 26.986-73.3094L86.3045-73.3094Q90.3828-73.3094 92.5926-71.1457Q94.8024-68.9819 94.8024-64.779L94.8024-5.55821Q94.8024-1.32272 92.5926 0.824768Q90.3828 2.97226 86.3045 2.97226ZM56.6615-7.78304Q58.5886-7.78304 58.5886-9.71291L58.5886-13.372Q64.4042-13.8138 68.2253-17.0387Q72.0464-20.2637 72.0464-25.4901Q72.0464-30.1826 68.9539-33.0748Q65.8613-35.9669 59.6224-37.1451L58.5886-37.3561L58.5886-52.1002Q61.7267-51.6612 63.8509-49.947Q65.975-48.2329 66.574-45.5084Q67.2139-43.4567 69.0163-43.4567Q70.0329-43.4567 70.6672-44.1222Q71.3016-44.7876 71.3016-45.8637Q71.3016-46.178 71.2541-46.5073Q71.2067-46.8365 71.1118-47.2131Q70.2339-51.0845 66.8072-53.6389Q63.3804-56.1934 58.5886-56.6055L58.5886-60.0322Q58.5886-61.9295 56.6615-61.9295Q54.7317-61.9295 54.7317-60.0322L54.7317-56.6055Q49.2702-56.1311 45.7053-52.9628Q42.1405-49.7945 42.1405-45.0127Q42.1405-40.6317 45.1693-37.8521Q48.1981-35.0725 54.2148-33.6664L54.7317-33.5446L54.7317-17.907Q51.0244-18.3162 48.7026-20.2591Q46.3809-22.202 45.8443-25.0965Q45.5541-26.1103 44.9658-26.6307Q44.3775-27.151 43.4316-27.151Q42.4476-27.151 41.8119-26.5004Q41.1762-25.8498 41.1762-24.7766Q41.1762-24.4297 41.2236-24.1004Q41.271-23.7712 41.3659-23.3946Q42.3387-19.1904 46.0026-16.5332Q49.6665-13.8761 54.7317-13.4343L54.7317-9.71291Q54.7317-7.78304 56.6615-7.78304ZM54.7317-38.3699L54.4173-38.4648Q50.6562-39.4886 48.811-41.0986Q46.9658-42.7087 46.9658-45.2081Q46.9658-47.8562 49.1183-49.7262Q51.2708-51.5961 54.7317-52.1002ZM58.5886-32.5634L59.6478-32.3142Q63.7502-31.2904 65.4991-29.5883Q67.2481-27.8862 67.2481-25.2324Q67.2481-22.2997 64.9752-20.2768Q62.7023-18.2539 58.5886-17.907Z"/>
  </g>
  <g id="Thin-M" transform="matrix(1 0 0 1 800.76 1126)">
   <path d="M25.6447 8.05864L85.6747 8.05864Q92.1896 8.05864 95.5241 4.67423Q98.8585 1.28982 98.8585-5.10045L98.8585-65.2421Q98.8585-71.6324 95.5241-74.9898Q92.1896-78.3472 85.6747-78.3472L25.6447-78.3472Q19.1381-78.3472 15.7995-75.0168Q12.4609-71.6865 12.4609-65.2421L12.4609-5.10045Q12.4609 1.39797 15.7995 4.72831Q19.1381 8.05864 25.6447 8.05864ZM25.7693 4.43231Q20.9988 4.43231 18.5389 1.98064Q16.079-0.471023 16.079-5.2662L16.079-65.0223Q16.079-69.8093 18.5389-72.2651Q20.9988-74.7208 25.7693-74.7208L85.5501-74.7208Q90.2125-74.7208 92.7264-72.2651Q95.2404-69.8093 95.2404-65.0223L95.2404-5.2662Q95.2404-0.471023 92.7264 1.98064Q90.2125 4.43231 85.5501 4.43231ZM55.6638-8.34273Q57.1285-8.34273 57.1285-9.76157L57.1285-13.7127Q63.1145-14.0571 66.8504-17.2699Q70.5863-20.4827 70.5863-25.2954Q70.5863-29.6473 67.6398-32.3569Q64.6933-35.0666 58.6004-36.3421L57.1285-36.6748L57.1285-52.8789Q60.948-52.4886 63.5102-50.5189Q66.0724-48.5492 66.5496-45.5327Q66.8976-43.9434 68.2377-43.9434Q68.9136-43.9434 69.3532-44.4142Q69.7928-44.885 69.7928-45.669Q69.7928-45.9347 69.7576-46.2274Q69.7223-46.5201 69.6518-46.8481Q68.8712-50.5734 65.4445-53.1279Q62.0177-55.6824 57.1285-55.9728L57.1285-59.3995Q57.1285-60.8101 55.6638-60.8101Q54.245-60.8101 54.245-59.3995L54.245-55.9728Q48.9538-55.6201 45.3525-52.5613Q41.7512-49.5025 41.7512-44.9884Q41.7512-40.948 44.6583-38.2901Q47.5654-35.6322 53.5091-34.2991L54.245-34.1286L54.245-16.8607Q50.0023-17.1969 47.1574-19.4804Q44.3125-21.764 43.8976-25.2425Q43.7777-25.9643 43.3962-26.3751Q43.0148-26.786 42.2636-26.786Q41.5959-26.786 41.1792-26.3422Q40.7625-25.8985 40.7625-25.0686Q40.7625-24.7947 40.7978-24.502Q40.833-24.2093 40.9036-23.8813Q41.7547-19.6528 45.3577-16.8861Q48.9608-14.1194 54.245-13.775L54.245-9.76157Q54.245-8.34273 55.6638-8.34273ZM54.245-37.3965L53.9793-37.4671Q49.5368-38.5639 47.2779-40.3443Q45.019-42.1247 45.019-45.0378Q45.019-48.2212 47.6582-50.3467Q50.2974-52.4721 54.245-52.8789ZM57.1285-33.4151L58.1877-33.1659Q62.9958-32.0691 65.2071-30.1723Q67.4184-28.2755 67.4184-25.1837Q67.4184-21.7887 64.5858-19.4616Q61.7532-17.1346 57.1285-16.8607Z"/>
  </g>
  <g id="Ultralight-M" transform="matrix(1 0 0 1 504.553 1126)">
   <path d="M25.0215 7.56009L85.2884 7.56009Q91.4667 7.56009 94.6578 4.30031Q97.8489 1.04054 97.8489-5.01321L97.8489-65.3169Q97.8489-71.3707 94.6578-74.5972Q91.4667-77.8237 85.2884-77.8237L25.0215-77.8237Q18.8389-77.8237 15.6499-74.6305Q12.4609-71.4372 12.4609-65.3169L12.4609-5.01321Q12.4609 1.17363 15.6499 4.36686Q18.8389 7.56009 25.0215 7.56009ZM25.1461 5.18014Q20.0516 5.18014 17.4483 2.57267Q14.8451-0.034789 14.8451-5.11663L14.8451-65.147Q14.8451-70.233 17.4483-72.8384Q20.0516-75.4437 25.1461-75.4437L85.1638-75.4437Q90.1252-75.4437 92.795-72.8384Q95.4648-70.233 95.4648-65.147L95.4648-5.11663Q95.4648-0.034789 92.795 2.57267Q90.1252 5.18014 85.1638 5.18014ZM55.1528-8.6294Q56.3807-8.6294 56.3807-9.7865L56.3807-13.8872Q62.4539-14.1817 66.1462-17.3883Q69.8385-20.5949 69.8385-25.1957Q69.8385-29.3731 66.9668-31.9892Q64.095-34.6054 58.0769-35.9308L56.3807-36.3258L56.3807-53.2777Q60.5492-52.9123 63.3357-50.8118Q66.1222-48.7112 66.5372-45.5452Q66.7355-44.1927 67.8388-44.1927Q68.3402-44.1927 68.6802-44.5637Q69.0201-44.9348 69.0201-45.5693Q69.0201-45.8101 68.991-46.0841Q68.962-46.3581 68.9039-46.6611Q68.1732-50.3117 64.7465-52.8662Q61.3197-55.4207 56.3807-55.6487L56.3807-59.0755Q56.3807-60.2368 55.1528-60.2368Q53.9957-60.2368 53.9957-59.0755L53.9957-55.6487Q48.7918-55.3584 45.1718-52.3557Q41.5517-49.353 41.5517-44.9759Q41.5517-41.1101 44.3966-38.5145Q47.2414-35.9189 53.1476-34.6232L53.9957-34.4278L53.9957-16.3247Q49.4789-16.6235 46.366-19.0816Q43.2531-21.5396 42.9004-25.3173Q42.8678-25.8895 42.5923-26.2443Q42.3168-26.599 41.6653-26.599Q41.1597-26.599 40.8552-26.2612Q40.5506-25.9234 40.5506-25.2181Q40.5506-24.9816 40.5797-24.7076Q40.6087-24.4336 40.6668-24.1306Q41.4555-19.8896 45.0274-17.0668Q48.5994-14.244 53.9957-13.9495L53.9957-9.7865Q53.9957-8.6294 55.1528-8.6294ZM53.9957-36.898L53.755-36.956Q48.9635-38.0902 46.4927-39.9579Q44.0219-41.8255 44.0219-44.9505Q44.0219-48.4082 46.9104-50.6645Q49.7989-52.9208 53.9957-53.2777ZM56.3807-33.8513L57.4399-33.6021Q62.6095-32.4679 65.0575-30.4714Q67.5056-28.4749 67.5056-25.1588Q67.5056-21.5269 64.3864-19.0441Q61.2672-16.5612 56.3807-16.3247Z"/>
  </g>
  <g id="Black-S" transform="matrix(1 0 0 1 2885.5 696)">
   <path d="M25 2.92969L70.8008 2.92969Q77.9785 2.92969 82.0068-1.09863Q86.0352-5.12695 86.0352-12.3047L86.0352-58.1055Q86.0352-65.2832 82.0068-69.3115Q77.9785-73.3398 70.8008-73.3398L25-73.3398Q17.8223-73.3398 13.7939-69.3115Q9.76562-65.2832 9.76562-58.1055L9.76562-12.3047Q9.76562-5.12695 13.7939-1.09863Q17.8223 2.92969 25 2.92969ZM27.2461-11.2305Q25.5859-11.2305 24.7559-11.9873Q23.9258-12.7441 23.9258-14.5508L23.9258-55.8594Q23.9258-57.7148 24.7559-58.4473Q25.5859-59.1797 27.2461-59.1797L68.5547-59.1797Q70.2637-59.1797 71.0693-58.4473Q71.875-57.7148 71.875-55.8594L71.875-14.5508Q71.875-12.7441 71.0693-11.9873Q70.2637-11.2305 68.5547-11.2305ZM47.9004-15.4785Q49.3164-15.4785 49.3164-16.9922L49.3164-19.043Q54.9805-19.4336 58.2764-22.2656Q61.5723-25.0977 61.5723-29.541Q61.5723-33.4961 59.1309-35.6934Q56.6895-37.8906 51.6602-38.9648L49.3164-39.4531L49.3164-43.8965Q50.1465-43.7012 50.7568-43.2861Q51.3672-42.8711 51.8066-42.2363Q53.5645-39.6973 56.2988-39.6973Q58.3008-39.6973 59.4238-40.6738Q60.5469-41.6504 60.5469-43.2617Q60.5469-43.75 60.4492-44.2383Q60.3516-44.7266 60.2051-45.166Q59.375-47.4609 56.665-49.3164Q53.9551-51.1719 49.3164-51.5137L49.3164-53.7109Q49.3164-55.2246 47.9004-55.2246Q46.4844-55.2246 46.4844-53.7109L46.4844-51.5137Q41.1621-51.2695 37.7686-48.5107Q34.375-45.752 34.375-41.2598Q34.375-37.207 36.9141-34.8877Q39.4531-32.5684 44.1895-31.5918L46.4844-31.1035L46.4844-26.5625Q45.3613-26.709 44.6777-27.1729Q43.9941-27.6367 43.6035-28.2715Q42.8711-29.541 41.8457-30.249Q40.8203-30.957 39.2578-30.957Q37.0605-30.957 35.9131-29.834Q34.7656-28.7109 34.7656-26.9043Q34.7656-26.4648 34.8633-25.9521Q34.9609-25.4395 35.2051-24.9023Q36.0352-23.0469 38.6719-21.1426Q41.3086-19.2383 46.4844-18.9941L46.4844-16.9922Q46.4844-15.4785 47.9004-15.4785ZM46.4844-40.0879L46.2402-40.1367Q45.1172-40.3809 44.5068-40.8691Q43.8965-41.3574 43.8965-42.1387Q43.8965-42.9688 44.6045-43.4814Q45.3125-43.9941 46.4844-44.043ZM49.3164-30.5176L49.5605-30.4688Q50.8789-30.2246 51.4893-29.7852Q52.0996-29.3457 52.0996-28.5156Q52.0996-27.6367 51.3428-27.1729Q50.5859-26.709 49.3164-26.5625Z"/>
  </g>
  <g id="Heavy-S" transform="matrix(1 0 0 1 2589.39 696)">
   <path d="M24.3431 2.33042L70.2476 2.33042Q77.2064 2.33042 81.0157-1.47318Q84.8251-5.27677 84.8251-12.2125L84.8251-58.1977Q84.8251-65.1334 81.0157-68.937Q77.2064-72.7406 70.2476-72.7406L24.3431-72.7406Q17.3959-72.7406 13.5807-68.937Q9.76562-65.1334 9.76562-58.1977L9.76562-12.2125Q9.76562-5.27677 13.5807-1.47318Q17.3959 2.33042 24.3431 2.33042ZM26.0821-10.1587Q24.1915-10.1587 23.2173-11.0653Q22.2432-11.972 22.2432-14.0091L22.2432-56.401Q22.2432-58.4639 23.2173-59.3577Q24.1915-60.2515 26.0821-60.2515L68.5086-60.2515Q70.4365-60.2515 71.392-59.3577Q72.3475-58.4639 72.3475-56.401L72.3475-14.0091Q72.3475-11.972 71.392-11.0653Q70.4365-10.1587 68.5086-10.1587ZM47.3011-14.9369Q48.8439-14.9369 48.8439-16.5658L48.8439-18.7433Q54.2083-19.1455 57.4524-21.9084Q60.6964-24.6713 60.6964-29.1261Q60.6964-33.0927 58.2262-35.3476Q55.756-37.6025 50.7267-38.6191L48.8439-39.0037L48.8439-44.7954Q49.9045-44.554 50.6646-43.9776Q51.4248-43.4012 51.8988-42.4783Q53.4262-40.0545 55.9531-40.0545Q57.7476-40.0545 58.7669-40.9677Q59.7863-41.8809 59.7863-43.377Q59.7863-43.8191 59.7001-44.2613Q59.614-44.7035 59.479-45.1199Q58.6605-47.6223 55.9563-49.5123Q53.2521-51.4024 48.8439-51.7672L48.8439-54.0797Q48.8439-55.6971 47.3011-55.6971Q45.7468-55.6971 45.7468-54.0797L45.7468-51.7672Q40.632-51.4654 37.3882-48.747Q34.1445-46.0285 34.1445-41.6516Q34.1445-37.668 36.672-35.3544Q39.1996-33.0409 43.9474-32.0182L45.7468-31.6336L45.7468-25.6405Q44.3241-25.8446 43.4907-26.4814Q42.6573-27.1181 42.2321-28.0064Q41.5804-29.2299 40.6414-29.8918Q39.7024-30.5537 38.2898-30.5537Q36.3576-30.5537 35.3138-29.5286Q34.2701-28.5035 34.2701-26.8697Q34.2701-26.4533 34.3562-25.9925Q34.4423-25.5316 34.6519-25.0406Q35.4935-22.851 38.1994-20.9294Q40.9052-19.0078 45.7468-18.7176L45.7468-16.5658Q45.7468-14.9369 47.3011-14.9369ZM45.7468-39.7422L45.4911-39.8025Q44.0915-40.1619 43.3774-40.7942Q42.6634-41.4266 42.6634-42.3922Q42.6634-43.3952 43.4924-44.075Q44.3214-44.7548 45.7468-44.9073ZM48.8439-30.944L49.2263-30.8606Q50.8328-30.5012 51.5181-29.8946Q52.2033-29.2881 52.2033-28.2621Q52.2033-27.1527 51.3312-26.4929Q50.4592-25.8331 48.8439-25.6405Z"/>
  </g>
  <g id="Bold-S" transform="matrix(1 0 0 1 2293.36 696)">
   <path d="M23.6084 1.66016L69.6289 1.66016Q76.3428 1.66016 79.9072-1.89209Q83.4717-5.44434 83.4717-12.1094L83.4717-58.3008Q83.4717-64.9658 79.9072-68.5181Q76.3428-72.0703 69.6289-72.0703L23.6084-72.0703Q16.9189-72.0703 13.3423-68.5181Q9.76562-64.9658 9.76562-58.3008L9.76562-12.1094Q9.76562-5.44434 13.3423-1.89209Q16.9189 1.66016 23.6084 1.66016ZM24.7803-8.95996Q22.6318-8.95996 21.4966-10.0342Q20.3613-11.1084 20.3613-13.4033L20.3613-57.0068Q20.3613-59.3018 21.4966-60.376Q22.6318-61.4502 24.7803-61.4502L68.457-61.4502Q70.6299-61.4502 71.7529-60.376Q72.876-59.3018 72.876-57.0068L72.876-13.4033Q72.876-11.1084 71.7529-10.0342Q70.6299-8.95996 68.457-8.95996ZM46.6309-14.3311Q48.3154-14.3311 48.3154-16.0889L48.3154-18.4082Q53.3447-18.8232 56.5308-21.5088Q59.7168-24.1943 59.7168-28.6621Q59.7168-32.6416 57.2144-34.9609Q54.7119-37.2803 49.6826-38.2324L48.3154-38.501L48.3154-45.8008Q49.6338-45.5078 50.5615-44.751Q51.4893-43.9941 52.002-42.749Q53.2715-40.4541 55.5664-40.4541Q57.1289-40.4541 58.0322-41.2964Q58.9355-42.1387 58.9355-43.5059Q58.9355-43.8965 58.8623-44.2871Q58.7891-44.6777 58.667-45.0684Q57.8613-47.8027 55.1636-49.7314Q52.4658-51.6602 48.3154-52.0508L48.3154-54.4922Q48.3154-56.2256 46.6309-56.2256Q44.9219-56.2256 44.9219-54.4922L44.9219-52.0508Q40.0391-51.6846 36.9629-49.0112Q33.8867-46.3379 33.8867-42.0898Q33.8867-38.1836 36.4014-35.8765Q38.916-33.5693 43.6768-32.4951L44.9219-32.2266L44.9219-24.6094Q43.1641-24.8779 42.1631-25.708Q41.1621-26.5381 40.6982-27.71Q40.1367-28.8818 39.2944-29.4922Q38.4521-30.1025 37.207-30.1025Q35.5713-30.1025 34.6436-29.187Q33.7158-28.2715 33.7158-26.8311Q33.7158-26.4404 33.7891-26.0376Q33.8623-25.6348 34.0332-25.1953Q34.8877-22.6318 37.6709-20.6909Q40.4541-18.75 44.9219-18.4082L44.9219-16.0889Q44.9219-14.3311 46.6309-14.3311ZM44.9219-39.3555L44.6533-39.4287Q42.9443-39.917 42.1143-40.7104Q41.2842-41.5039 41.2842-42.6758Q41.2842-43.8721 42.2485-44.7388Q43.2129-45.6055 44.9219-45.874ZM48.3154-31.4209L48.8525-31.2988Q50.7812-30.8105 51.5503-30.0171Q52.3193-29.2236 52.3193-27.9785Q52.3193-26.6113 51.3184-25.7324Q50.3174-24.8535 48.3154-24.6094Z"/>
  </g>
  <g id="Semibold-S" transform="matrix(1 0 0 1 1997.11 696)">
   <path d="M23.1019 1.19805L69.2023 1.19805Q75.7474 1.19805 79.143-2.18091Q82.5386-5.55986 82.5386-12.0383L82.5386-58.3719Q82.5386-64.8503 79.143-68.2292Q75.7474-71.6082 69.2023-71.6082L23.1019-71.6082Q16.5901-71.6082 13.1779-68.2292Q9.76562-64.8503 9.76562-58.3719L9.76562-12.0383Q9.76562-5.55986 13.1779-2.18091Q16.5901 1.19805 23.1019 1.19805ZM23.8827-8.1335Q21.5565-8.1335 20.3102-9.32324Q19.0639-10.513 19.0639-12.9856L19.0639-57.4245Q19.0639-59.8794 20.3102-61.078Q21.5565-62.2767 23.8827-62.2767L68.4215-62.2767Q70.7632-62.2767 72.0018-61.078Q73.2403-59.8794 73.2403-57.4245L73.2403-12.9856Q73.2403-10.513 72.0018-9.32324Q70.7632-8.1335 68.4215-8.1335ZM46.1688-13.9134Q47.9511-13.9134 47.9511-15.7601L47.9511-18.1771Q52.7493-18.6011 55.8954-21.2333Q59.0414-23.8655 59.0414-28.3422Q59.0414-32.3306 56.5167-34.6943Q53.9921-37.0581 48.9628-37.9658L47.9511-38.1544L47.9511-46.4939Q49.4472-46.1654 50.4904-45.2842Q51.5337-44.4029 52.073-42.9356Q53.1648-40.7296 55.2998-40.7296Q56.7023-40.7296 57.5257-41.523Q58.349-42.3164 58.349-43.5947Q58.349-43.9498 58.2847-44.3049Q58.2203-44.66 58.1071-45.0328Q57.3104-47.9271 54.617-49.8825Q51.9237-51.8379 47.9511-52.2463L47.9511-54.7766Q47.9511-56.5899 46.1688-56.5899Q44.3531-56.5899 44.3531-54.7766L44.3531-52.2463Q39.6303-51.8356 36.6696-49.1934Q33.709-46.5512 33.709-42.392Q33.709-38.5391 36.2147-36.2364Q38.7205-33.9337 43.4901-32.8239L44.3531-32.6354L44.3531-23.8984Q42.3643-24.2114 41.2478-25.1748Q40.1313-26.1382 39.6407-27.5056Q39.1414-28.6419 38.3658-29.2167Q37.5901-29.7915 36.4605-29.7915Q35.0292-29.7915 34.1814-28.9515Q33.3337-28.1115 33.3337-26.8044Q33.3337-26.4315 33.398-26.0687Q33.4624-25.7059 33.6066-25.302Q34.47-22.4808 37.3065-20.5265Q40.1431-18.5723 44.3531-18.1949L44.3531-15.7601Q44.3531-13.9134 46.1688-13.9134ZM44.3531-39.0889L44.0757-39.171Q42.1534-39.7481 41.2434-40.6527Q40.3333-41.5572 40.3333-42.8713Q40.3333-44.2009 41.391-45.1964Q42.4486-46.192 44.3531-46.5405ZM47.9511-31.7497L48.5948-31.601Q50.7457-31.0238 51.5725-30.1015Q52.3993-29.1792 52.3993-27.783Q52.3993-26.2381 51.3095-25.2081Q50.2196-24.1781 47.9511-23.8984Z"/>
  </g>
  <g id="Medium-S" transform="matrix(1 0 0 1 1700.76 696)">
   <path d="M22.7178 0.847656L68.8789 0.847656Q75.2959 0.847656 78.5635-2.3999Q81.8311-5.64746 81.8311-11.9844L81.8311-58.4258Q81.8311-64.7627 78.5635-68.0103Q75.2959-71.2578 68.8789-71.2578L22.7178-71.2578Q16.3408-71.2578 13.0532-68.0103Q9.76562-64.7627 9.76562-58.4258L9.76562-11.9844Q9.76562-5.64746 13.0532-2.3999Q16.3408 0.847656 22.7178 0.847656ZM23.2021-7.50684Q20.7412-7.50684 19.4106-8.78418Q18.0801-10.0615 18.0801-12.6689L18.0801-57.7412Q18.0801-60.3174 19.4106-61.6104Q20.7412-62.9033 23.2021-62.9033L68.3945-62.9033Q70.8643-62.9033 72.1904-61.6104Q73.5166-60.3174 73.5166-57.7412L73.5166-12.6689Q73.5166-10.0615 72.1904-8.78418Q70.8643-7.50684 68.3945-7.50684ZM45.8184-13.5967Q47.6748-13.5967 47.6748-15.5107L47.6748-18.002Q52.2979-18.4326 55.4136-21.0244Q58.5293-23.6162 58.5293-28.0996Q58.5293-32.0947 55.9878-34.4922Q53.4463-36.8896 48.417-37.7637L47.6748-37.8916L47.6748-47.0195Q49.3057-46.6641 50.4365-45.6885Q51.5674-44.7129 52.127-43.0771Q53.084-40.9385 55.0977-40.9385Q56.3789-40.9385 57.1416-41.6948Q57.9043-42.4512 57.9043-43.6621Q57.9043-43.9902 57.8467-44.3184Q57.7891-44.6465 57.6826-45.0059Q56.8926-48.0215 54.2026-49.9971Q51.5127-51.9727 47.6748-52.3945L47.6748-54.9922Q47.6748-56.8662 45.8184-56.8662Q43.9219-56.8662 43.9219-54.9922L43.9219-52.3945Q39.3203-51.9502 36.4473-49.3315Q33.5742-46.7129 33.5742-42.6211Q33.5742-38.8086 36.0732-36.5093Q38.5723-34.21 43.3486-33.0732L43.9219-32.9453L43.9219-23.3594Q41.7578-23.7061 40.5537-24.7705Q39.3496-25.835 38.8389-27.3506Q38.3867-28.46 37.6616-29.0078Q36.9365-29.5557 35.8945-29.5557Q34.6182-29.5557 33.8311-28.7729Q33.0439-27.9902 33.0439-26.7842Q33.0439-26.4248 33.1016-26.0923Q33.1592-25.7598 33.2832-25.3828Q34.1533-22.3662 37.0303-20.4019Q39.9072-18.4375 43.9219-18.0332L43.9219-15.5107Q43.9219-13.5967 45.8184-13.5967ZM43.9219-38.8867L43.6377-38.9756Q41.5537-39.6201 40.583-40.6089Q39.6123-41.5977 39.6123-43.0195Q39.6123-44.4502 40.7407-45.5435Q41.8691-46.6367 43.9219-47.0459ZM47.6748-31.999L48.3994-31.8301Q50.7188-31.1855 51.5894-30.1655Q52.46-29.1455 52.46-27.6348Q52.46-25.9551 51.3027-24.8105Q50.1455-23.666 47.6748-23.3594Z"/>
  </g>
  <g id="Regular-S" transform="matrix(1 0 0 1 1404.51 696)">
   <path d="M22.2168 0.390625L68.457 0.390625Q74.707 0.390625 77.8076-2.68555Q80.9082-5.76172 80.9082-11.9141L80.9082-58.4961Q80.9082-64.6484 77.8076-67.7246Q74.707-70.8008 68.457-70.8008L22.2168-70.8008Q16.0156-70.8008 12.8906-67.7246Q9.76562-64.6484 9.76562-58.4961L9.76562-11.9141Q9.76562-5.76172 12.8906-2.68555Q16.0156 0.390625 22.2168 0.390625ZM22.3145-6.68945Q19.6777-6.68945 18.2373-8.08105Q16.7969-9.47266 16.7969-12.2559L16.7969-58.1543Q16.7969-60.8887 18.2373-62.3047Q19.6777-63.7207 22.3145-63.7207L68.3594-63.7207Q70.9961-63.7207 72.4365-62.3047Q73.877-60.8887 73.877-58.1543L73.877-12.2559Q73.877-9.47266 72.4365-8.08105Q70.9961-6.68945 68.3594-6.68945ZM45.3613-13.1836Q47.3145-13.1836 47.3145-15.1855L47.3145-17.7734Q51.709-18.2129 54.7852-20.752Q57.8613-23.291 57.8613-27.7832Q57.8613-31.7871 55.2979-34.2285Q52.7344-36.6699 47.7051-37.5L47.3145-37.5488L47.3145-47.7051Q49.1211-47.3145 50.3662-46.2158Q51.6113-45.1172 52.1973-43.2617Q52.9785-41.2109 54.834-41.2109Q55.957-41.2109 56.6406-41.9189Q57.3242-42.627 57.3242-43.75Q57.3242-44.043 57.2754-44.3359Q57.2266-44.6289 57.1289-44.9707Q56.3477-48.1445 53.6621-50.1465Q50.9766-52.1484 47.3145-52.5879L47.3145-55.2734Q47.3145-57.2266 45.3613-57.2266Q43.3594-57.2266 43.3594-55.2734L43.3594-52.5879Q38.916-52.0996 36.1572-49.5117Q33.3984-46.9238 33.3984-42.9199Q33.3984-39.1602 35.8887-36.8652Q38.3789-34.5703 43.1641-33.3984L43.3594-33.3496L43.3594-22.6562Q40.9668-23.0469 39.6484-24.2432Q38.3301-25.4395 37.793-27.1484Q37.4023-28.2227 36.7432-28.7354Q36.084-29.248 35.1562-29.248Q34.082-29.248 33.374-28.54Q32.666-27.832 32.666-26.7578Q32.666-26.416 32.7148-26.123Q32.7637-25.8301 32.8613-25.4883Q33.7402-22.2168 36.6699-20.2393Q39.5996-18.2617 43.3594-17.8223L43.3594-15.1855Q43.3594-13.1836 45.3613-13.1836ZM43.3594-38.623L43.0664-38.7207Q40.7715-39.4531 39.7217-40.5518Q38.6719-41.6504 38.6719-43.2129Q38.6719-44.7754 39.8926-45.9961Q41.1133-47.2168 43.3594-47.7051ZM47.3145-32.3242L48.1445-32.1289Q50.6836-31.3965 51.6113-30.249Q52.5391-29.1016 52.5391-27.4414Q52.5391-25.5859 51.2939-24.292Q50.0488-22.998 47.3145-22.6562Z"/>
  </g>
  <g id="Light-S" transform="matrix(1 0 0 1 1108.45 696)">
   <path d="M21.403-0.260417L67.9525-0.260417Q73.763-0.260417 76.6764-3.17383Q79.5898-6.08724 79.5898-11.8001L79.5898-58.5938Q79.5898-64.3066 76.6764-67.2119Q73.763-70.1172 67.9525-70.1172L21.403-70.1172Q15.625-70.1172 12.6953-67.2201Q9.76562-64.3229 9.76562-58.5938L9.76562-11.8001Q9.76562-6.05469 12.6953-3.15755Q15.625-0.260417 21.403-0.260417ZM21.5007-5.71289Q18.4408-5.71289 16.8132-7.30794Q15.1855-8.90299 15.1855-12.0605L15.1855-58.3171Q15.1855-61.4421 16.8132-63.0534Q18.4408-64.6647 21.5007-64.6647L67.8548-64.6647Q70.8822-64.6647 72.526-63.0534Q74.1699-61.4421 74.1699-58.3171L74.1699-12.0605Q74.1699-8.90299 72.526-7.30794Q70.8822-5.71289 67.8548-5.71289ZM44.694-13.5579Q46.3379-13.5579 46.3379-15.2181L46.3379-18.0013Q50.8464-18.3757 53.8656-20.9066Q56.8848-23.4375 56.8848-27.653Q56.8848-31.429 54.4189-33.7484Q51.9531-36.0677 47.0215-36.9629L46.3379-37.0931L46.3379-48.2259Q48.6003-47.8678 50.1383-46.5983Q51.6764-45.3288 52.181-43.278Q52.7669-41.5365 54.3132-41.5365Q55.2083-41.5365 55.7617-42.1143Q56.3151-42.6921 56.3151-43.6198Q56.3151-43.8802 56.2744-44.1488Q56.2337-44.4173 56.1523-44.7266Q55.4362-47.8027 52.7507-49.8047Q50.0651-51.8066 46.3379-52.1647L46.3379-54.8503Q46.3379-56.4779 44.694-56.4779Q43.0339-56.4779 43.0339-54.8503L43.0339-52.1647Q38.7044-51.7578 35.9212-49.2432Q33.138-46.7285 33.138-42.9036Q33.138-39.3717 35.5469-37.1582Q37.9557-34.9447 42.6921-33.8216L43.0339-33.7402L43.0339-21.9564Q40.2832-22.2982 38.6149-23.7223Q36.9466-25.1465 36.4909-27.2461Q36.2142-28.125 35.6934-28.5645Q35.1725-29.0039 34.375-29.0039Q33.5124-29.0039 32.9508-28.4342Q32.3893-27.8646 32.3893-26.9531Q32.3893-26.6602 32.43-26.3916Q32.4707-26.123 32.5521-25.8138Q33.3496-22.526 36.2386-20.4753Q39.1276-18.4245 43.0339-18.0501L43.0339-15.2181Q43.0339-13.5579 44.694-13.5579ZM43.0339-37.972L42.7734-38.0534Q40.0228-38.8346 38.6963-40.0472Q37.3698-41.2598 37.3698-43.099Q37.3698-45.0195 38.916-46.4111Q40.4622-47.8027 43.0339-48.2259ZM46.3379-32.8939L47.168-32.6986Q50.179-31.9173 51.416-30.6396Q52.653-29.362 52.653-27.4089Q52.653-25.2441 51.0335-23.7467Q49.4141-22.2493 46.3379-21.9564Z"/>
  </g>
  <g id="Thin-S" transform="matrix(1 0 0 1 812.615 696)">
   <path d="M20.3267-1.12147L67.2852-1.12147Q72.5145-1.12147 75.1803-3.81962Q77.8462-6.51777 77.8462-11.6494L77.8462-58.7229Q77.8462-63.8546 75.1803-66.5338Q72.5145-69.2131 67.2852-69.2131L20.3267-69.2131Q15.1084-69.2131 12.437-66.5527Q9.76562-63.8924 9.76562-58.7229L9.76562-11.6494Q9.76562-6.44216 12.437-3.78182Q15.1084-1.12147 20.3267-1.12147ZM20.4243-4.42131Q16.8048-4.42131 14.9296-6.28544Q13.0544-8.14957 13.0544-11.8022L13.0544-58.5323Q13.0544-62.174 14.9296-64.0436Q16.8048-65.9132 20.4243-65.9132L67.1875-65.9132Q70.7315-65.9132 72.6444-64.0436Q74.5574-62.174 74.5574-58.5323L74.5574-11.8022Q74.5574-8.14957 72.6444-6.28544Q70.7315-4.42131 67.1875-4.42131ZM43.8114-14.053Q45.0463-14.053 45.0463-15.2612L45.0463-18.3027Q49.7055-18.5909 52.6493-21.1111Q55.5932-23.6312 55.5932-27.4808Q55.5932-30.9555 53.2565-33.1133Q50.9199-35.2712 46.1174-36.2525L45.0463-36.4904L45.0463-48.9148Q47.9114-48.5997 49.837-47.1042Q51.7625-45.6086 52.1595-43.2995Q52.4871-41.967 53.6243-41.967Q54.2181-41.967 54.5993-42.3726Q54.9805-42.7782 54.9805-43.4476Q54.9805-43.6649 54.9505-43.9012Q54.9206-44.1375 54.8608-44.4037Q54.2307-47.3507 51.5452-49.3526Q48.8596-51.3546 45.0463-51.605L45.0463-54.2906Q45.0463-55.4877 43.8114-55.4877Q42.6033-55.4877 42.6033-54.2906L42.6033-51.605Q38.4246-51.3058 35.6091-48.888Q32.7936-46.4702 32.7936-42.8821Q32.7936-39.6516 35.0948-37.5457Q37.396-35.4398 42.0678-34.3813L42.6033-34.2569L42.6033-21.0307Q39.3791-21.308 37.248-23.0335Q35.1169-24.759 34.7688-27.3753Q34.6428-27.9958 34.3049-28.3384Q33.967-28.681 33.3417-28.681Q32.7589-28.681 32.3912-28.2943Q32.0234-27.9076 32.0234-27.2114Q32.0234-26.9831 32.0533-26.7468Q32.0832-26.5105 32.1431-26.2443Q32.833-22.935 35.6682-20.7874Q38.5033-18.6397 42.6033-18.3515L42.6033-15.2612Q42.6033-14.053 43.8114-14.053ZM42.6033-37.111L42.386-37.1708Q39.0326-38.0166 37.3401-39.3799Q35.6477-40.7431 35.6477-42.9483Q35.6477-45.3424 37.6244-46.9601Q39.6012-48.5777 42.6033-48.9148ZM45.0463-33.6473L45.8764-33.452Q49.5117-32.6062 51.1577-31.1563Q52.8037-29.7064 52.8037-27.3658Q52.8037-24.7921 50.6891-23.0256Q48.5745-21.2591 45.0463-21.0307Z"/>
  </g>
  <g id="Ultralight-S" transform="matrix(1 0 0 1 516.35 696)">
   <path d="M19.7754-1.5625L66.9434-1.5625Q71.875-1.5625 74.4141-4.15039Q76.9531-6.73828 76.9531-11.5723L76.9531-58.7891Q76.9531-63.623 74.4141-66.1865Q71.875-68.75 66.9434-68.75L19.7754-68.75Q14.8438-68.75 12.3047-66.2109Q9.76562-63.6719 9.76562-58.7891L9.76562-11.5723Q9.76562-6.64062 12.3047-4.10156Q14.8438-1.5625 19.7754-1.5625ZM19.873-3.75977Q15.9668-3.75977 13.9648-5.76172Q11.9629-7.76367 11.9629-11.6699L11.9629-58.6426Q11.9629-62.5488 13.9648-64.5508Q15.9668-66.5527 19.873-66.5527L66.8457-66.5527Q70.6543-66.5527 72.7051-64.5508Q74.7559-62.5488 74.7559-58.6426L74.7559-11.6699Q74.7559-7.76367 72.7051-5.76172Q70.6543-3.75977 66.8457-3.75977ZM43.3594-14.3066Q44.3848-14.3066 44.3848-15.2832L44.3848-18.457Q49.1211-18.7012 52.0264-21.2158Q54.9316-23.7305 54.9316-27.3926Q54.9316-30.7129 52.6611-32.7881Q50.3906-34.8633 45.6543-35.8887L44.3848-36.1816L44.3848-49.2676Q47.5586-48.9746 49.6826-47.3633Q51.8066-45.752 52.1484-43.3105Q52.3438-42.1875 53.2715-42.1875Q53.7109-42.1875 54.0039-42.5049Q54.2969-42.8223 54.2969-43.3594Q54.2969-43.5547 54.2725-43.7744Q54.248-43.9941 54.1992-44.2383Q53.6133-47.1191 50.9277-49.1211Q48.2422-51.123 44.3848-51.3184L44.3848-54.0039Q44.3848-54.9805 43.3594-54.9805Q42.3828-54.9805 42.3828-54.0039L42.3828-51.3184Q38.2812-51.0742 35.4492-48.7061Q32.6172-46.3379 32.6172-42.8711Q32.6172-39.7949 34.8633-37.7441Q37.1094-35.6934 41.748-34.668L42.3828-34.5215L42.3828-20.5566Q38.916-20.8008 36.5479-22.6807Q34.1797-24.5605 33.8867-27.4414Q33.8379-27.9297 33.5938-28.2227Q33.3496-28.5156 32.8125-28.5156Q32.373-28.5156 32.1045-28.2227Q31.8359-27.9297 31.8359-27.3438Q31.8359-27.1484 31.8604-26.9287Q31.8848-26.709 31.9336-26.4648Q32.5684-23.1445 35.376-20.9473Q38.1836-18.75 42.3828-18.5059L42.3828-15.2832Q42.3828-14.3066 43.3594-14.3066ZM42.3828-36.6699L42.1875-36.7188Q38.5254-37.5977 36.6455-39.0381Q34.7656-40.4785 34.7656-42.8711Q34.7656-45.5078 36.9629-47.2412Q39.1602-48.9746 42.3828-49.2676ZM44.3848-34.0332L45.2148-33.8379Q49.1699-32.959 51.0254-31.4209Q52.8809-29.8828 52.8809-27.3438Q52.8809-24.5605 50.5127-22.6562Q48.1445-20.752 44.3848-20.5566Z"/>
  </g>
 </g>
</svg>
